<?xml version="1.0" standalone="no"?>
<!DOCTYPE svg PUBLIC "-//W3C//DTD SVG 20010904//EN"
 "http://www.w3.org/TR/2001/REC-SVG-20010904/DTD/svg10.dtd">
<svg version="1.0" xmlns="http://www.w3.org/2000/svg"
 width="716.000000pt" height="282.000000pt" viewBox="0 0 716.000000 282.000000"
 preserveAspectRatio="xMidYMid meet">
<metadata>
Created by potrace 1.13, written by Peter Selinger 2001-2015
</metadata>
<g transform="translate(0.000000,282.000000) scale(0.100000,-0.100000)"
fill="#000000" stroke="none">
<path d="M3470 2146 c-111 -39 -227 -110 -399 -244 -193 -151 -551 -479 -745
-683 -49 -52 -128 -135 -175 -184 -47 -50 -99 -105 -116 -124 l-30 -33 30 18
c17 11 131 87 255 170 423 284 668 431 895 540 159 76 302 124 367 124 68 0
175 -26 277 -67 92 -36 365 -176 392 -199 8 -8 19 -14 23 -14 13 0 325 -196
546 -344 124 -83 252 -168 285 -189 l60 -39 -36 38 c-637 690 -1165 1143
-1436 1233 -79 27 -112 26 -193 -3z m241 -77 c191 -96 572 -409 869 -714 l65
-67 -106 69 c-73 46 -160 117 -275 225 -260 241 -518 440 -641 496 -24 10 -40
22 -36 26 11 11 63 -4 124 -35z m-167 -298 c3 -4 -21 -11 -52 -14 -140 -15
-443 -151 -727 -327 -222 -137 -232 -143 -190 -104 54 49 213 161 303 213 177
103 443 217 542 234 47 8 119 7 124 -2z"/>
</g>
</svg>
