<?xml version="1.0" encoding="utf-8"?>
<!-- Generator: Adobe Illustrator 19.2.1, SVG Export Plug-In . SVG Version: 6.00 Build 0)  -->
<svg version="1.1" id="Layer_1" xmlns="http://www.w3.org/2000/svg" xmlns:xlink="http://www.w3.org/1999/xlink" x="0px" y="0px"
	 viewBox="0 0 200.3 230.1" style="enable-background:new 0 0 200.3 230.1;" xml:space="preserve">
<g id="LOGOEXP">
	<polygon class="med" points="100.2,115.5 100.2,115.5 100.2,158.1 100.2,158.1 	"/>
	<polygon class="med" points="100.2,115.5 64.2,95.1 64.2,136.7 100.3,158.1 100.2,158.1 	"/>
	<polygon class="med" points="100.2,193 32.5,154.2 32.9,76.6 0.1,57.7 1.2,115.3 1.2,173 100.2,230.1 	"/>
	<rect x="200" y="57.8" transform="matrix(2.003001e-03 -1 1 2.003001e-03 141.921 257.7376)" class="bright" width="0.2" height="0"/>
	<polyline class="bright" points="200.3,57.8 168.2,39 168.2,76.3 	"/>
	<polygon class="bright" points="199.3,57.7 199.3,57.7 199.3,57.7 	"/>
	<polygon class="bright" points="199.3,57.7 199.3,57.7 199.3,57.7 	"/>
	<polygon class="bright" points="1.1,57.7 1.1,57.7 1.1,57.7 	"/>
	<polygon class="bright" points="99.7,0 0,57.7 32.9,76.6 100.2,37.7 105.2,40.4 105.2,69.9 63.9,95.1 100,115.5 136.2,94.4 
		136.2,21.4 	"/>
	<polygon class="dark" points="100.2,115.5 100.2,158.1 136.2,136.7 136.2,94.4 	"/>
	<polygon class="dark" points="199.8,172.3 200.1,57.5 199.4,58.2 168.2,76.5 168.2,154.2 100.2,193 100.2,230.1 	"/>
</g>
</svg>
