<?xml version="1.0" encoding="utf-8"?>
<!-- Generator: Adobe Illustrator 19.2.1, SVG Export Plug-In . SVG Version: 6.00 Build 0)  -->
<svg version="1.1" id="Layer_1" xmlns="http://www.w3.org/2000/svg" xmlns:xlink="http://www.w3.org/1999/xlink" x="0px" y="0px"
	 viewBox="0 0 200 119.2" style="enable-background:new 0 0 200 119.2;" xml:space="preserve">
<style type="text/css">
	.Des_st0{
		fill:none;
		stroke-width:3;s
		troke-miterlimit:10;
	}
	.Des_st1{
		fill:none;
		stroke-width:2;
		stroke-miterlimit:10;
	}
	.Des_st2{
		fill:none;
		stroke-miterlimit:10;
	}
	.Des_st3{
		fill:none;
		stroke-width:2;
		stroke-linecap:round;
		stroke-miterlimit:10;
	}
	.Des_st4{
	}
	.Des_st5{
		fill:none;
		stroke-linecap:round;
		stroke-miterlimit:10;
	}
	.Des_st6{
		fill:none;
		stroke-width:2;
		stroke-linecap:round;
		stroke-linejoin:round;
		stroke-miterlimit:10;
		}
	.Des_st7{
		fill:none;
		stroke-width:1.5;
		stroke-linecap:round;
		stroke-miterlimit:10;
	}
	.Des_st8{
		fill:none;
		stroke-width:3;
		stroke-linecap:round;
		stroke-linejoin:round;
		stroke-miterlimit:10;
	}
</style>
<path class="Des_st0" d="M173.2,35.4v80.9c0,0.9-0.7,1.5-1.5,1.5H11.9c-0.9,0-1.5-0.7-1.5-1.5V8.9c0-0.9,0.7-1.5,1.5-1.5h159.7
	c0.9,0,1.5,0.7,1.5,1.5v9.1"/>
<path class="Des_st1" d="M142.7,57.5V27.9c0-0.9-0.7-1.5-1.5-1.5H45.5c-0.9,0-1.5,0.7-1.5,1.5v73.8h98.7V62"/>
<rect x="51.8" y="69.8" class="Des_st2" width="18.7" height="18.8"/>
<rect x="115.3" y="69.8" class="Des_st2" width="18.7" height="18.8"/>
<rect x="83.5" y="69.8" class="Des_st2" width="18.7" height="18.8"/>
<line class="Des_st2" x1="83.4" y1="93.3" x2="101.5" y2="93.3"/>
<line class="Des_st2" x1="83.4" y1="96.8" x2="95.5" y2="96.8"/>
<line class="Des_st2" x1="115.2" y1="93.3" x2="133.3" y2="93.3"/>
<line class="Des_st2" x1="115.2" y1="96.8" x2="127.3" y2="96.8"/>
<line class="Des_st2" x1="51.6" y1="93.3" x2="69.7" y2="93.3"/>
<line class="Des_st2" x1="51.6" y1="96.8" x2="63.7" y2="96.8"/>
<line class="Des_st2" x1="44.2" y1="62.5" x2="142.3" y2="62.5"/>
<line class="Des_st3" x1="82.8" y1="48.7" x2="103.1" y2="48.8"/>
<path class="Des_st4" d="M93.6,31.5c-3.5,0-6.3,2.8-6.3,6.3c0,3.5,2.8,6.3,6.3,6.3s6.3-2.8,6.3-6.3C99.8,34.3,97,31.5,93.6,31.5z
	 M93.6,40.7h-3c0,0,0-0.5,0.2-1c0.2-0.4,0.9-0.6,2-1v-0.8c0,0-0.3-0.2-0.3-0.8c-0.1,0-0.2-0.5,0-0.7c0-0.1-0.5-1.3,0.2-1.3
	c0.2-0.5,2-0.5,2.1,0.1c0.1,0.5-0.2,1.1-0.2,1.1c0.2,0.2,0.1,0.7,0,0.7c0,0.5-0.3,0.8-0.3,0.8v0.8c1.1,0.4,1.8,0.6,2,1
	c0.2,0.5,0.2,1,0.2,1H93.6z"/>
<line class="Des_st5" x1="78.3" y1="52.8" x2="107" y2="52.8"/>
<line class="Des_st5" x1="78.3" y1="57.7" x2="107" y2="57.7"/>
<polygon class="Des_st6" points="185.7,5.7 194.3,14.3 159.3,49.5 150.3,40.3 "/>
<polyline class="Des_st6" points="182.2,33.7 194,21.8 190.5,18.3 "/>
<polygon class="Des_st7" points="193,13.1 199,6.7 193.1,1.1 187.1,7 "/>
<polygon class="Des_st6" points="150.3,40.3 159.3,49.5 142.7,57.5 "/>
<path class="Des_st8" d="M9.8,107.2c0,0-8.4-1.4-8.4-4.4c0-1.2,2.4-4.3,7.2-5.1c10.1-1.8,16.7,2.1,16.7,2.1"/>
<circle class="Des_st4" cx="28.1" cy="99.8" r="4.8"/>
<path class="Des_st8" d="M9.8,88.1c0,0-8.4-1.4-8.4-4.4c0-1.2,2.4-4.3,7.2-5.1c10.1-1.8,16.7,2.1,16.7,2.1"/>
<circle class="Des_st4" cx="28.1" cy="80.6" r="4.8"/>
<path class="Des_st8" d="M9.8,68.8c0,0-8.4-1.4-8.4-4.4c0-1.2,2.4-4.3,7.2-5.1c10.1-1.8,16.7,2.1,16.7,2.1"/>
<circle class="Des_st4" cx="28.1" cy="61.4" r="4.8"/>
<path class="Des_st8" d="M9.8,49.1c0,0-8.4-1.4-8.4-4.4c0-1.2,2.4-4.3,7.2-5.1c10.1-1.8,16.7,2.1,16.7,2.1"/>
<circle class="Des_st4" cx="28.1" cy="41.6" r="4.8"/>
<path class="Des_st8" d="M9.8,29.9c0,0-8.4-1.4-8.4-4.4c0-1.2,2.4-4.3,7.2-5.1c10.1-1.8,16.7,2.1,16.7,2.1"/>
<circle class="Des_st4" cx="28.1" cy="22.5" r="4.8"/>
</svg>
