<?xml version="1.0" encoding="utf-8"?>
<!-- Generator: Adobe Illustrator 19.2.1, SVG Export Plug-In . SVG Version: 6.00 Build 0)  -->
<svg version="1.1" id="Layer_1" xmlns="http://www.w3.org/2000/svg" xmlns:xlink="http://www.w3.org/1999/xlink" x="0px" y="0px"
	 viewBox="0 0 200 176.7" style="enable-background:new 0 0 200 176.7;" xml:space="preserve">
<style type="text/css">
	.Soft_st0{
		fill:none;
		stroke-width:5;
		stroke-miterlimit:10;
	}
	.Soft_st1{}
	.Soft_st2{
		fill:none;
		stroke-width:2;
		stroke-linecap:round;
		stroke-miterlimit:10;
	}
</style>
<rect x="3" y="26.6" class="Soft_st0" width="194.2" height="147.8"/>
<path class="Soft_st0" d="M192.3,2.5H7.7c-2.9,0-5.2,2.3-5.2,5.2v18.6h195V7.7C197.5,4.8,195.2,2.5,192.3,2.5z"/>
<circle class="Soft_st1" cx="16.8" cy="13.5" r="3.5"/>
<circle class="Soft_st1" cx="28.3" cy="13.5" r="3.5"/>
<circle class="Soft_st1" cx="40" cy="13.5" r="3.5"/>
<line class="Soft_st2" x1="20.5" y1="45.5" x2="59.3" y2="45.5"/>
<line class="Soft_st2" x1="20.5" y1="52.8" x2="42.8" y2="52.8"/>
<line class="Soft_st2" x1="20" y1="60.1" x2="27.9" y2="60.1"/>
<line class="Soft_st2" x1="20.4" y1="74.7" x2="28.3" y2="74.7"/>
<line class="Soft_st2" x1="20" y1="67.4" x2="43.6" y2="67.4"/>
<line class="Soft_st2" x1="20.4" y1="81.9" x2="59.5" y2="81.9"/>
<line class="Soft_st2" x1="20.4" y1="89.2" x2="59.5" y2="89.2"/>
<line class="Soft_st2" x1="20.4" y1="103.8" x2="27.9" y2="103.8"/>
<line class="Soft_st2" x1="20.4" y1="111.2" x2="43.8" y2="111.2"/>
<line class="Soft_st2" x1="19.9" y1="118.3" x2="59.2" y2="118.4"/>
<line class="Soft_st2" x1="64.2" y1="118.3" x2="103.5" y2="118.4"/>
<line class="Soft_st2" x1="71.5" y1="125.6" x2="115.6" y2="125.6"/>
<line class="Soft_st2" x1="20.1" y1="125.6" x2="64.2" y2="125.6"/>
<line class="Soft_st2" x1="20.1" y1="132.8" x2="27.8" y2="132.9"/>
<line class="Soft_st2" x1="20.1" y1="154.8" x2="43.4" y2="154.8"/>
<line class="Soft_st2" x1="51.4" y1="154.8" x2="74.7" y2="154.8"/>
<line class="Soft_st2" x1="83.4" y1="154.8" x2="129.6" y2="154.8"/>
<line class="Soft_st2" x1="20.1" y1="140.3" x2="42.4" y2="140.3"/>
<line class="Soft_st2" x1="20.1" y1="147.4" x2="27.7" y2="147.4"/>
<line class="Soft_st2" x1="110.3" y1="118.3" x2="149.6" y2="118.4"/>
<line class="Soft_st2" x1="51.5" y1="111.2" x2="74.9" y2="111.2"/>
<line class="Soft_st2" x1="83.8" y1="111.2" x2="129.8" y2="111.2"/>
<line class="Soft_st2" x1="20.4" y1="96.3" x2="42.5" y2="96.4"/>
<line class="Soft_st2" x1="51.5" y1="67.4" x2="75.2" y2="67.4"/>
<line class="Soft_st2" x1="84" y1="67.4" x2="129.3" y2="67.4"/>
</svg>
