<?xml version="1.0" encoding="utf-8"?>
<!-- Generator: Adobe Illustrator 19.2.1, SVG Export Plug-In . SVG Version: 6.00 Build 0)  -->
<svg version="1.1" id="Layer_1" xmlns="http://www.w3.org/2000/svg" xmlns:xlink="http://www.w3.org/1999/xlink" x="0px" y="0px"
	 viewBox="0 0 400 130.6" style="enable-background:new 0 0 400 130.6;" xml:space="preserve">
<style type="text/css">
	.st0{fill:#FFFFFF;}
</style>
<g>
	<path class="st0" d="M11.5,67H0v-4.7h11.5c7.6,0,15.3-0.7,22.9-0.7v61.8h10.1v4.7H0.7v-4.7h10.8V67z"/>
	<path class="st0" d="M80.5,76.9c7.1-12.3,16-15.6,27.3-15.6c10.1,0,18.8,3,18.8,16v46.2h10.3v4.7H95.3v-4.7h9V81.1
		c0-10.6-2.5-13-7.1-13c-10.6,0-16.6,13.6-16.6,22.8v32.6h8.8v4.7H47.5v-4.7h10.6V67H47.5v-4.7h10.6c7.5,0,14.8-0.7,22.3-0.7V76.9z"
		/>
	<path class="st0" d="M193.2,85.9c0-10.6-7.8-20.3-17-20.3c-5,0-9.5,2.5-9.5,8v43.7c0,5,2.5,9,7.8,9c10.5,0,18.6-10.1,18.6-20.3
		V85.9z M193.2,118.7c-5.3,7.3-12,12-21.4,12c-16.8,0-30.8-16.6-30.8-32.9c0-25.8,21.3-36.4,33.1-36.4c8,0,15.5,4.7,18.8,11.5h0.3
		V39.4h-13v-4.7h13c7.6,0,15.3-1.2,22.9-1.7v90.4h9.5v4.7h-32.4V118.7z"/>
	<path class="st0" d="M288.1,115.5h-0.3c-4,10.6-14.3,15.1-25.4,15.1c-20.5,0-20.1-9.3-20.1-25.8V67h-11.5v-4.7h11.5
		c7.6,0,15.3-0.7,22.9-0.7V108c0,9.1-0.8,15.8,6.7,15.8c9.3,0,16.3-13,16.3-18.1V67h-11.5v-4.7h11.5c7.6,0,15.3-0.7,22.9-0.7v61.8
		h11.1v4.7h-11.1c-7.6,0-15.3,1.7-22.9,1.7V115.5z"/>
	<path class="st0" d="M377.2,88.9V72.6c0-4.3-3.7-7-11.6-7c-7.1,0-10.1,3.2-10.1,7.6v15.6H377.2z M355.4,93.2v21.4
		c0,8.6,4.8,11.6,13.5,11.6c13.1,0,23.4-6.5,27.3-19.5l3.8,1.3c-4.3,15.5-16.8,22.4-32.3,22.4c-20.6,0-39.2-11.6-39.2-34.2
		c0-22.6,19.9-35.1,38.9-35.1c16.5,0,32.2,11.5,32.2,28.8c0,4-5.2,3.2-7.8,3.2H355.4z"/>
	<path class="st0" d="M216.8,11.8c0,6.3-5.5,12-11.8,12c-6.3,0-12-5.7-12-12C193,5.5,198.8,0,205,0C211.1,0,216.8,5.5,216.8,11.8"/>
</g>
</svg>
