<?xml version="1.0" encoding="utf-8"?>
<!-- Generator: Adobe Illustrator 19.2.1, SVG Export Plug-In . SVG Version: 6.00 Build 0)  -->
<svg version="1.1" id="Layer_1" xmlns="http://www.w3.org/2000/svg" xmlns:xlink="http://www.w3.org/1999/xlink" x="0px" y="0px"
	 viewBox="0 0 200 200" style="enable-background:new 0 0 200 200;" xml:space="preserve">
<style type="text/css">
	.st0{fill:#212121;}
	.st1{fill:#FFAC33;}
</style>
<g>
	<g>
		<g>
			<g>
				<path class="st0" d="M121.9,200h-75c-10.3,0-18.7-8.4-18.7-18.8V18.8C28.1,8.4,36.5,0,46.9,0h75c10.3,0,18.8,8.4,18.8,18.8v18.8
					h-6.2V18.8c0-6.9-5.6-12.5-12.5-12.5h-75c-6.9,0-12.5,5.6-12.5,12.5v162.5c0,6.9,5.6,12.5,12.5,12.5h75
					c6.9,0,12.5-5.6,12.5-12.5V125h6.2v56.2C140.6,191.6,132.2,200,121.9,200z"/>
			</g>
			<g>
				<g>
					<path class="st1" d="M115.6,81.8L60.9,49.6c-1.5-0.9-2-2.8-1.1-4.3c0.9-1.5,2.8-2,4.3-1.1l51.5,30.3l51.5-30.3
						c1.5-0.9,3.4-0.4,4.3,1.1c0.9,1.5,0.4,3.4-1.1,4.3L115.6,81.8z"/>
				</g>
				<g>
					<path class="st1" d="M59.4,154.4V43.8h112.5v75H95L59.4,154.4z M65.6,50v89.3l26.8-26.8h73.2V50H65.6z"/>
				</g>
				<g>
					<rect x="100" y="93.8" class="st0" width="6.2" height="6.2"/>
				</g>
				<g>
					<rect x="112.5" y="93.8" class="st0" width="6.2" height="6.2"/>
				</g>
				<g>
					<rect x="125" y="93.8" class="st0" width="6.2" height="6.2"/>
				</g>
			</g>
		</g>
		<g>
			<polygon class="st0" points="128.1,175 40.6,175 40.6,18.8 128.1,18.8 128.1,37.5 121.9,37.5 121.9,25 46.9,25 46.9,168.8 
				121.9,168.8 121.9,125 128.1,125 			"/>
		</g>
		<g>
			<rect x="71.9" y="181.2" class="st1" width="25" height="6.2"/>
		</g>
	</g>
</g>
</svg>
