<?xml version="1.0" encoding="utf-8"?>
<!-- Generator: Adobe Illustrator 19.2.1, SVG Export Plug-In . SVG Version: 6.00 Build 0)  -->
<svg version="1.1" id="Layer_1" xmlns="http://www.w3.org/2000/svg" xmlns:xlink="http://www.w3.org/1999/xlink" x="0px" y="0px"
	 viewBox="0 0 100 100" style="enable-background:new 0 0 100 100;" xml:space="preserve">
<style type="text/css">
	.st0{fill:#FFFFFF;}
	.st1{fill:#212120;}
	.st2{fill:#FBAC35;}
</style>
<polygon class="st0" points="24.7,93.3 -0.3,50 24.7,6.7 74.7,6.7 99.7,50 74.7,93.3 "/>
<g>
	<g>
		<path class="st1" d="M39.3,82.3v-7h3.8c0.2,0,0.5,0.1,0.7,0.2c0.2,0.1,0.4,0.2,0.5,0.4c0.1,0.2,0.2,0.4,0.3,0.6
			c0.1,0.2,0.1,0.4,0.1,0.6c0,0.3-0.1,0.7-0.3,1c-0.2,0.3-0.4,0.5-0.8,0.7c0.4,0.1,0.7,0.3,1,0.6c0.2,0.3,0.4,0.7,0.4,1.2
			c0,0.3-0.1,0.6-0.2,0.8c-0.1,0.2-0.3,0.4-0.5,0.6c-0.2,0.2-0.4,0.3-0.7,0.3c-0.3,0.1-0.6,0.1-0.9,0.1H39.3z M40.7,78.2h1.8
			c0.2,0,0.4-0.1,0.6-0.2c0.2-0.2,0.2-0.4,0.2-0.6c0-0.3-0.1-0.5-0.2-0.6c-0.1-0.2-0.3-0.2-0.5-0.2h-1.9V78.2z M40.7,81.2h2
			c0.1,0,0.2,0,0.4-0.1c0.1,0,0.2-0.1,0.3-0.2c0.1-0.1,0.1-0.2,0.2-0.3c0-0.1,0.1-0.2,0.1-0.4c0-0.1,0-0.2-0.1-0.4
			c0-0.1-0.1-0.2-0.2-0.3c-0.1-0.1-0.2-0.2-0.3-0.2c-0.1,0-0.2-0.1-0.3-0.1h-2.1V81.2z"/>
		<path class="st1" d="M45.9,82.3v-5.2h1.2v1.1c0.1-0.2,0.2-0.3,0.3-0.5c0.1-0.1,0.3-0.3,0.4-0.4c0.1-0.1,0.3-0.2,0.4-0.2
			c0.1-0.1,0.3-0.1,0.4-0.1c0.1,0,0.1,0,0.2,0c0,0,0.1,0,0.1,0v1.2c-0.4,0-0.8,0.1-1.1,0.2c-0.3,0.2-0.5,0.4-0.7,0.7v3.1H45.9z"/>
		<path class="st1" d="M49.7,76.4v-1.2H51v1.2H49.7z M49.7,82.3v-5.2H51v5.2H49.7z"/>
		<path class="st1" d="M51.9,79.8c0-0.4,0.1-0.7,0.2-1c0.1-0.3,0.3-0.6,0.5-0.8c0.2-0.2,0.5-0.4,0.9-0.6c0.3-0.1,0.7-0.2,1.1-0.2
			c0.4,0,0.8,0.1,1.1,0.2c0.3,0.1,0.6,0.3,0.8,0.6c0.2,0.2,0.4,0.5,0.5,0.8c0.1,0.3,0.2,0.6,0.2,1c0,0.1,0,0.2,0,0.3
			c0,0.1,0,0.2,0,0.2h-4c0,0.2,0.1,0.4,0.1,0.6c0.1,0.2,0.2,0.3,0.3,0.4s0.3,0.2,0.4,0.3c0.2,0.1,0.3,0.1,0.5,0.1
			c0.3,0,0.5-0.1,0.7-0.2c0.2-0.1,0.4-0.3,0.5-0.5l1.1,0.3c-0.2,0.4-0.5,0.7-0.9,1c-0.4,0.2-0.9,0.4-1.5,0.4c-0.4,0-0.8-0.1-1.1-0.2
			c-0.3-0.1-0.6-0.3-0.9-0.6c-0.2-0.2-0.4-0.5-0.5-0.9C52,80.5,51.9,80.1,51.9,79.8z M53.3,79.2H56c0-0.4-0.2-0.7-0.4-0.9
			C55.3,78.1,55,78,54.6,78c-0.2,0-0.3,0-0.5,0.1c-0.2,0.1-0.3,0.1-0.4,0.3c-0.1,0.1-0.2,0.2-0.3,0.4C53.3,78.9,53.3,79.1,53.3,79.2
			z"/>
		<path class="st1" d="M57.7,78.5v-0.9h0.7v-0.3c0-0.7,0.2-1.2,0.5-1.6c0.3-0.4,0.7-0.6,1.3-0.6c0.4,0,0.8,0.1,1.3,0.3l-0.3,1
			c-0.1-0.1-0.2-0.1-0.4-0.1c-0.1,0-0.3-0.1-0.4-0.1c-0.5,0-0.7,0.3-0.7,1v0.4H61v0.9h-1.3v3.9h-1.3v-3.9H57.7z"/>
	</g>
	<g>
		<path class="st2" d="M69.3,37.6c0-0.3,0.1-0.7,0.1-1c0-4.7-3.8-8.5-8.5-8.5c-0.8,0-1.6,0.1-2.3,0.3c-0.8-6.1-6.1-10.8-12.4-10.8
			c-6.9,0-12.5,5.6-12.5,12.5c0,0,0,0.1,0,0.1c-3.8,0.4-6.8,3.7-6.8,7.6c0,4.2,3.4,7.6,7.6,7.6h12.8h3.8h3.4H62h6.9c0,0,0,0,0,0
			c0.1,0,0.2,0,0.3,0c2.2,0,3.9-1.7,3.9-3.9C73.1,39.3,71.4,37.6,69.3,37.6z"/>
		<g>
			<path class="st0" d="M36,30.1L36,30.1c0-5.7,4.6-10.2,10.2-10.2V21c-5,0-9.1,4-9.1,9l0,0.1L36,30.1z"/>
		</g>
		<g>
			<path class="st0" d="M30.3,37.7h-1.1c0-2.7,2-5,4.7-5.3l0.1,1.1C31.9,33.8,30.3,35.6,30.3,37.7z"/>
		</g>
		<g>
			<g>
				<path class="st1" d="M60.9,68h-1.1V54c0-0.1,0.1-0.3,0.2-0.4c2.8-2.8,4.3-6.4,4.3-10.4c0-8.1-6.6-14.7-14.7-14.7
					c-8.1,0-14.7,6.6-14.7,14.7c0,0.2,0,0.4,0,0.7c0,0.1,0,0.2-0.1,0.3l-4.4,7.7H33c0.3,0,0.6,0.2,0.6,0.6v6c0,2,1.6,3.5,3.5,3.5
					h6.5c0.3,0,0.6,0.2,0.6,0.6V68H43v-4.9h-5.9c-2.6,0-4.7-2.1-4.7-4.7V53h-3c-0.2,0-0.4-0.1-0.5-0.3c-0.1-0.2-0.1-0.4,0-0.6
					l4.8-8.4c0-0.2,0-0.4,0-0.5c0-8.7,7.1-15.8,15.8-15.8c8.7,0,15.8,7.1,15.8,15.8c0,4.1-1.6,8-4.4,11V68z"/>
			</g>
		</g>
		<g>
			<polygon class="st0" points="58.1,39.5 49.5,39.5 52.7,29.8 40.1,45.3 48.8,45.3 45.5,55.1 			"/>
			<path class="st1" d="M52.7,29.8l-3.2,9.7h8.6L45.5,55.1l3.2-9.7h-8.6L52.7,29.8 M58.1,39.5L58.1,39.5 M52.3,29.4L39.8,45l0.4,0.8
				h8l-3,9.1l0.9,0.5l12.6-15.6L58.1,39v0h0h-8l3-9.1L52.3,29.4L52.3,29.4z M52.7,30.2L52.7,30.2L52.7,30.2L52.7,30.2z"/>
		</g>
	</g>
</g>
</svg>
