<?xml version="1.0" encoding="utf-8"?>
<!-- Generator: Adobe Illustrator 19.2.1, SVG Export Plug-In . SVG Version: 6.00 Build 0)  -->
<svg version="1.1" id="Layer_1" xmlns="http://www.w3.org/2000/svg" xmlns:xlink="http://www.w3.org/1999/xlink" x="0px" y="0px"
	 viewBox="0 0 200 200" style="enable-background:new 0 0 200 200;" xml:space="preserve">
<style type="text/css">
	.st0{fill:#212121;}
	.st1{fill:#00EA7A;}
</style>
<g>
	<g>
		<g>
			<path class="st0" d="M185.7,193.8H14.3L0,179.4v-10.7h79.4l6.2,6.2h28.7l6.2-6.2H200v10.7L185.7,193.8z M16.9,187.5h166.2
				l10.7-10.7V175h-70.6l-6.2,6.2H83.1l-6.2-6.2H6.2v1.8L16.9,187.5z"/>
		</g>
		<g>
			<path class="st0" d="M18.8,162.5h-6.2V68.8c0-6.9,5.6-12.5,12.5-12.5h18.8v6.2H25c-3.4,0-6.2,2.8-6.2,6.2V162.5z"/>
		</g>
		<g>
			<rect x="181.2" y="109.4" class="st0" width="6.2" height="53.1"/>
		</g>
		<g>
			<polygon class="st0" points="175,156.2 25,156.2 25,68.8 43.8,68.8 43.8,75 31.2,75 31.2,150 168.8,150 168.8,109.4 175,109.4 
							"/>
		</g>
	</g>
	<g>
		<rect x="156.2" y="96.9" class="st0" width="25" height="6.2"/>
	</g>
	<g>
		<rect x="62.5" y="37.5" class="st0" width="75" height="6.2"/>
	</g>
	<g>
		<rect x="62.5" y="50" class="st1" width="75" height="6.2"/>
	</g>
	<g>
		<rect x="62.5" y="62.5" class="st0" width="75" height="6.2"/>
	</g>
	<g>
		<path class="st0" d="M56.2,143.8H50V25c0-10.3,8.4-18.8,18.8-18.8h90.6v6.2H68.8c-6.9,0-12.5,5.6-12.5,12.5V143.8z"/>
	</g>
	<g>
		<rect x="96.9" y="25" class="st1" width="6.2" height="6.2"/>
	</g>
	<g>
		<rect x="84.4" y="25" class="st1" width="6.2" height="6.2"/>
	</g>
	<g>
		<rect x="109.4" y="25" class="st1" width="6.2" height="6.2"/>
	</g>
	<g>
		<path class="st0" d="M150,143.8h-6.2V21.9c0-8.6,7-15.6,15.6-15.6c8.6,0,15.6,7,15.6,15.6v68.8c0,3.4,2.8,6.2,6.2,6.2
			c3.4,0,6.2-2.8,6.2-6.2V31.2h-6.2V25h12.5v65.6c0,6.9-5.6,12.5-12.5,12.5c-6.9,0-12.5-5.6-12.5-12.5V21.9c0-5.2-4.2-9.4-9.4-9.4
			c-5.2,0-9.4,4.2-9.4,9.4V143.8z"/>
	</g>
	<g>
		<g>
			<path class="st1" d="M100,131.2c-6.9,0-12.5-5.6-12.5-12.5h6.2c0,3.4,2.8,6.2,6.2,6.2c3.4,0,6.2-2.8,6.2-6.2c0-2-4.4-5.1-7.5-6.5
				c-1.9-0.8-11.2-5.4-11.2-12.2c0-6.9,5.6-12.5,12.5-12.5c6.9,0,12.5,5.6,12.5,12.5h-6.2c0-3.4-2.8-6.2-6.2-6.2
				c-3.4,0-6.2,2.8-6.2,6.2c0,2,4.4,5.1,7.5,6.5c1.9,0.8,11.2,5.4,11.2,12.2C112.5,125.6,106.9,131.2,100,131.2z"/>
		</g>
		<g>
			<rect x="96.9" y="81.2" class="st1" width="6.2" height="9.4"/>
		</g>
		<g>
			<rect x="96.9" y="128.1" class="st1" width="6.2" height="9.4"/>
		</g>
		<g>
			<rect x="118.8" y="106.2" class="st0" width="6.2" height="6.2"/>
		</g>
		<g>
			<rect x="75" y="106.2" class="st0" width="6.2" height="6.2"/>
		</g>
	</g>
</g>
</svg>
