<?xml version="1.0" encoding="utf-8"?>
<!-- Generator: Adobe Illustrator 19.2.1, SVG Export Plug-In . SVG Version: 6.00 Build 0)  -->
<svg version="1.1" id="Layer_1" xmlns="http://www.w3.org/2000/svg" xmlns:xlink="http://www.w3.org/1999/xlink" x="0px" y="0px"
	 viewBox="0 0 200 200" style="enable-background:new 0 0 200 200;" xml:space="preserve">
<style type="text/css">
	.st0{fill:#212121;}
	.st1{fill:#00EA7A;}
</style>
<g>
	<g>
		<g>
			<rect x="118.8" y="159.4" class="st0" width="6.2" height="25"/>
		</g>
		<g>
			<rect x="81.2" y="159.4" class="st0" width="6.2" height="25"/>
		</g>
		<g>
			<rect x="75" y="181.2" class="st0" width="56.2" height="6.2"/>
		</g>
		<g>
			<rect x="75" y="131.2" class="st0" width="68.8" height="6.2"/>
		</g>
		<g>
			<rect x="100" y="143.8" class="st1" width="6.2" height="6.2"/>
		</g>
		<g>
			<polygon class="st0" points="187.5,100 181.2,100 181.2,31.2 18.8,31.2 18.8,75 12.5,75 12.5,25 187.5,25 			"/>
		</g>
		<g>
			<rect x="62.5" y="28.1" class="st0" width="6.2" height="46.9"/>
		</g>
		<g>
			<rect x="15.6" y="56.2" class="st0" width="168.8" height="6.2"/>
		</g>
		<g>
			<rect x="100" y="28.1" class="st0" width="6.2" height="93.8"/>
		</g>
		<g>
			<polygon class="st0" points="143.8,125 75,125 75,118.8 137.5,118.8 137.5,28.1 143.8,28.1 			"/>
		</g>
		<g>
			<rect x="75" y="156.2" class="st0" width="68.8" height="6.2"/>
		</g>
		<g>
			<path class="st0" d="M200,100h-6.2V18.8H6.2V75H0V18.8c0-3.4,2.8-6.2,6.2-6.2h187.5c3.4,0,6.2,2.8,6.2,6.2V100z"/>
		</g>
	</g>
	<g>
		<g>
			<rect x="3.1" y="156.2" class="st0" width="62.5" height="6.2"/>
		</g>
		<g>
			<path class="st0" d="M62.5,187.5H6.2c-3.4,0-6.2-2.8-6.2-6.2V87.5c0-3.4,2.8-6.2,6.2-6.2h56.2c3.4,0,6.2,2.8,6.2,6.2v93.8
				C68.8,184.7,65.9,187.5,62.5,187.5z M6.2,87.5v93.8h56.3l0-93.8H6.2z"/>
		</g>
		<g>
			<rect x="25" y="96.9" class="st0" width="6.2" height="62.5"/>
		</g>
		<g>
			<rect x="3.1" y="112.5" class="st0" width="62.5" height="6.2"/>
		</g>
	</g>
	<g>
		<rect x="3.1" y="93.8" class="st0" width="62.5" height="6.2"/>
	</g>
	<g>
		<path class="st0" d="M193.8,187.5h-37.5c-3.4,0-6.2-2.8-6.2-6.2v-68.8c0-3.4,2.8-6.2,6.2-6.2h37.5c3.4,0,6.2,2.8,6.2,6.2v68.8
			C200,184.7,197.2,187.5,193.8,187.5z M156.2,112.5v68.8h37.5l0-68.8H156.2z"/>
	</g>
	<g>
		<rect x="162.5" y="156.2" class="st1" width="25" height="6.2"/>
	</g>
	<g>
		<rect x="153.1" y="168.8" class="st0" width="43.8" height="6.2"/>
	</g>
	<g>
		<rect x="25" y="168.8" class="st1" width="18.8" height="6.2"/>
	</g>
	<g>
		<rect x="162.5" y="131.2" class="st1" width="25" height="6.2"/>
	</g>
	<g>
		<rect x="162.5" y="143.8" class="st1" width="25" height="6.2"/>
	</g>
	<g>
		<rect x="153.1" y="118.8" class="st0" width="43.8" height="6.2"/>
	</g>
</g>
</svg>
