<?xml version="1.0" encoding="utf-8"?>
<!-- Generator: Adobe Illustrator 19.2.1, SVG Export Plug-In . SVG Version: 6.00 Build 0)  -->
<svg version="1.1" id="Layer_1" xmlns="http://www.w3.org/2000/svg" xmlns:xlink="http://www.w3.org/1999/xlink" x="0px" y="0px"
	 viewBox="0 0 100 100" style="enable-background:new 0 0 100 100;" xml:space="preserve">
<style type="text/css">
	.st0{fill:#FFFFFF;}
	.st1{fill:#212120;}
	.st2{fill:#FFAC33;}
	.st3{fill:#212121;}
</style>
<polygon class="st0" points="25,93.3 0,50 25,6.7 75,6.7 100,50 75,93.3 "/>
<g>
	<g>
		<path class="st1" d="M40.9,86l0.6-1.2c0.1,0.1,0.2,0.1,0.3,0.2c0.2,0.1,0.3,0.2,0.5,0.3c0.2,0.1,0.4,0.2,0.7,0.2
			c0.3,0.1,0.5,0.1,0.8,0.1c0.7,0,1.1-0.2,1.1-0.7c0-0.2,0-0.3-0.1-0.4c-0.1-0.1-0.2-0.2-0.4-0.3c-0.2-0.1-0.4-0.2-0.6-0.2
			s-0.5-0.1-0.7-0.2c-0.3-0.1-0.6-0.2-0.9-0.3s-0.5-0.2-0.6-0.4c-0.2-0.1-0.3-0.3-0.4-0.5s-0.1-0.4-0.1-0.7c0-0.4,0.1-0.7,0.2-0.9
			c0.1-0.3,0.3-0.5,0.5-0.7c0.2-0.2,0.5-0.3,0.8-0.4s0.6-0.1,1-0.1c0.5,0,1,0.1,1.4,0.2c0.4,0.2,0.8,0.3,1.1,0.5l-0.6,1.1
			c0,0-0.1-0.1-0.3-0.2c-0.1-0.1-0.3-0.2-0.4-0.2c-0.2-0.1-0.4-0.1-0.6-0.2c-0.2-0.1-0.4-0.1-0.6-0.1c-0.4,0-0.7,0.1-0.8,0.2
			c-0.2,0.1-0.3,0.3-0.3,0.6c0,0.1,0,0.3,0.1,0.4c0.1,0.1,0.2,0.2,0.3,0.3c0.1,0.1,0.3,0.1,0.5,0.2c0.2,0.1,0.4,0.1,0.7,0.2
			c0.3,0.1,0.7,0.2,0.9,0.3c0.3,0.1,0.5,0.2,0.7,0.4c0.2,0.2,0.3,0.4,0.4,0.6c0.1,0.2,0.2,0.5,0.2,0.8c0,0.4-0.1,0.7-0.2,1
			c-0.1,0.3-0.3,0.5-0.6,0.6c-0.2,0.2-0.5,0.3-0.8,0.4c-0.3,0.1-0.6,0.1-1,0.1c-0.5,0-1-0.1-1.6-0.2C41.8,86.5,41.3,86.3,40.9,86z"
			/>
		<path class="st1" d="M47.5,86.8v-7h3.1c0.3,0,0.6,0.1,0.9,0.2c0.3,0.1,0.5,0.3,0.7,0.5c0.2,0.2,0.4,0.5,0.5,0.7
			c0.1,0.3,0.2,0.6,0.2,0.8c0,0.5-0.1,0.9-0.3,1.2c-0.2,0.4-0.5,0.6-0.9,0.8l1.6,2.6h-1.5l-1.4-2.3h-1.3v2.3H47.5z M48.8,83.3h1.7
			c0.1,0,0.2,0,0.4-0.1c0.1-0.1,0.2-0.1,0.3-0.2c0.1-0.1,0.1-0.2,0.2-0.4c0-0.1,0.1-0.3,0.1-0.4c0-0.2,0-0.3-0.1-0.5
			c-0.1-0.1-0.1-0.3-0.2-0.4c-0.1-0.1-0.2-0.2-0.3-0.2C50.7,81,50.6,81,50.5,81h-1.6V83.3z"/>
		<path class="st1" d="M53.5,86l0.6-1.2c0.1,0.1,0.2,0.1,0.3,0.2c0.2,0.1,0.3,0.2,0.5,0.3c0.2,0.1,0.4,0.2,0.7,0.2
			c0.3,0.1,0.5,0.1,0.8,0.1c0.7,0,1.1-0.2,1.1-0.7c0-0.2,0-0.3-0.1-0.4c-0.1-0.1-0.2-0.2-0.4-0.3c-0.2-0.1-0.4-0.2-0.6-0.2
			c-0.2-0.1-0.5-0.1-0.7-0.2c-0.3-0.1-0.6-0.2-0.9-0.3c-0.2-0.1-0.5-0.2-0.6-0.4c-0.2-0.1-0.3-0.3-0.4-0.5s-0.1-0.4-0.1-0.7
			c0-0.4,0.1-0.7,0.2-0.9c0.1-0.3,0.3-0.5,0.5-0.7c0.2-0.2,0.5-0.3,0.8-0.4s0.6-0.1,1-0.1c0.5,0,1,0.1,1.4,0.2
			c0.4,0.2,0.8,0.3,1.1,0.5l-0.6,1.1c0,0-0.1-0.1-0.3-0.2c-0.1-0.1-0.3-0.2-0.4-0.2c-0.2-0.1-0.4-0.1-0.6-0.2
			c-0.2-0.1-0.4-0.1-0.6-0.1c-0.4,0-0.7,0.1-0.8,0.2c-0.2,0.1-0.3,0.3-0.3,0.6c0,0.1,0,0.3,0.1,0.4c0.1,0.1,0.2,0.2,0.3,0.3
			c0.1,0.1,0.3,0.1,0.5,0.2c0.2,0.1,0.4,0.1,0.7,0.2c0.3,0.1,0.7,0.2,0.9,0.3c0.3,0.1,0.5,0.2,0.7,0.4c0.2,0.2,0.3,0.4,0.4,0.6
			c0.1,0.2,0.2,0.5,0.2,0.8c0,0.4-0.1,0.7-0.2,1c-0.1,0.3-0.3,0.5-0.6,0.6c-0.2,0.2-0.5,0.3-0.8,0.4c-0.3,0.1-0.6,0.1-1,0.1
			c-0.5,0-1-0.1-1.6-0.2C54.4,86.5,53.9,86.3,53.5,86z"/>
	</g>
	<g>
		<g>
			<g>
				<line class="st2" x1="46.7" y1="40.1" x2="50.1" y2="40.1"/>
				<rect x="46.7" y="39.6" class="st3" width="3.4" height="1.1"/>
			</g>
			<g>
				<path class="st3" d="M69.4,39.6c1.2,0,2.1,1,2.1,2.1v26.1c0,1.2-1,2.1-2.1,2.1H30.6c-1.2,0-2.1-1-2.1-2.1v-18h1.1v18
					c0,0.6,0.5,1.1,1.1,1.1h38.8c0.6,0,1.1-0.5,1.1-1.1V41.7c0-0.6-0.5-1.1-1.1-1.1V39.6z"/>
			</g>
			<g>
				<g>
					<g>
						<rect x="64.9" y="65" class="st2" width="2.5" height="1.1"/>
					</g>
					<g>
						<rect x="61.3" y="65" class="st2" width="2.5" height="1.1"/>
					</g>
					<g>
						<rect x="57.6" y="65" class="st2" width="2.5" height="1.1"/>
					</g>
					<g>
						<rect x="53.9" y="65" class="st2" width="2.5" height="1.1"/>
					</g>
					<g>
						<rect x="50.3" y="65" class="st2" width="2.5" height="1.1"/>
					</g>
					<g>
						<rect x="46.6" y="65" class="st2" width="2.5" height="1.1"/>
					</g>
					<g>
						<rect x="42.9" y="65" class="st2" width="2.5" height="1.1"/>
					</g>
					<g>
						<rect x="39.3" y="65" class="st2" width="2.5" height="1.1"/>
					</g>
					<g>
						<rect x="35.6" y="65" class="st2" width="2.5" height="1.1"/>
					</g>
					<g>
						<rect x="31.9" y="65" class="st2" width="2.5" height="1.1"/>
					</g>
				</g>
				<g>
					<g>
						<rect x="64.9" y="62" class="st2" width="2.5" height="1.1"/>
					</g>
					<g>
						<rect x="61.3" y="62" class="st2" width="2.5" height="1.1"/>
					</g>
					<g>
						<rect x="57.6" y="62" class="st2" width="2.5" height="1.1"/>
					</g>
					<g>
						<rect x="53.9" y="62" class="st2" width="2.5" height="1.1"/>
					</g>
					<g>
						<rect x="50.3" y="62" class="st2" width="2.5" height="1.1"/>
					</g>
					<g>
						<rect x="46.6" y="62" class="st2" width="2.5" height="1.1"/>
					</g>
					<g>
						<rect x="42.9" y="62" class="st2" width="2.5" height="1.1"/>
					</g>
					<g>
						<rect x="39.3" y="62" class="st2" width="2.5" height="1.1"/>
					</g>
					<g>
						<rect x="35.6" y="62" class="st2" width="2.5" height="1.1"/>
					</g>
					<g>
						<rect x="31.9" y="62" class="st2" width="2.5" height="1.1"/>
					</g>
				</g>
				<g>
					<g>
						<rect x="64.9" y="59.1" class="st2" width="2.5" height="1.1"/>
					</g>
					<g>
						<rect x="61.3" y="59.1" class="st2" width="2.5" height="1.1"/>
					</g>
					<g>
						<rect x="57.6" y="59.1" class="st2" width="2.5" height="1.1"/>
					</g>
					<g>
						<rect x="53.9" y="59.1" class="st2" width="2.5" height="1.1"/>
					</g>
					<g>
						<rect x="50.3" y="59.1" class="st2" width="2.5" height="1.1"/>
					</g>
					<g>
						<rect x="46.6" y="59.1" class="st2" width="2.5" height="1.1"/>
					</g>
					<g>
						<rect x="42.9" y="59.1" class="st2" width="2.5" height="1.1"/>
					</g>
					<g>
						<rect x="39.3" y="59.1" class="st2" width="2.5" height="1.1"/>
					</g>
					<g>
						<rect x="35.6" y="59.1" class="st2" width="2.5" height="1.1"/>
					</g>
					<g>
						<rect x="31.9" y="59.1" class="st2" width="2.5" height="1.1"/>
					</g>
				</g>
				<g>
					<g>
						<rect x="64.9" y="56.2" class="st2" width="2.5" height="1.1"/>
					</g>
					<g>
						<rect x="61.3" y="56.2" class="st2" width="2.5" height="1.1"/>
					</g>
					<g>
						<rect x="57.6" y="56.2" class="st2" width="2.5" height="1.1"/>
					</g>
					<g>
						<rect x="53.9" y="56.2" class="st2" width="2.5" height="1.1"/>
					</g>
					<g>
						<rect x="50.3" y="56.2" class="st2" width="2.5" height="1.1"/>
					</g>
					<g>
						<rect x="46.6" y="56.2" class="st2" width="2.5" height="1.1"/>
					</g>
					<g>
						<rect x="42.9" y="56.2" class="st2" width="2.5" height="1.1"/>
					</g>
					<g>
						<rect x="39.3" y="56.2" class="st2" width="2.5" height="1.1"/>
					</g>
					<g>
						<rect x="35.6" y="56.2" class="st2" width="2.5" height="1.1"/>
					</g>
					<g>
						<rect x="31.9" y="56.2" class="st2" width="2.5" height="1.1"/>
					</g>
				</g>
				<g>
					<g>
						<rect x="64.9" y="53.3" class="st2" width="2.5" height="1.1"/>
					</g>
					<g>
						<rect x="61.3" y="53.3" class="st2" width="2.5" height="1.1"/>
					</g>
					<g>
						<rect x="57.6" y="53.3" class="st2" width="2.5" height="1.1"/>
					</g>
					<g>
						<rect x="53.9" y="53.3" class="st2" width="2.5" height="1.1"/>
					</g>
					<g>
						<rect x="39.2" y="53.3" class="st2" width="13.6" height="1.1"/>
					</g>
					<g>
						<rect x="35.6" y="53.3" class="st2" width="2.5" height="1.1"/>
					</g>
					<g>
						<rect x="31.9" y="53.3" class="st2" width="2.5" height="1.1"/>
					</g>
				</g>
			</g>
			<g>
				<path class="st0" d="M26.2,69.4c0.7,1.3,2.1,2.2,3.7,2.2h40c1.6,0,3-0.9,3.7-2.2H26.2z"/>
				<path class="st3" d="M25.3,68.8h49.3l-0.5,0.8C73.3,71.1,71.7,72,70,72H30c-1.7,0-3.3-0.9-4.2-2.4L25.3,68.8z M72.7,69.9H27.3
					C28,70.6,29,71,30,71h40C71,71,72,70.6,72.7,69.9z"/>
			</g>
		</g>
		<g>
			<path class="st0" d="M29.1,46.1c0,0.8,0.7,1.5,1.5,1.5c0.8,0,1.5-0.3,1.5-1.1v0.4c0,0.8,0.7,1.5,1.5,1.5c0.8,0,1.5-0.7,1.5-1.5
				v0.8c0,0.8,0.7,1.5,1.5,1.5c0.8,0,1.5-0.7,1.5-1.5v-0.9c0,2.1,0,8.8,0,8.8c0,0.9,0.7,1.6,1.6,1.6c0.9,0,1.6-0.7,1.6-1.6l0-15.4
				l0,0.8V44c0,1.3,1,2.3,2.3,2.3h0.8c0,0,0,0,0,0v-2.9c0,0,0,0,0,0v-3.9l-4.4-5.1c-0.5-0.5-1.1-0.8-1.9-1v-3.1h-7.6v3.8
				c-1,0.7-1.6,1.9-1.6,3.3v7.1L29.1,46.1z"/>
			<path class="st3" d="M30.1,29.8h8.7V33c0.6,0.2,1.2,0.6,1.7,1l0,0l4.5,5.3l0,4l0,0.4l0,0v2.1l0,0l0,0.6v0.3l0,0l0,0l-1.3,0
				c-0.7,0-1.3-0.3-1.8-0.7l0,9.3c0,1.2-0.9,2.1-2.1,2.1c-1.2,0-2.1-0.9-2.1-2.1l0,0c0,0,0-3.4,0-6.1c-0.3,0.2-0.6,0.3-1,0.3
				c-0.8,0-1.5-0.5-1.8-1.2c-0.3,0.2-0.8,0.4-1.2,0.4c-0.8,0-1.4-0.4-1.8-1c-0.3,0.2-0.8,0.3-1.3,0.3c-1.1,0-2.1-0.9-2.1-2.1
				l-0.1-1.5l0-7.1c0-1.4,0.6-2.7,1.6-3.5V29.8z M37.7,30.8h-6.6v3.6L31,34.5c-0.9,0.7-1.4,1.7-1.4,2.9v7.1l0.1,1.5c0,0.6,0.4,1,1,1
				c1,0,1-0.4,1-0.6h1.1v0.4c0,0.6,0.4,1,1,1c0.5,0,1-0.4,1-1h1.1v0.8c0,0.5,0.4,1,1,1s1-0.4,1-1l0-0.9l1.1,0v0c0,2.1,0,8.8,0,8.8
				c0,0.6,0.5,1.1,1.1,1.1c0.6,0,1-0.5,1-1l0-15.4l1.1,0l0,0.8l0,3.2c0,1,0.8,1.8,1.8,1.8H44v-2.4l0-0.4l0,0v-3.3l-4.3-5
				c-0.4-0.4-1-0.7-1.6-0.9l-0.4-0.1V30.8z"/>
		</g>
		<g>
			<g>
				<path class="st0" d="M55.2,46.7l0-6.6l0,0.8V44c0,1.3-1,2.3-2.3,2.3h-0.8c0,0,0,0,0,0v-2.9c0,0,0,0,0,0v-3.9l4.4-5.1
					c0.5-0.5,1.1-0.8,1.9-1v-3.1h4H66v3.8c1,0.7,1.6,1.9,1.6,3.3v9.3"/>
				<path class="st3" d="M57.8,29.8h8.7v4.1c1.1,0.9,1.6,2.2,1.6,3.5v9.3h-1.1v-9.3c0-1.1-0.5-2.2-1.4-2.9l-0.2-0.2v-3.6h-6.6v3
					l-0.4,0.1c-0.6,0.1-1.1,0.4-1.6,0.9l-4.3,5V43l0,0l0,0.4v2.4h0.2c1,0,1.8-0.8,1.8-1.8v-3.2l0-0.8l1.1,0l0,6.6l-1.1,0l0-0.5
					c-0.5,0.4-1.1,0.7-1.8,0.7h-1.3l0,0l0,0l0-0.4l0-0.5l0,0v-2.1l0,0l0-0.5v-4l4.6-5.3c0.5-0.5,1.1-0.8,1.7-1V29.8z"/>
			</g>
			<g>
				<path class="st0" d="M67.6,46.6v5.5c0,0.8-0.7,1.5-1.5,1.5l0,0c-0.8,0-1.5-0.7-1.5-1.5v-5.5"/>
				<path class="st3" d="M64,46.6h1.1v5.5c0,0.6,0.4,1,1,1c0.6,0,1-0.4,1-1v-5.5h1.1v5.5c0,1.1-0.9,2.1-2.1,2.1
					c-1.1,0-2.1-0.9-2.1-2.1V46.6z"/>
			</g>
			<g>
				<path class="st0" d="M64.5,46.6v8.9c0,0.8-0.7,1.5-1.5,1.5l0,0c-0.8,0-1.5-0.7-1.5-1.5v-8.9"/>
				<path class="st3" d="M60.9,46.6H62v8.9c0,0.6,0.4,1,1,1c0.6,0,1-0.4,1-1v-8.9H65v8.9c0,1.1-0.9,2.1-2.1,2.1
					c-1.1,0-2.1-0.9-2.1-2.1V46.6z"/>
			</g>
			<g>
				<path class="st0" d="M61.4,46.6v10.4c0,0.8-0.7,1.5-1.5,1.5l0,0c-0.8,0-1.5-0.7-1.5-1.5V46.6"/>
				<path class="st3" d="M57.8,46.6h1.1v10.4c0,0.6,0.4,1,1,1c0.6,0,1-0.4,1-1V46.6h1.1v10.4c0,1.1-0.9,2.1-2.1,2.1
					c-1.1,0-2.1-0.9-2.1-2.1V46.6z"/>
			</g>
			<g>
				<path class="st0" d="M58.3,46.6v7.8c0,0.8-0.7,1.5-1.5,1.5l0,0c-0.8,0-1.5-0.7-1.5-1.5v-7.8"/>
				<path class="st3" d="M54.7,46.6h1.1v7.8c0,0.6,0.4,1,1,1c0.6,0,1-0.4,1-1v-7.8h1.1v7.8c0,1.1-0.9,2.1-2.1,2.1
					c-1.1,0-2.1-0.9-2.1-2.1V46.6z"/>
			</g>
		</g>
		<g>
			<polyline class="st2" points="26.1,13.1 26.1,31.9 41.6,31.9 41.6,13.1 			"/>
		</g>
		<g>
			<polyline class="st2" points="70.5,13.1 70.5,31.9 55,31.9 55,13.1 			"/>
		</g>
	</g>
</g>
</svg>
