<?xml version="1.0" encoding="utf-8"?>
<!-- Generator: Adobe Illustrator 19.2.1, SVG Export Plug-In . SVG Version: 6.00 Build 0)  -->
<svg version="1.1" id="Layer_1" xmlns="http://www.w3.org/2000/svg" xmlns:xlink="http://www.w3.org/1999/xlink" x="0px" y="0px"
	 viewBox="0 0 200 200" style="enable-background:new 0 0 200 200;" xml:space="preserve">
<style type="text/css">
	.st0{fill:#212121;}
	.st1{fill:#FFAC33;}
</style>
<g>
	<g>
		<g>
			<path class="st0" d="M185.7,196.9H14.3L0,182.6v-10.7h79.4l6.2,6.2h28.7l6.2-6.2H200v10.7L185.7,196.9z M16.9,190.6h166.2
				l10.7-10.7v-1.8h-70.6l-6.2,6.2H83.1l-6.2-6.2H6.2v1.8L16.9,190.6z"/>
		</g>
		<g>
			<path class="st0" d="M181.2,165.6H175V78.1c0-3.4-2.8-6.2-6.2-6.2H31.2c-3.4,0-6.2,2.8-6.2,6.2v87.5h-6.2V78.1
				c0-6.9,5.6-12.5,12.5-12.5h137.5c6.9,0,12.5,5.6,12.5,12.5V165.6z"/>
		</g>
		<g>
			<polygon class="st1" points="87.7,145.9 62.2,114.1 51.3,125 43.8,125 43.8,118.8 48.7,118.8 62.8,104.7 87.3,135.3 112.3,97.8 
				137.8,129.7 148.7,118.8 156.2,118.8 156.2,125 151.3,125 137.2,139.1 112.7,108.4 			"/>
		</g>
		<g>
			<g>
				<path class="st0" d="M156.2,59.4H150c0-1.1,0-2.2-0.1-3.4c-1,0.2-2,0.3-3,0.3c-8.6,0-15.6-7-15.6-15.6c0-5.5,2.8-10.3,7.2-13.1
					c-2-2.4-4.2-4.6-6.6-6.6c-2.8,4.4-7.7,7.2-13.1,7.2c-8.6,0-15.6-7-15.6-15.6c0-1,0.1-2,0.3-3c-2.4-0.2-4.5-0.2-6.9,0
					c0.2,1,0.3,2,0.3,3c0,8.6-7,15.6-15.6,15.6c-5.5,0-10.3-2.8-13.1-7.2c-2.4,2-4.6,4.2-6.6,6.6c4.4,2.8,7.2,7.7,7.2,13.1
					c0,8.6-7,15.6-15.6,15.6c-1,0-2-0.1-3-0.3C50,57.2,50,58.3,50,59.4h-6.2c0-2.5,0.2-5.1,0.6-8.1c0.1-1,0.8-1.9,1.7-2.3
					c0.9-0.5,2-0.5,2.9,0c1.4,0.7,2.8,1.1,4.2,1.1c5.2,0,9.4-4.2,9.4-9.4c0-4.1-2.7-7.7-6.7-8.9c-1-0.3-1.7-1-2.1-2
					c-0.3-1-0.2-2,0.4-2.8c3.7-5.2,8.2-9.7,13.4-13.4c0.8-0.6,1.9-0.7,2.8-0.4c1,0.3,1.7,1.1,2,2.1c1.2,4,4.8,6.7,8.9,6.7
					c5.2,0,9.4-4.2,9.4-9.4c0-1.4-0.4-2.8-1.1-4.2c-0.5-0.9-0.5-2,0-2.9c0.5-0.9,1.3-1.5,2.3-1.7c6.1-0.9,10.1-0.9,16.2,0
					c1,0.1,1.9,0.8,2.3,1.7c0.5,0.9,0.5,2,0,2.9c-0.7,1.4-1.1,2.8-1.1,4.2c0,5.2,4.2,9.4,9.4,9.4c4.1,0,7.7-2.7,8.9-6.7
					c0.3-1,1-1.7,2-2.1c1-0.3,2-0.2,2.8,0.4c5.2,3.7,9.7,8.2,13.4,13.4c0.6,0.8,0.7,1.9,0.4,2.8c-0.3,1-1.1,1.7-2.1,2
					c-4,1.2-6.7,4.8-6.7,8.9c0,5.2,4.2,9.4,9.4,9.4c1.4,0,2.8-0.4,4.2-1.1c0.9-0.5,2-0.5,2.9,0c0.9,0.5,1.5,1.3,1.7,2.3
					C156,54.3,156.2,56.9,156.2,59.4z"/>
			</g>
			<g>
				<path class="st1" d="M112.5,59.4h-6.2c0-3.4-2.8-6.2-6.2-6.2c-3.4,0-6.2,2.8-6.2,6.2h-6.2c0-6.9,5.6-12.5,12.5-12.5
					C106.9,46.9,112.5,52.5,112.5,59.4z"/>
			</g>
			<g>
				<path class="st1" d="M128.1,59.4h-6.2c0-12.1-9.8-21.9-21.9-21.9c-12.1,0-21.9,9.8-21.9,21.9h-6.2c0-15.5,12.6-28.1,28.1-28.1
					C115.5,31.3,128.1,43.9,128.1,59.4z"/>
			</g>
		</g>
		<g>
			<path class="st0" d="M168.8,165.6H31.2V78.1h137.5V165.6z M37.5,159.4h125v-75h-125V159.4z"/>
		</g>
	</g>
</g>
</svg>
