<?xml version="1.0" encoding="utf-8"?>
<!-- Generator: Adobe Illustrator 19.2.1, SVG Export Plug-In . SVG Version: 6.00 Build 0)  -->
<svg version="1.1" id="Layer_1" xmlns="http://www.w3.org/2000/svg" xmlns:xlink="http://www.w3.org/1999/xlink" x="0px" y="0px"
	 viewBox="0 0 100 100" style="enable-background:new 0 0 100 100;" xml:space="preserve">
<style type="text/css">
	.st0{fill:#FFFFFF;}
	.st1{fill:#212120;}
	.st2{fill:#FFAC33;}
	.st3{fill:none;stroke:#282D33;stroke-width:4;stroke-linejoin:bevel;}
</style>
<polygon class="st0" points="25,93.3 0,50 25,6.7 75,6.7 100,50 75,93.3 "/>
<g>
	<g>
		<path class="st1" d="M29.9,81.3v-7h3c0.3,0,0.6,0.1,0.9,0.2c0.3,0.1,0.5,0.3,0.7,0.5c0.2,0.2,0.4,0.5,0.5,0.7
			c0.1,0.3,0.2,0.6,0.2,0.8c0,0.3-0.1,0.6-0.2,0.9c-0.1,0.3-0.3,0.5-0.4,0.7c-0.2,0.2-0.4,0.4-0.7,0.5c-0.3,0.1-0.6,0.2-0.9,0.2
			h-1.7v2.3H29.9z M31.3,77.8h1.6c0.3,0,0.5-0.1,0.6-0.3c0.2-0.2,0.3-0.5,0.3-0.8c0-0.2,0-0.3-0.1-0.5c-0.1-0.1-0.1-0.3-0.2-0.4
			c-0.1-0.1-0.2-0.2-0.3-0.2c-0.1,0-0.2-0.1-0.3-0.1h-1.5V77.8z"/>
		<path class="st1" d="M35.9,81.3v-5.2h1.2v1.1c0.1-0.2,0.2-0.3,0.3-0.5c0.1-0.1,0.3-0.3,0.4-0.4c0.1-0.1,0.3-0.2,0.4-0.2
			c0.1-0.1,0.3-0.1,0.4-0.1c0.1,0,0.1,0,0.2,0c0,0,0.1,0,0.1,0v1.2c-0.4,0-0.8,0.1-1.1,0.2c-0.3,0.2-0.5,0.4-0.7,0.7v3.1H35.9z"/>
		<path class="st1" d="M39.2,78.8c0-0.4,0.1-0.7,0.2-1c0.1-0.3,0.3-0.6,0.5-0.9c0.2-0.2,0.5-0.4,0.9-0.6c0.3-0.1,0.7-0.2,1.1-0.2
			c0.4,0,0.8,0.1,1.1,0.2c0.3,0.1,0.6,0.3,0.9,0.6c0.2,0.2,0.4,0.5,0.5,0.9c0.1,0.3,0.2,0.7,0.2,1c0,0.4-0.1,0.7-0.2,1
			c-0.1,0.3-0.3,0.6-0.5,0.9c-0.2,0.2-0.5,0.4-0.9,0.6c-0.3,0.1-0.7,0.2-1.1,0.2c-0.4,0-0.8-0.1-1.1-0.2c-0.3-0.1-0.6-0.3-0.9-0.6
			c-0.2-0.2-0.4-0.5-0.5-0.9C39.2,79.5,39.2,79.1,39.2,78.8z M40.5,78.8c0,0.2,0,0.4,0.1,0.6c0.1,0.2,0.2,0.4,0.3,0.5
			c0.1,0.1,0.3,0.2,0.4,0.3c0.2,0.1,0.3,0.1,0.5,0.1c0.2,0,0.4,0,0.5-0.1c0.2-0.1,0.3-0.2,0.4-0.3c0.1-0.1,0.2-0.3,0.3-0.5
			c0.1-0.2,0.1-0.4,0.1-0.6c0-0.2,0-0.4-0.1-0.6c-0.1-0.2-0.2-0.4-0.3-0.5c-0.1-0.1-0.3-0.2-0.4-0.3c-0.2-0.1-0.3-0.1-0.5-0.1
			c-0.2,0-0.4,0-0.5,0.1c-0.2,0.1-0.3,0.2-0.4,0.3c-0.1,0.1-0.2,0.3-0.3,0.5C40.5,78.3,40.5,78.5,40.5,78.8z"/>
		<path class="st1" d="M45.5,83.4v-7.3h1.2v0.9c0.2-0.3,0.4-0.5,0.7-0.7c0.3-0.2,0.7-0.3,1-0.3c0.4,0,0.7,0.1,1,0.2
			c0.3,0.1,0.6,0.3,0.8,0.6c0.2,0.2,0.4,0.5,0.5,0.9c0.1,0.3,0.2,0.7,0.2,1c0,0.4-0.1,0.7-0.2,1.1c-0.1,0.3-0.3,0.6-0.5,0.9
			c-0.2,0.2-0.4,0.4-0.7,0.6c-0.3,0.1-0.6,0.2-0.9,0.2c-0.4,0-0.8-0.1-1.1-0.3c-0.3-0.2-0.5-0.4-0.7-0.7v3H45.5z M46.8,79.3
			c0.1,0.3,0.3,0.5,0.5,0.7c0.2,0.2,0.5,0.3,0.8,0.3c0.2,0,0.4,0,0.5-0.1c0.2-0.1,0.3-0.2,0.4-0.3c0.1-0.1,0.2-0.3,0.3-0.5
			c0.1-0.2,0.1-0.4,0.1-0.6c0-0.2,0-0.4-0.1-0.6c-0.1-0.2-0.2-0.3-0.3-0.5c-0.1-0.1-0.3-0.2-0.5-0.3c-0.2-0.1-0.4-0.1-0.6-0.1
			c-0.1,0-0.3,0-0.4,0.1c-0.1,0-0.3,0.1-0.4,0.2c-0.1,0.1-0.2,0.2-0.3,0.3c-0.1,0.1-0.2,0.2-0.2,0.3V79.3z"/>
		<path class="st1" d="M51.4,78.8c0-0.4,0.1-0.7,0.2-1c0.1-0.3,0.3-0.6,0.5-0.9c0.2-0.2,0.5-0.4,0.9-0.6c0.3-0.1,0.7-0.2,1.1-0.2
			c0.4,0,0.8,0.1,1.1,0.2c0.3,0.1,0.6,0.3,0.9,0.6c0.2,0.2,0.4,0.5,0.5,0.9c0.1,0.3,0.2,0.7,0.2,1c0,0.4-0.1,0.7-0.2,1
			c-0.1,0.3-0.3,0.6-0.5,0.9c-0.2,0.2-0.5,0.4-0.9,0.6c-0.3,0.1-0.7,0.2-1.1,0.2c-0.4,0-0.8-0.1-1.1-0.2c-0.3-0.1-0.6-0.3-0.9-0.6
			c-0.2-0.2-0.4-0.5-0.5-0.9C51.5,79.5,51.4,79.1,51.4,78.8z M52.8,78.8c0,0.2,0,0.4,0.1,0.6c0.1,0.2,0.2,0.4,0.3,0.5
			c0.1,0.1,0.3,0.2,0.4,0.3c0.2,0.1,0.3,0.1,0.5,0.1c0.2,0,0.4,0,0.5-0.1c0.2-0.1,0.3-0.2,0.4-0.3c0.1-0.1,0.2-0.3,0.3-0.5
			c0.1-0.2,0.1-0.4,0.1-0.6c0-0.2,0-0.4-0.1-0.6c-0.1-0.2-0.2-0.4-0.3-0.5c-0.1-0.1-0.3-0.2-0.4-0.3c-0.2-0.1-0.3-0.1-0.5-0.1
			c-0.2,0-0.4,0-0.5,0.1c-0.2,0.1-0.3,0.2-0.4,0.3c-0.1,0.1-0.2,0.3-0.3,0.5C52.8,78.3,52.8,78.5,52.8,78.8z"/>
		<path class="st1" d="M57.3,80.7l0.5-0.8c0.3,0.2,0.6,0.4,0.9,0.5c0.3,0.1,0.6,0.2,0.9,0.2c0.3,0,0.5-0.1,0.6-0.2
			c0.2-0.1,0.2-0.2,0.2-0.4c0-0.2-0.1-0.3-0.3-0.4c-0.2-0.1-0.5-0.2-0.9-0.3C59,79.1,58.7,79,58.5,79c-0.2-0.1-0.4-0.2-0.6-0.3
			c-0.1-0.1-0.3-0.2-0.3-0.4c-0.1-0.1-0.1-0.3-0.1-0.5c0-0.3,0.1-0.5,0.2-0.7c0.1-0.2,0.2-0.4,0.4-0.5c0.2-0.1,0.4-0.3,0.7-0.3
			c0.2-0.1,0.5-0.1,0.8-0.1c0.4,0,0.8,0.1,1.1,0.2c0.3,0.1,0.6,0.3,0.9,0.5L61,77.6c-0.3-0.2-0.5-0.3-0.8-0.4C60,77,59.8,77,59.5,77
			c-0.2,0-0.4,0-0.6,0.1c-0.2,0.1-0.2,0.2-0.2,0.4c0,0.1,0,0.2,0.1,0.2c0,0.1,0.1,0.1,0.2,0.2c0.1,0,0.2,0.1,0.3,0.1
			c0.1,0,0.3,0.1,0.5,0.1c0.4,0.1,0.7,0.2,0.9,0.3c0.3,0.1,0.5,0.2,0.6,0.3c0.2,0.1,0.3,0.3,0.4,0.4c0.1,0.2,0.1,0.3,0.1,0.6
			c0,0.5-0.2,0.9-0.6,1.2c-0.4,0.3-0.9,0.4-1.5,0.4c-0.4,0-0.9-0.1-1.3-0.2C58,81.1,57.6,80.9,57.3,80.7z"/>
		<path class="st1" d="M62.3,79.8c0-0.2,0.1-0.5,0.2-0.7c0.1-0.2,0.3-0.4,0.5-0.5c0.2-0.1,0.4-0.3,0.7-0.3s0.6-0.1,0.9-0.1
			c0.2,0,0.5,0,0.7,0.1c0.2,0,0.4,0.1,0.6,0.2v-0.3c0-0.3-0.1-0.6-0.3-0.8c-0.2-0.2-0.5-0.3-0.9-0.3c-0.3,0-0.5,0-0.8,0.1
			c-0.3,0.1-0.5,0.2-0.8,0.4l-0.4-0.8c0.7-0.4,1.4-0.7,2.1-0.7c0.7,0,1.3,0.2,1.7,0.5c0.4,0.4,0.6,0.9,0.6,1.6v1.6
			c0,0.1,0,0.2,0.1,0.3s0.1,0.1,0.2,0.1v1.1c-0.2,0-0.4,0.1-0.6,0.1c-0.3,0-0.4-0.1-0.6-0.2c-0.1-0.1-0.2-0.3-0.3-0.4l0-0.3
			c-0.2,0.3-0.5,0.5-0.8,0.7c-0.3,0.2-0.7,0.2-1.1,0.2c-0.2,0-0.5,0-0.7-0.1c-0.2-0.1-0.4-0.2-0.6-0.3c-0.2-0.1-0.3-0.3-0.4-0.5
			C62.3,80.3,62.3,80.1,62.3,79.8z M63.5,79.7c0,0.2,0.1,0.4,0.3,0.6c0.2,0.2,0.4,0.2,0.6,0.2c0.2,0,0.4,0,0.6-0.1
			c0.2-0.1,0.4-0.2,0.5-0.3c0.1-0.1,0.2-0.2,0.2-0.4v-0.6c-0.2-0.1-0.3-0.1-0.5-0.1c-0.2,0-0.4-0.1-0.5-0.1c-0.3,0-0.6,0.1-0.8,0.2
			S63.5,79.5,63.5,79.7z"/>
		<path class="st1" d="M68.3,80.1v-6h1.3v5.6c0,0.2,0,0.3,0.1,0.4c0.1,0.1,0.2,0.2,0.4,0.2c0.1,0,0.2,0,0.3,0c0.1,0,0.2-0.1,0.3-0.1
			l0.2,1c-0.2,0.1-0.4,0.2-0.6,0.2c-0.2,0-0.5,0.1-0.6,0.1c-0.4,0-0.7-0.1-1-0.3C68.4,80.9,68.3,80.6,68.3,80.1z"/>
	</g>
	<g>
		<g>
			<g>
				<rect x="49" y="16.6" class="st2" width="1.9" height="3"/>
			</g>
			<g>
				<rect x="44" y="17.2" transform="matrix(0.9659 -0.2589 0.2589 0.9659 -3.316 12.276)" class="st2" width="1.9" height="3"/>
			</g>
			<g>
				<rect x="39.3" y="19.2" transform="matrix(0.866 -0.5 0.5 0.866 -4.9451 22.8972)" class="st2" width="1.9" height="3"/>
			</g>
			<g>
				
					<rect x="35.3" y="22.3" transform="matrix(0.7071 -0.7071 0.7071 0.7071 -6.2027 32.5731)" class="st2" width="1.9" height="3"/>
			</g>
			<g>
				<rect x="32.2" y="26.3" transform="matrix(0.5 -0.866 0.866 0.5 -7.5256 42.5867)" class="st2" width="1.9" height="3"/>
			</g>
			<g>
				<rect x="30.2" y="31" transform="matrix(0.2589 -0.9659 0.9659 0.2589 -8.3002 54.2056)" class="st2" width="1.9" height="3"/>
			</g>
			<g>
				<rect x="29" y="36.6" class="st2" width="3" height="1.9"/>
			</g>
			<g>
				<rect x="68" y="36.6" class="st2" width="3" height="1.9"/>
			</g>
			<g>
				<rect x="67.3" y="31.6" transform="matrix(0.966 -0.2586 0.2586 0.966 -6.0666 18.9048)" class="st2" width="3" height="1.9"/>
			</g>
			<g>
				
					<rect x="65.4" y="26.9" transform="matrix(0.8661 -0.4999 0.4999 0.8661 -4.9467 37.1594)" class="st2" width="3" height="1.9"/>
			</g>
			<g>
				<rect x="62.3" y="22.8" transform="matrix(0.707 -0.7072 0.7072 0.707 1.875 52.0762)" class="st2" width="3" height="1.9"/>
			</g>
			<g>
				<rect x="58.2" y="19.7" transform="matrix(0.5 -0.866 0.866 0.5 11.9651 62.0796)" class="st2" width="3" height="1.9"/>
			</g>
			<g>
				
					<rect x="53.5" y="17.8" transform="matrix(0.2588 -0.9659 0.9659 0.2588 22.7065 67.0522)" class="st2" width="3" height="1.9"/>
			</g>
		</g>
		<path class="st2" d="M35.8,39.2c0,0.2,0,0.4,0,0.6c0,0.5,0.3,7,5.7,13.8c0.9,1.1,1.2,2.9,1.3,4.3h14.5c0.1-1.4,0.4-3.1,1.3-4.3
			c5.4-6.8,5.7-13.4,5.7-13.8c0-0.2,0-0.4,0-0.6H35.8z"/>
		<g>
			<g>
				<path class="st1" d="M57.6,59.5H42.2l-1-0.9c-0.1-1.8-0.5-3.2-1.1-4.1c-6.1-7.8-6.2-15.3-6.2-15.4h1.9c0,0.1,0.2,6.9,5.8,14.2
					c0.7,1,1.2,2.4,1.4,4.2h13.7c0.2-1.8,0.7-3.2,1.5-4.2C63.8,46,64,39.2,64,39.2h1.9c0,0.1-0.2,7.5-6.2,15.4
					c-0.6,0.8-1,2.3-1.2,4.1L57.6,59.5z"/>
			</g>
			<g>
				<g>
					<rect x="40.1" y="57.7" class="st1" width="19.6" height="1.9"/>
				</g>
				<g>
					<rect x="40.1" y="61.5" class="st1" width="19.6" height="1.9"/>
				</g>
				<g>
					<rect x="43.1" y="65.4" class="st1" width="13.6" height="1.9"/>
				</g>
				<g>
					<rect x="41.4" y="58.9" class="st1" width="1.9" height="3.6"/>
				</g>
			</g>
			<g>
				<path class="st1" d="M46,32.2h-1.9c0-0.9-0.8-1.7-1.7-1.7h-2.6v-1.9h2.6C44.4,28.6,46,30.2,46,32.2z"/>
			</g>
			<g>
				<path class="st1" d="M49.3,58.2h-1.9V29.4c0-1.7-1.4-3-3-3c-1.7,0-3,1.4-3,3h-1.9c0-2.7,2.2-4.9,4.9-4.9c2.7,0,4.9,2.2,4.9,4.9
					V58.2z"/>
			</g>
			<g>
				<path class="st1" d="M39.8,35.8c-2,0-3.6-1.6-3.6-3.6c0-2,1.6-3.6,3.6-3.6h0.6v1.9h-0.6c-0.9,0-1.7,0.8-1.7,1.7
					c0,0.9,0.8,1.7,1.7,1.7V35.8z"/>
			</g>
			<g>
				<path class="st1" d="M35.7,37.8h-1.9c0-2.2,1.8-4,4-4h1.3v1.9h-1.3C36.6,35.8,35.7,36.7,35.7,37.8z"/>
			</g>
			<g>
				<path class="st3" d="M36.7,40.3"/>
			</g>
			<g>
				<path class="st1" d="M44.3,35.7h-1.1c-1.2,0-2.3-1-2.3-2.3v-1.2h1.9v1.2c0,0.2,0.1,0.3,0.3,0.3h1.1V35.7z"/>
			</g>
			<g>
				<path class="st1" d="M55.6,32.2h-1.9c0-2,1.6-3.6,3.6-3.6h2.6v1.9h-2.6C56.4,30.5,55.6,31.3,55.6,32.2z"/>
			</g>
			<g>
				<path class="st1" d="M52.4,58.2h-1.9V29.4c0-2.7,2.2-4.9,4.9-4.9c2.7,0,4.9,2.2,4.9,4.9h-1.9c0-1.7-1.4-3-3-3c-1.7,0-3,1.4-3,3
					V58.2z"/>
			</g>
			<g>
				<path class="st1" d="M59.9,35.8v-1.9c0.9,0,1.7-0.8,1.7-1.7c0-0.9-0.8-1.7-1.7-1.7h-0.6v-1.9h0.6c2,0,3.6,1.6,3.6,3.6
					C63.5,34.2,61.9,35.8,59.9,35.8z"/>
			</g>
			<g>
				<path class="st1" d="M65.9,37.8H64c0-1.1-0.9-2.1-2.1-2.1h-1.3v-1.9H62C64.2,33.8,65.9,35.6,65.9,37.8z"/>
			</g>
			<g>
				<path class="st1" d="M56.6,35.7h-1.1v-1.9h1.1c0.2,0,0.3-0.1,0.3-0.3v-1.2h1.9v1.2C58.9,34.7,57.8,35.7,56.6,35.7z"/>
			</g>
			<g>
				<rect x="34.5" y="39.2" class="st1" width="13.4" height="1.9"/>
			</g>
			<g>
				<rect x="52.4" y="39.2" class="st1" width="13.1" height="1.9"/>
			</g>
		</g>
	</g>
</g>
</svg>
