<?xml version="1.0" encoding="utf-8"?>
<!-- Generator: Adobe Illustrator 19.2.1, SVG Export Plug-In . SVG Version: 6.00 Build 0)  -->
<svg version="1.1" id="Layer_1" xmlns="http://www.w3.org/2000/svg" xmlns:xlink="http://www.w3.org/1999/xlink" x="0px" y="0px"
	 viewBox="0 0 100 100" style="enable-background:new 0 0 100 100;" xml:space="preserve">
<style type="text/css">
	.st0{fill:#FFFFFF;}
	.st1{fill:#212120;}
	.st2{fill:#FBAC35;}
	.st3{fill:#292E33;}
</style>
<polygon class="st0" points="25,93.3 0,50 25,6.7 75,6.7 100,50 75,93.3 "/>
<g>
	<g>
		<path class="st1" d="M35.4,75.5l0.6-1.2c0.1,0.1,0.2,0.1,0.3,0.2c0.2,0.1,0.3,0.2,0.5,0.3c0.2,0.1,0.4,0.2,0.7,0.2
			c0.3,0.1,0.5,0.1,0.8,0.1c0.7,0,1.1-0.2,1.1-0.7c0-0.2,0-0.3-0.1-0.4c-0.1-0.1-0.2-0.2-0.4-0.3c-0.2-0.1-0.4-0.2-0.6-0.2
			c-0.2-0.1-0.5-0.1-0.7-0.2c-0.3-0.1-0.6-0.2-0.9-0.3c-0.2-0.1-0.5-0.2-0.6-0.4c-0.2-0.1-0.3-0.3-0.4-0.5c-0.1-0.2-0.1-0.4-0.1-0.7
			c0-0.4,0.1-0.7,0.2-0.9c0.1-0.3,0.3-0.5,0.5-0.7c0.2-0.2,0.5-0.3,0.8-0.4c0.3-0.1,0.6-0.1,1-0.1c0.5,0,1,0.1,1.4,0.2
			c0.4,0.2,0.8,0.3,1.1,0.5L40,71.1c0,0-0.1-0.1-0.3-0.2c-0.1-0.1-0.3-0.2-0.4-0.2c-0.2-0.1-0.4-0.1-0.6-0.2
			c-0.2-0.1-0.4-0.1-0.6-0.1c-0.4,0-0.7,0.1-0.8,0.2C37.1,70.8,37,71,37,71.2c0,0.1,0,0.3,0.1,0.4c0.1,0.1,0.2,0.2,0.3,0.3
			c0.1,0.1,0.3,0.1,0.5,0.2c0.2,0.1,0.4,0.1,0.7,0.2c0.3,0.1,0.7,0.2,0.9,0.3c0.3,0.1,0.5,0.2,0.7,0.4c0.2,0.2,0.3,0.4,0.4,0.6
			c0.1,0.2,0.2,0.5,0.2,0.8c0,0.4-0.1,0.7-0.2,1c-0.1,0.3-0.3,0.5-0.6,0.6c-0.2,0.2-0.5,0.3-0.8,0.4c-0.3,0.1-0.6,0.1-1,0.1
			c-0.5,0-1-0.1-1.6-0.2C36.2,76,35.8,75.8,35.4,75.5z"/>
		<path class="st1" d="M41.5,73.7c0-0.4,0.1-0.7,0.2-1c0.1-0.3,0.3-0.6,0.5-0.8c0.2-0.2,0.5-0.4,0.9-0.6c0.3-0.1,0.7-0.2,1.1-0.2
			c0.6,0,1,0.1,1.4,0.4c0.4,0.2,0.7,0.6,0.9,1l-1.3,0.4c-0.1-0.2-0.3-0.3-0.4-0.4c-0.2-0.1-0.4-0.2-0.6-0.2c-0.2,0-0.4,0-0.5,0.1
			c-0.2,0.1-0.3,0.2-0.4,0.3c-0.1,0.1-0.2,0.3-0.3,0.5c-0.1,0.2-0.1,0.4-0.1,0.6c0,0.2,0,0.4,0.1,0.6c0.1,0.2,0.2,0.4,0.3,0.5
			c0.1,0.1,0.3,0.2,0.4,0.3c0.2,0.1,0.3,0.1,0.5,0.1c0.2,0,0.5-0.1,0.7-0.2c0.2-0.1,0.3-0.3,0.4-0.4l1.3,0.4c-0.2,0.4-0.5,0.7-0.9,1
			c-0.4,0.3-0.9,0.4-1.5,0.4c-0.4,0-0.8-0.1-1.1-0.2c-0.3-0.1-0.6-0.3-0.9-0.6c-0.2-0.2-0.4-0.5-0.5-0.9
			C41.5,74.4,41.5,74,41.5,73.7z"/>
		<path class="st1" d="M47,73.7c0-0.4,0.1-0.7,0.2-1c0.1-0.3,0.3-0.6,0.5-0.9c0.2-0.2,0.5-0.4,0.9-0.6c0.3-0.1,0.7-0.2,1.1-0.2
			c0.4,0,0.8,0.1,1.1,0.2c0.3,0.1,0.6,0.3,0.9,0.6c0.2,0.2,0.4,0.5,0.5,0.9c0.1,0.3,0.2,0.7,0.2,1c0,0.4-0.1,0.7-0.2,1
			c-0.1,0.3-0.3,0.6-0.5,0.9c-0.2,0.2-0.5,0.4-0.9,0.6c-0.3,0.1-0.7,0.2-1.1,0.2c-0.4,0-0.8-0.1-1.1-0.2c-0.3-0.1-0.6-0.3-0.9-0.6
			c-0.2-0.2-0.4-0.5-0.5-0.9C47,74.4,47,74.1,47,73.7z M48.3,73.7c0,0.2,0,0.4,0.1,0.6c0.1,0.2,0.2,0.4,0.3,0.5
			c0.1,0.1,0.3,0.2,0.4,0.3c0.2,0.1,0.3,0.1,0.5,0.1c0.2,0,0.4,0,0.5-0.1c0.2-0.1,0.3-0.2,0.4-0.3c0.1-0.1,0.2-0.3,0.3-0.5
			c0.1-0.2,0.1-0.4,0.1-0.6c0-0.2,0-0.4-0.1-0.6c-0.1-0.2-0.2-0.4-0.3-0.5c-0.1-0.1-0.3-0.2-0.4-0.3c-0.2-0.1-0.3-0.1-0.5-0.1
			c-0.2,0-0.4,0-0.5,0.1c-0.2,0.1-0.3,0.2-0.4,0.3c-0.1,0.1-0.2,0.3-0.3,0.5C48.4,73.3,48.3,73.5,48.3,73.7z"/>
		<path class="st1" d="M53.3,78.4v-7.3h1.2V72c0.2-0.3,0.4-0.5,0.7-0.7c0.3-0.2,0.7-0.3,1-0.3c0.4,0,0.7,0.1,1,0.2
			c0.3,0.1,0.6,0.3,0.8,0.6c0.2,0.2,0.4,0.5,0.5,0.9c0.1,0.3,0.2,0.7,0.2,1c0,0.4-0.1,0.7-0.2,1.1c-0.1,0.3-0.3,0.6-0.5,0.9
			c-0.2,0.2-0.4,0.4-0.7,0.6c-0.3,0.1-0.6,0.2-0.9,0.2c-0.4,0-0.8-0.1-1.1-0.3c-0.3-0.2-0.5-0.4-0.7-0.7v3H53.3z M54.6,74.2
			c0.1,0.3,0.3,0.5,0.5,0.7c0.2,0.2,0.5,0.3,0.8,0.3c0.2,0,0.4,0,0.5-0.1c0.2-0.1,0.3-0.2,0.4-0.3c0.1-0.1,0.2-0.3,0.3-0.5
			c0.1-0.2,0.1-0.4,0.1-0.6c0-0.2,0-0.4-0.1-0.6c-0.1-0.2-0.2-0.3-0.3-0.5c-0.1-0.1-0.3-0.2-0.5-0.3c-0.2-0.1-0.4-0.1-0.6-0.1
			c-0.1,0-0.3,0-0.4,0.1c-0.1,0-0.3,0.1-0.4,0.2c-0.1,0.1-0.2,0.2-0.3,0.3c-0.1,0.1-0.2,0.2-0.2,0.3V74.2z"/>
		<path class="st1" d="M59.2,73.7c0-0.4,0.1-0.7,0.2-1c0.1-0.3,0.3-0.6,0.5-0.8c0.2-0.2,0.5-0.4,0.9-0.6c0.3-0.1,0.7-0.2,1.1-0.2
			c0.4,0,0.8,0.1,1.1,0.2c0.3,0.1,0.6,0.3,0.8,0.6c0.2,0.2,0.4,0.5,0.5,0.8c0.1,0.3,0.2,0.6,0.2,1c0,0.1,0,0.2,0,0.3
			c0,0.1,0,0.2,0,0.2h-4c0,0.2,0.1,0.4,0.1,0.6c0.1,0.2,0.2,0.3,0.3,0.4c0.1,0.1,0.3,0.2,0.4,0.3c0.2,0.1,0.3,0.1,0.5,0.1
			c0.3,0,0.5-0.1,0.7-0.2c0.2-0.1,0.4-0.3,0.5-0.5l1.1,0.3c-0.2,0.4-0.5,0.7-0.9,1c-0.4,0.2-0.9,0.4-1.5,0.4c-0.4,0-0.8-0.1-1.1-0.2
			c-0.3-0.1-0.6-0.3-0.9-0.6c-0.2-0.2-0.4-0.5-0.5-0.9C59.3,74.4,59.2,74,59.2,73.7z M60.6,73.2h2.7c0-0.4-0.2-0.7-0.4-0.9
			c-0.3-0.2-0.6-0.3-0.9-0.3c-0.2,0-0.3,0-0.5,0.1c-0.2,0.1-0.3,0.1-0.4,0.3c-0.1,0.1-0.2,0.2-0.3,0.4C60.7,72.8,60.6,73,60.6,73.2z
			"/>
		<path class="st1" d="M26,88.1v-7h2.6c0.6,0,1.1,0.1,1.5,0.3c0.4,0.2,0.8,0.4,1.1,0.7c0.3,0.3,0.5,0.7,0.7,1.1
			c0.1,0.4,0.2,0.9,0.2,1.4c0,0.5-0.1,1-0.2,1.4c-0.2,0.4-0.4,0.8-0.7,1.1c-0.3,0.3-0.7,0.5-1.1,0.7c-0.4,0.2-0.9,0.3-1.4,0.3H26z
			 M27.3,86.9h1.2c0.3,0,0.6-0.1,0.9-0.2c0.3-0.1,0.5-0.3,0.7-0.5c0.2-0.2,0.3-0.5,0.4-0.7c0.1-0.3,0.1-0.6,0.1-0.9
			c0-0.3,0-0.6-0.1-0.9c-0.1-0.3-0.2-0.5-0.4-0.7c-0.2-0.2-0.4-0.4-0.7-0.5c-0.3-0.1-0.6-0.2-0.9-0.2h-1.2V86.9z"/>
		<path class="st1" d="M32.6,85.5c0-0.4,0.1-0.7,0.2-1c0.1-0.3,0.3-0.6,0.5-0.9c0.2-0.2,0.5-0.4,0.9-0.6c0.3-0.1,0.7-0.2,1.1-0.2
			c0.4,0,0.8,0.1,1.1,0.2s0.6,0.3,0.9,0.6c0.2,0.2,0.4,0.5,0.5,0.9c0.1,0.3,0.2,0.7,0.2,1c0,0.4-0.1,0.7-0.2,1
			c-0.1,0.3-0.3,0.6-0.5,0.9c-0.2,0.2-0.5,0.4-0.9,0.6c-0.3,0.1-0.7,0.2-1.1,0.2c-0.4,0-0.8-0.1-1.1-0.2c-0.3-0.1-0.6-0.3-0.9-0.6
			c-0.2-0.2-0.4-0.5-0.5-0.9C32.6,86.2,32.6,85.9,32.6,85.5z M33.9,85.5c0,0.2,0,0.4,0.1,0.6c0.1,0.2,0.2,0.4,0.3,0.5
			c0.1,0.1,0.3,0.2,0.4,0.3c0.2,0.1,0.3,0.1,0.5,0.1c0.2,0,0.4,0,0.5-0.1c0.2-0.1,0.3-0.2,0.4-0.3c0.1-0.1,0.2-0.3,0.3-0.5
			c0.1-0.2,0.1-0.4,0.1-0.6c0-0.2,0-0.4-0.1-0.6c-0.1-0.2-0.2-0.4-0.3-0.5c-0.1-0.1-0.3-0.2-0.4-0.3C35.7,84,35.5,84,35.3,84
			c-0.2,0-0.4,0-0.5,0.1c-0.2,0.1-0.3,0.2-0.4,0.3c-0.1,0.1-0.2,0.3-0.3,0.5C34,85.1,33.9,85.3,33.9,85.5z"/>
		<path class="st1" d="M38.6,85.5c0-0.4,0.1-0.7,0.2-1c0.1-0.3,0.3-0.6,0.5-0.8c0.2-0.2,0.5-0.4,0.9-0.6c0.3-0.1,0.7-0.2,1.1-0.2
			c0.6,0,1,0.1,1.4,0.4c0.4,0.2,0.7,0.6,0.9,1l-1.3,0.4c-0.1-0.2-0.3-0.3-0.4-0.4C41.7,84,41.5,84,41.3,84c-0.2,0-0.4,0-0.5,0.1
			c-0.2,0.1-0.3,0.2-0.4,0.3c-0.1,0.1-0.2,0.3-0.3,0.5c-0.1,0.2-0.1,0.4-0.1,0.6c0,0.2,0,0.4,0.1,0.6c0.1,0.2,0.2,0.4,0.3,0.5
			c0.1,0.1,0.3,0.2,0.4,0.3c0.2,0.1,0.3,0.1,0.5,0.1c0.2,0,0.5-0.1,0.7-0.2c0.2-0.1,0.3-0.3,0.4-0.4l1.3,0.4c-0.2,0.4-0.5,0.7-0.9,1
			c-0.4,0.3-0.9,0.4-1.5,0.4c-0.4,0-0.8-0.1-1.1-0.2c-0.3-0.1-0.6-0.3-0.9-0.6c-0.2-0.2-0.4-0.5-0.5-0.9
			C38.6,86.2,38.6,85.9,38.6,85.5z"/>
		<path class="st1" d="M44.4,86.2V83h1.3v2.9c0,0.8,0.3,1.2,0.9,1.2c0.3,0,0.5-0.1,0.7-0.2c0.2-0.2,0.4-0.4,0.6-0.7V83h1.3v3.7
			c0,0.1,0,0.2,0.1,0.3c0,0.1,0.1,0.1,0.2,0.1v1.1c-0.1,0-0.2,0-0.3,0c-0.1,0-0.2,0-0.2,0c-0.2,0-0.4-0.1-0.6-0.2
			c-0.1-0.1-0.2-0.3-0.3-0.5l0-0.4c-0.2,0.4-0.5,0.6-0.9,0.8c-0.4,0.2-0.8,0.3-1.2,0.3c-0.5,0-0.9-0.2-1.2-0.5
			C44.6,87.4,44.4,86.9,44.4,86.2z"/>
		<path class="st1" d="M50.6,88.1V83h1.2v1c0.2-0.3,0.4-0.6,0.8-0.8c0.3-0.2,0.7-0.3,1.1-0.3c0.4,0,0.8,0.1,1,0.3
			c0.2,0.2,0.4,0.5,0.5,0.8c0.2-0.4,0.5-0.6,0.8-0.8c0.3-0.2,0.7-0.3,1.1-0.3c0.3,0,0.6,0.1,0.8,0.2c0.2,0.1,0.4,0.3,0.5,0.5
			c0.1,0.2,0.2,0.4,0.2,0.7c0,0.2,0.1,0.5,0.1,0.7v3.2h-1.3v-2.9c0-0.4-0.1-0.7-0.2-0.9c-0.1-0.2-0.3-0.3-0.6-0.3
			c-0.3,0-0.5,0.1-0.7,0.3c-0.2,0.2-0.4,0.5-0.5,0.8v3h-1.3v-2.9c0-0.4-0.1-0.7-0.2-0.9c-0.1-0.2-0.3-0.3-0.6-0.3
			c-0.3,0-0.5,0.1-0.7,0.3c-0.2,0.2-0.4,0.5-0.5,0.8v3H50.6z"/>
		<path class="st1" d="M59.4,85.5c0-0.4,0.1-0.7,0.2-1c0.1-0.3,0.3-0.6,0.5-0.8c0.2-0.2,0.5-0.4,0.9-0.6c0.3-0.1,0.7-0.2,1.1-0.2
			c0.4,0,0.8,0.1,1.1,0.2c0.3,0.1,0.6,0.3,0.8,0.6c0.2,0.2,0.4,0.5,0.5,0.8c0.1,0.3,0.2,0.6,0.2,1c0,0.1,0,0.2,0,0.3
			c0,0.1,0,0.2,0,0.2h-4c0,0.2,0.1,0.4,0.1,0.6c0.1,0.2,0.2,0.3,0.3,0.4c0.1,0.1,0.3,0.2,0.4,0.3c0.2,0.1,0.3,0.1,0.5,0.1
			c0.3,0,0.5-0.1,0.7-0.2c0.2-0.1,0.4-0.3,0.5-0.5l1.1,0.3c-0.2,0.4-0.5,0.7-0.9,1c-0.4,0.2-0.9,0.4-1.5,0.4c-0.4,0-0.8-0.1-1.1-0.2
			c-0.3-0.1-0.6-0.3-0.9-0.6c-0.2-0.2-0.4-0.5-0.5-0.9C59.5,86.2,59.4,85.9,59.4,85.5z M60.8,85h2.7c0-0.4-0.2-0.7-0.4-0.9
			c-0.3-0.2-0.6-0.3-0.9-0.3c-0.2,0-0.3,0-0.5,0.1c-0.2,0.1-0.3,0.1-0.4,0.3c-0.1,0.1-0.2,0.2-0.3,0.4C60.9,84.7,60.8,84.9,60.8,85z
			"/>
		<path class="st1" d="M65.7,88.1V83h1.2v1c0.2-0.3,0.5-0.6,0.8-0.8c0.4-0.2,0.8-0.3,1.2-0.3c0.3,0,0.6,0.1,0.8,0.2
			c0.2,0.1,0.4,0.3,0.5,0.5c0.1,0.2,0.2,0.4,0.2,0.7c0,0.2,0.1,0.5,0.1,0.7v3.2h-1.3v-2.9c0-0.4-0.1-0.7-0.2-0.9
			c-0.1-0.2-0.3-0.3-0.6-0.3c-0.1,0-0.3,0-0.4,0.1c-0.1,0.1-0.3,0.1-0.4,0.2c-0.1,0.1-0.2,0.2-0.3,0.3c-0.1,0.1-0.2,0.3-0.2,0.4v3
			H65.7z"/>
		<path class="st1" d="M71.2,83.9V83h0.7v-1.8h1.3V83h1.1v0.9h-1.1v2.6c0,0.2,0,0.3,0.1,0.4c0.1,0.1,0.2,0.1,0.3,0.1
			c0.1,0,0.3,0,0.4-0.1c0.1,0,0.2-0.1,0.3-0.1l0.3,1c-0.2,0.1-0.4,0.2-0.7,0.2c-0.3,0.1-0.5,0.1-0.8,0.1c-0.2,0-0.4,0-0.5-0.1
			c-0.2,0-0.3-0.1-0.4-0.2c-0.1-0.1-0.2-0.2-0.3-0.4c-0.1-0.2-0.1-0.4-0.1-0.6v-3H71.2z"/>
	</g>
	<g>
		<circle class="st2" cx="50" cy="38.8" r="7.2"/>
		<g>
			<g>
				<path class="st3" d="M65.5,61.4l-5.9-5l1.4-1.7l4.3,3.7l3.7-3.7L65,49.9l0.5-0.7c1.3-1.9,2.2-3.9,2.7-6.1l0.2-0.8l6.4-0.5v-5.3
					L68.5,36l-0.2-0.8c-0.4-2.2-1.2-4.3-2.4-6.2l-0.4-0.7l4.2-4.9L66,19.7l-4.8,4.1l-0.7-0.5c-1.9-1.3-3.9-2.2-6.1-2.7l-0.8-0.2
					l-0.5-6.4h-5.3l-0.5,6.3l-0.8,0.2c-2.2,0.4-4.3,1.2-6.2,2.4l-0.7,0.4L34.7,19l-3.7,3.7l4.1,4.8l-0.5,0.7
					c-1.3,1.9-2.2,3.9-2.7,6.1l-0.2,0.8l-6.4,0.5l0,5.3l6.3,0.5l0.2,0.8c0.4,2.2,1.2,4.3,2.4,6.2l0.4,0.7l-4.2,4.9l3.7,3.7l4.2-3.5
					l1.4,1.7l-5.7,4.8l-6.5-6.5l4.5-5.3c-1-1.7-1.7-3.5-2.1-5.5l-6.6-0.6l0-9.3l6.9-0.6c0.5-1.9,1.3-3.7,2.4-5.4L28,22.6l6.5-6.5
					l5.3,4.5c1.7-1,3.5-1.7,5.5-2.1l0.6-6.6h9.3l0.6,6.9c1.9,0.5,3.7,1.3,5.4,2.4l5.1-4.3l6.5,6.5l-4.5,5.3c1,1.7,1.7,3.5,2.1,5.5
					l6.6,0.6l0,9.3l-6.9,0.6c-0.5,1.9-1.3,3.7-2.4,5.4l4.3,5.1L65.5,61.4z"/>
			</g>
		</g>
		<g>
			<g>
				<path class="st3" d="M36.5,38.9h-2.2c0-0.4,0-0.8,0-1.2l2.2,0.2C36.5,38.2,36.5,38.5,36.5,38.9z"/>
			</g>
			<g>
				<path class="st3" d="M36.8,35.9l-2.1-0.5c0.2-0.7,0.4-1.4,0.6-2.1l2,0.8C37.1,34.7,36.9,35.3,36.8,35.9z M63.2,35.9
					c-0.1-0.6-0.3-1.2-0.6-1.8l2-0.8c0.3,0.7,0.5,1.4,0.6,2.1L63.2,35.9z M38.1,32.4l-1.9-1c0.4-0.6,0.8-1.3,1.2-1.9l1.7,1.3
					C38.8,31.3,38.4,31.8,38.1,32.4z M61.8,32.3c-0.3-0.6-0.7-1.1-1-1.6l1.7-1.3c0.4,0.6,0.9,1.2,1.2,1.9L61.8,32.3z M40.5,29.3
					l-1.5-1.5c0.5-0.5,1.1-1,1.7-1.5l1.3,1.7C41.4,28.4,40.9,28.8,40.5,29.3z M59.5,29.3c-0.5-0.5-0.9-0.9-1.5-1.3l1.3-1.7
					c0.6,0.4,1.2,0.9,1.7,1.5L59.5,29.3z M43.5,27l-1-1.9c0.7-0.4,1.3-0.7,2-0.9l0.8,2C44.7,26.4,44.1,26.7,43.5,27z M56.5,27
					c-0.6-0.3-1.2-0.6-1.8-0.8l0.8-2c0.7,0.3,1.4,0.6,2,0.9L56.5,27z M47.1,25.6l-0.5-2.1c0.7-0.2,1.5-0.3,2.2-0.3l0.2,2.2
					C48.4,25.4,47.7,25.5,47.1,25.6z M52.9,25.6c-0.6-0.1-1.3-0.2-1.9-0.3l0.2-2.2c0.7,0.1,1.5,0.2,2.2,0.3L52.9,25.6z"/>
			</g>
			<g>
				<path class="st3" d="M65.7,38.9h-2.2c0-0.3,0-0.7,0-1l2.2-0.2C65.7,38.1,65.7,38.5,65.7,38.9z"/>
			</g>
		</g>
		<g>
			<g>
				<path class="st3" d="M50,28.8c5.4,0,9.8,4.4,9.8,9.8c0,0-0.2,5.1-4.4,10.4l0,0l0,0c-0.5,0.7-1,1.7-1.2,2.8h-8.5
					c-0.3-1.1-0.7-2-1.2-2.8l0,0l0,0c-4.2-5.4-4.4-10.4-4.4-10.4C40.2,33.2,44.6,28.8,50,28.8 M50,26.7c-6.6,0-12,5.4-12,12
					c0,0.4,0.3,5.9,4.8,11.8c0.7,1,1,2.5,1.1,3.6h12.3c0.1-1.2,0.3-2.7,1.1-3.6c4.5-5.8,4.8-11.4,4.8-11.8C62,32,56.6,26.7,50,26.7
					L50,26.7z"/>
				<g>
					<g>
						
							<rect x="46.3" y="40.8" transform="matrix(0.9945 -0.1049 0.1049 0.9945 -4.7137 5.2364)" class="st3" width="2.2" height="13.3"/>
					</g>
					<g>
						
							<rect x="45.9" y="46.4" transform="matrix(0.105 -0.9945 0.9945 0.105 -0.1307 94.7344)" class="st3" width="13.3" height="2.2"/>
					</g>
				</g>
				<g>
					<g>
						<rect x="42.2" y="53.1" class="st3" width="15.6" height="2.2"/>
					</g>
					<g>
						<rect x="42.2" y="56.7" class="st3" width="15.6" height="2.2"/>
					</g>
					<g>
						<rect x="44.9" y="60.3" class="st3" width="10.2" height="2.2"/>
					</g>
					<g>
						<rect x="43.5" y="54.4" class="st3" width="2.2" height="3.7"/>
					</g>
				</g>
			</g>
		</g>
	</g>
</g>
</svg>
