<?xml version="1.0" encoding="utf-8"?>
<!-- Generator: Adobe Illustrator 19.2.1, SVG Export Plug-In . SVG Version: 6.00 Build 0)  -->
<svg version="1.1" id="Layer_1" xmlns="http://www.w3.org/2000/svg" xmlns:xlink="http://www.w3.org/1999/xlink" x="0px" y="0px"
	 viewBox="0 0 200 200" style="enable-background:new 0 0 200 200;" xml:space="preserve">
<style type="text/css">
	.st0{fill:#00EA7A;}
	.st1{fill:#212121;}
</style>
<g>
	<g>
		<g>
			<path class="st0" d="M109.4,25H90.6V0h18.8V25z M96.9,18.8h6.2V6.2h-6.2V18.8z"/>
		</g>
		<g>
			<path class="st1" d="M150,162.5c-1.2,0-2.4-0.7-2.9-1.9L100,51.6l-47.1,109c-0.6,1.4-2,2.1-3.5,1.8c-1.4-0.3-2.5-1.6-2.5-3.1
				v-31.2c0-0.3,0.1-0.7,0.2-1l28.1-84.4l5.9,2l-28,83.9v15.6l44-101.8c0.5-1.1,1.6-1.9,2.9-1.9c1.2,0,2.4,0.7,2.9,1.9l44,101.8
				v-15.6l-28-83.9l5.9-2l28.1,84.4c0.1,0.3,0.2,0.7,0.2,1v31.2c0,1.5-1,2.8-2.5,3.1C150.4,162.5,150.2,162.5,150,162.5z"/>
		</g>
		<g>
			<rect x="59.4" y="156.2" class="st1" width="6.2" height="6.2"/>
		</g>
		<g>
			<rect x="71.9" y="156.2" class="st0" width="6.2" height="6.2"/>
		</g>
		<g>
			<rect x="84.4" y="156.2" class="st1" width="6.2" height="6.2"/>
		</g>
		<g>
			<rect x="96.9" y="156.2" class="st0" width="6.2" height="6.2"/>
		</g>
		<g>
			<rect x="109.4" y="156.2" class="st1" width="6.2" height="6.2"/>
		</g>
		<g>
			<rect x="121.9" y="156.2" class="st0" width="6.2" height="6.2"/>
		</g>
		<g>
			<rect x="134.4" y="156.2" class="st1" width="6.2" height="6.2"/>
		</g>
		<g>
			<rect x="75" y="100" class="st1" width="50" height="6.2"/>
		</g>
		<g>
			<path class="st1" d="M111.6,67.8l-4.4-4.4l6.2-6.2c3.3-3.4,5.3-8.4,5.3-13.4c0-10.3-8.4-18.8-18.8-18.8
				c-10.3,0-18.8,8.4-18.8,18.8c0,5,2,10,5.4,13.4l6.2,6.2l-4.4,4.4l-6.2-6.2C77.6,56.9,75,50.4,75,43.8c0-13.8,11.2-25,25-25
				c13.8,0,25,11.2,25,25c0,6.7-2.6,13.2-7.1,17.8L111.6,67.8z"/>
		</g>
		<g>
			<path class="st1" d="M100,200C43.9,200,0,182.2,0,159.4c0-14.8,18.4-27.9,49.2-35.2l1.4,6.1c-27.4,6.4-44.4,17.6-44.4,29.1
				c0,16.6,37.7,34.4,93.8,34.4c56.1,0,93.8-17.8,93.8-34.4c0-11.5-17.1-22.7-44.5-29.1l1.4-6.1c30.9,7.2,49.3,20.4,49.3,35.2
				C200,182.2,156.1,200,100,200z"/>
		</g>
		<g>
			<rect x="96.9" y="143.8" class="st1" width="6.2" height="6.2"/>
		</g>
		<g>
			<rect x="96.9" y="168.8" class="st1" width="6.2" height="6.2"/>
		</g>
		<g>
			<path class="st0" d="M100,112.5c-5.2,0-9.4-4.2-9.4-9.4s4.2-9.4,9.4-9.4c5.2,0,9.4,4.2,9.4,9.4S105.2,112.5,100,112.5z M100,100
				c-1.7,0-3.1,1.4-3.1,3.1s1.4,3.1,3.1,3.1c1.7,0,3.1-1.4,3.1-3.1S101.7,100,100,100z"/>
		</g>
		<g>
			<rect x="0" y="40.6" class="st1" width="59.4" height="6.2"/>
		</g>
		<g>
			<polygon class="st1" points="49.1,58.5 44.7,54 55,43.8 44.7,33.5 49.1,29 63.8,43.8 			"/>
		</g>
		<g>
			<rect x="140.6" y="40.6" class="st1" width="59.4" height="6.2"/>
		</g>
		<g>
			<polygon class="st1" points="150.9,58.5 136.2,43.8 150.9,29 155.3,33.5 145,43.8 155.3,54 			"/>
		</g>
	</g>
</g>
</svg>
