<?xml version="1.0" encoding="utf-8"?>
<!-- Generator: Adobe Illustrator 19.2.1, SVG Export Plug-In . SVG Version: 6.00 Build 0)  -->
<svg version="1.1" id="Layer_1" xmlns="http://www.w3.org/2000/svg" xmlns:xlink="http://www.w3.org/1999/xlink" x="0px" y="0px"
	 viewBox="0 0 100 100" style="enable-background:new 0 0 100 100;" xml:space="preserve">
<style type="text/css">
	.st0{fill:#FFFFFF;}
	.st1{fill:#212120;}
	.st2{fill:#282D33;}
	.st3{fill:#00B1FF;}
	.st4{fill:#212121;}
</style>
<polygon class="st0" points="25,93.3 0,50 25,6.7 75,6.7 100,50 75,93.3 "/>
<g>
	<g>
		<g>
			<path class="st1" d="M31.4,82.4v-7h2.6c0.6,0,1.1,0.1,1.5,0.3c0.4,0.2,0.8,0.4,1.1,0.7c0.3,0.3,0.5,0.7,0.7,1.1
				c0.1,0.4,0.2,0.9,0.2,1.4c0,0.5-0.1,1-0.2,1.4c-0.2,0.4-0.4,0.8-0.7,1.1c-0.3,0.3-0.7,0.5-1.1,0.7c-0.4,0.2-0.9,0.3-1.4,0.3H31.4
				z M32.7,81.2h1.2c0.3,0,0.6-0.1,0.9-0.2c0.3-0.1,0.5-0.3,0.7-0.5c0.2-0.2,0.3-0.5,0.4-0.7c0.1-0.3,0.1-0.6,0.1-0.9
				c0-0.3,0-0.6-0.1-0.9s-0.2-0.5-0.4-0.7c-0.2-0.2-0.4-0.4-0.7-0.5c-0.3-0.1-0.6-0.2-0.9-0.2h-1.2V81.2z"/>
			<path class="st1" d="M38,79.9c0-0.4,0.1-0.7,0.2-1c0.1-0.3,0.3-0.6,0.5-0.8c0.2-0.2,0.5-0.4,0.9-0.6c0.3-0.1,0.7-0.2,1.1-0.2
				c0.4,0,0.8,0.1,1.1,0.2c0.3,0.1,0.6,0.3,0.8,0.6c0.2,0.2,0.4,0.5,0.5,0.8c0.1,0.3,0.2,0.6,0.2,1c0,0.1,0,0.2,0,0.3
				c0,0.1,0,0.2,0,0.2h-4c0,0.2,0.1,0.4,0.1,0.6c0.1,0.2,0.2,0.3,0.3,0.4c0.1,0.1,0.3,0.2,0.4,0.3c0.2,0.1,0.3,0.1,0.5,0.1
				c0.3,0,0.5-0.1,0.7-0.2c0.2-0.1,0.4-0.3,0.5-0.5l1.1,0.3c-0.2,0.4-0.5,0.7-0.9,1c-0.4,0.2-0.9,0.4-1.5,0.4
				c-0.4,0-0.8-0.1-1.1-0.2c-0.3-0.1-0.6-0.3-0.9-0.6c-0.2-0.2-0.4-0.5-0.5-0.9C38,80.6,38,80.2,38,79.9z M39.4,79.3h2.7
				c0-0.4-0.2-0.7-0.4-0.9c-0.3-0.2-0.6-0.3-0.9-0.3c-0.2,0-0.3,0-0.5,0.1c-0.2,0.1-0.3,0.1-0.4,0.3c-0.1,0.1-0.2,0.2-0.3,0.4
				C39.4,79,39.4,79.2,39.4,79.3z"/>
			<path class="st1" d="M44.2,81.2v-6h1.3v5.6c0,0.2,0,0.3,0.1,0.4c0.1,0.1,0.2,0.2,0.4,0.2c0.1,0,0.2,0,0.3,0
				c0.1,0,0.2-0.1,0.3-0.1l0.2,1c-0.2,0.1-0.4,0.2-0.6,0.2c-0.2,0-0.5,0.1-0.6,0.1c-0.4,0-0.7-0.1-1-0.3
				C44.3,82,44.2,81.7,44.2,81.2z"/>
			<path class="st1" d="M47.4,76.5v-1.2h1.3v1.2H47.4z M47.4,82.4v-5.2h1.3v5.2H47.4z"/>
			<path class="st1" d="M49.4,77.3h1.4l1.3,4.1l1.3-4.1h1.2l-1.9,5.2h-1.4L49.4,77.3z"/>
			<path class="st1" d="M54.8,79.9c0-0.4,0.1-0.7,0.2-1c0.1-0.3,0.3-0.6,0.5-0.8c0.2-0.2,0.5-0.4,0.9-0.6c0.3-0.1,0.7-0.2,1.1-0.2
				c0.4,0,0.8,0.1,1.1,0.2c0.3,0.1,0.6,0.3,0.8,0.6c0.2,0.2,0.4,0.5,0.5,0.8c0.1,0.3,0.2,0.6,0.2,1c0,0.1,0,0.2,0,0.3
				c0,0.1,0,0.2,0,0.2h-4c0,0.2,0.1,0.4,0.1,0.6c0.1,0.2,0.2,0.3,0.3,0.4c0.1,0.1,0.3,0.2,0.4,0.3c0.2,0.1,0.3,0.1,0.5,0.1
				c0.3,0,0.5-0.1,0.7-0.2c0.2-0.1,0.4-0.3,0.5-0.5l1.1,0.3c-0.2,0.4-0.5,0.7-0.9,1c-0.4,0.2-0.9,0.4-1.5,0.4
				c-0.4,0-0.8-0.1-1.1-0.2c-0.3-0.1-0.6-0.3-0.9-0.6c-0.2-0.2-0.4-0.5-0.5-0.9C54.9,80.6,54.8,80.2,54.8,79.9z M56.2,79.3h2.7
				c0-0.4-0.2-0.7-0.4-0.9c-0.3-0.2-0.6-0.3-0.9-0.3c-0.2,0-0.3,0-0.5,0.1c-0.2,0.1-0.3,0.1-0.4,0.3c-0.1,0.1-0.2,0.2-0.3,0.4
				C56.2,79,56.2,79.2,56.2,79.3z"/>
			<path class="st1" d="M61,82.4v-5.2h1.2v1.1c0.1-0.2,0.2-0.3,0.3-0.5c0.1-0.1,0.3-0.3,0.4-0.4c0.1-0.1,0.3-0.2,0.4-0.2
				c0.1-0.1,0.3-0.1,0.4-0.1c0.1,0,0.1,0,0.2,0c0,0,0.1,0,0.1,0v1.2c-0.4,0-0.8,0.1-1.1,0.2c-0.3,0.2-0.5,0.4-0.7,0.7v3.1H61z"/>
			<path class="st1" d="M64.3,77.3h1.4l1.4,4l1.2-4h1.2l-2.2,6.2c-0.1,0.4-0.3,0.7-0.6,0.9c-0.3,0.2-0.7,0.3-1.1,0.3
				c-0.1,0-0.2,0-0.3,0c-0.1,0-0.2,0-0.3-0.1v-1.2c0.1,0,0.2,0.1,0.3,0.1c0.1,0,0.2,0,0.3,0c0.1,0,0.2,0,0.2,0
				c0.1,0,0.1-0.1,0.2-0.2c0.1-0.1,0.1-0.2,0.2-0.3c0.1-0.1,0.1-0.3,0.2-0.5L64.3,77.3z"/>
		</g>
	</g>
	<g>
		<g>
			<g>
				<g>
					<g>
						<polygon class="st2" points="50,68.6 30.7,57.5 30.7,34.2 32.9,34.2 32.9,56.3 50,66.1 67.1,56.3 67.1,34.2 69.3,34.2 
							69.3,57.5 						"/>
					</g>
					<g>
						<rect x="48.9" y="42.9" class="st2" width="2.2" height="23"/>
					</g>
					<g>
						<g>
							<polygon class="st3" points="69.1,32 50,43 58.5,47.9 77.6,36.9 							"/>
							<path class="st4" d="M69.1,33.4l6,3.4l-16.5,9.5l-6-3.4L69.1,33.4 M69.1,32L50,43l8.5,4.9l19.1-11L69.1,32L69.1,32z"/>
						</g>
						<g>
							<polygon class="st3" points="30.9,32 50,43 41.5,47.9 22.4,36.9 							"/>
							<path class="st4" d="M41.5,48.6L21.1,36.9l9.8-5.7L51.3,43L41.5,48.6z M23.7,36.9l17.8,10.2l7.2-4.2L30.9,32.7L23.7,36.9z"/>
						</g>
					</g>
					<g>
						<g>
							<polygon class="st3" points="30.9,31.9 50,21 41.5,16 22.4,27 							"/>
							<path class="st4" d="M30.9,32.7L21.1,27l20.3-11.7l9.8,5.7L30.9,32.7z M23.7,27l7.2,4.2L48.7,21l-7.2-4.2L23.7,27z"/>
						</g>
						<g>
							<polygon class="st3" points="69.1,31.9 50,21 58.5,16 77.6,27 							"/>
							<path class="st4" d="M69.1,32.7L48.7,21l9.8-5.7L78.9,27L69.1,32.7z M51.3,21l17.8,10.2l7.2-4.2L58.5,16.8L51.3,21z"/>
						</g>
					</g>
				</g>
			</g>
		</g>
	</g>
</g>
</svg>
