<?xml version="1.0" encoding="utf-8"?>
<!-- Generator: Adobe Illustrator 19.0.0, SVG Export Plug-In . SVG Version: 6.00 Build 0)  -->
<svg version="1.1" id="Layer_1" xmlns="http://www.w3.org/2000/svg" xmlns:xlink="http://www.w3.org/1999/xlink" x="0px" y="0px"
	 viewBox="246 287 1103 220" style="enable-background:new 246 287 1103 220;" xml:space="preserve">
<style type="text/css">
	.st0{fill:#414044;}
</style>
<g transform="translate(0.000000,220.000000) scale(0.100000,-0.100000)">
	<path class="st0" d="M12066-704c-44-16-90-57-114-101c-15-27-17-113-20-925c-2-492,0-914,3-936c22-153,201-224,317-126
		c65,55,68,70,68,437c0,358,5,404,55,489c39,66,104,125,175,160c59,28,74,31,165,31c89,0,106-3,157-28c127-63,219-187,225-306
		c1-31,4-198,6-371c3-263,6-320,19-345c35-65,113-115,181-115c46,0,115,38,151,83l31,39l3,380c3,356,1,386-18,462
		c-69,274-267,482-540,567c-64,20-96,24-215,24c-150,0-230-17-337-71c-26-13-50-24-53-24s-5,121-5,268c0,258-1,269-22,312
		C12255-716,12151-673,12066-704z"/>
	<path class="st0" d="M7415-904c-38-17-90-72-104-109c-6-16-11-82-11-147v-118l-108-4c-95-3-113-6-144-27c-107-74-121-217-30-302
		c49-46,93-59,200-59h82v-330c0-361,4-398,55-505c79-164,230-284,404-321c98-20,246-18,296,5c76,35,115,95,115,176
		c0,55-14,92-48,129c-45,48-96,66-192,66c-101,0-156,22-204,83l-31,39l-3,328l-3,328l173,4c195,3,214,9,272,81c28,35,31,45,31,111
		c0,82-21,124-83,167c-34,23-44,24-213,27l-177,3l-4,124c-4,115-6,126-33,171C7604-902,7498-867,7415-904z"/>
	<path class="st0" d="M4585-1226c-5-1-27-5-48-9c-47-8-113-65-138-120c-24-51-24-129,0-180c18-39,82-105,102-105c6,0,2-15-9-32
		c-34-56-71-174-82-260c-13-104-13-682,0-727c51-178,286-202,361-36c17,36,19,71,19,370c0,262,3,343,15,389c43,166,181,281,354,296
		c87,8,125,24,169,74c112,128,17,316-159,316c-112,0-184-19-364-95c-5-2-22,13-37,35s-44,48-65,58C4666-1233,4605-1220,4585-1226z"
		/>
	<path class="st0" d="M3095-1247c-195-41-370-160-478-327c-103-156-132-255-132-441c0-108,4-143,24-205c83-267,284-467,546-542
		c65-18,104-23,205-22c139,0,213,15,319,64l64,30l34-40c53-62,102-83,182-78c54,3,74,9,108,33c65,47,87,87,91,166
		c5,86-21,148-79,186c-22,14-39,27-39,30c0,2,8,20,19,41c40,79,72,206,78,307c22,379-244,722-619,799C3323-1226,3188-1227,3095-1247
		z M3425-1656c81-40,149-109,188-191c29-62,32-77,32-163c0-85-3-102-31-160c-39-83-111-155-194-194c-58-28-75-31-160-31
		s-102,3-160,31c-83,39-155,111-194,194c-28,58-31,75-31,160c0,86,3,101,32,163c37,78,106,151,178,186c70,35,100,41,195,37
		C3350-1627,3377-1633,3425-1656z"/>
	<path class="st0" d="M6079-1265c-187-42-361-155-465-301c-211-296-203-671,20-950c100-125,246-222,401-266c64-18,105-22,205-22
		c141,0,232,20,343,75c83,42,198,130,232,179c67,97,29,232-80,281c-77,35-154,19-228-47c-22-20-69-50-106-68c-60-28-75-31-161-31
		s-101,3-160,31c-84,40-155,111-194,194c-28,58-31,75-31,160c0,86,3,101,32,163c39,82,107,151,189,192c54,27,68,30,164,30
		c94,0,111-3,163-27c32-15,81-48,109-73c29-26,67-49,91-56c151-41,288,110,233,256c-38,97-221,221-401,272
		C6359-1252,6158-1247,6079-1265z"/>
	<path class="st0" d="M8989-1286c-199-43-374-162-482-328c-103-156-132-255-132-441c0-108,4-143,24-205c66-212,199-375,391-479
		c126-67,198-83,410-88c181-5,186-4,230,19c98,53,136,167,88,258c-14,25-44,59-67,75c-43,30-43,30-219,35c-171,5-179,7-242,36
		c-61,29-148,102-171,145c-9,19,1,19,475,19c318,0,494,4,513,11c40,15,82,57,104,104c51,111-5,351-124,523
		C9612-1349,9290-1221,8989-1286z M9273-1679c31-11,77-34,101-50c43-30,106-97,106-113c0-5-148-8-330-8c-227,0-330,3-330,11
		c0,6,24,34,53,63c51,51,120,92,181,107C9115-1655,9215-1660,9273-1679z"/>
	<path class="st0" d="M10745-1286c-198-44-370-162-478-328c-103-156-132-255-132-441c0-108,4-143,24-205c83-267,284-467,546-542
		c113-32,295-32,409,0c146,42,308,144,372,234c66,93,27,230-81,279c-77,35-154,19-228-47c-22-20-69-50-106-68c-60-28-75-31-161-31
		c-85,0-102,3-160,31c-83,39-155,111-194,194c-28,58-31,75-31,160c0,86,3,101,32,163c39,82,107,151,189,192c54,27,68,30,164,30
		c94,0,111-3,163-27c32-15,81-48,109-73c29-26,67-49,91-56c159-43,300,127,225,271c-46,90-233,214-383,255
		C11028-1271,10832-1267,10745-1286z"/>
</g>
</svg>
