<?xml version="1.0" encoding="utf-8"?>
<!-- Generator: Adobe Illustrator 19.2.1, SVG Export Plug-In . SVG Version: 6.00 Build 0)  -->
<svg version="1.1" id="Layer_1" xmlns="http://www.w3.org/2000/svg" xmlns:xlink="http://www.w3.org/1999/xlink" x="0px" y="0px"
	 viewBox="0 0 261.3 200.2" style="enable-background:new 0 0 261.3 200.2;" xml:space="preserve">
<style type="text/css">
	.st0{opacity:0.6;fill:#FFFFFF;}
	.st1{fill:#FFFFFF;}
</style>
<g>
	<g>
		<path class="st0" d="M4.7,193.3c-0.5-0.2-1.1-0.4-1.7-0.4c-0.6,0-1.3,0.2-1.3,1.2c0,1.4,3.6,0.8,3.6,3.6c0,1.8-1.4,2.5-3.1,2.5
			c-0.9,0-1.3-0.1-2.1-0.3l0.2-1.5c0.6,0.3,1.2,0.5,1.9,0.5c0.6,0,1.5-0.3,1.5-1.1c0-1.6-3.6-0.9-3.6-3.7c0-1.9,1.4-2.5,2.9-2.5
			c0.7,0,1.4,0.1,2,0.3"/>
		<polyline class="st0" points="9.7,196.8 6.6,191.8 8.6,191.8 10.5,195.2 12.5,191.8 14.3,191.8 11.3,196.8 11.3,200.1 9.7,200.1 
					"/>
		<path class="st0" d="M16,191.8h2.3c2.5,0,4.8,0.9,4.8,4.1c0,3.3-2.2,4.1-4.8,4.1H16 M17.6,198.7h0.9c1.4,0,2.7-1,2.7-2.8
			c0-1.8-1.3-2.8-2.7-2.8h-0.9V198.7z"/>
		<polyline class="st0" points="25,191.8 27.1,191.8 30.2,198 30.3,198 30.3,191.8 31.9,191.8 31.9,200.1 29.8,200.1 26.7,193.9 
			26.6,193.9 26.6,200.1 25,200.1 		"/>
		<polyline class="st0" points="34.3,191.8 39.2,191.8 39.2,193.1 35.9,193.1 35.9,195.1 38.9,195.1 38.9,196.4 35.9,196.4 
			35.9,198.7 39.2,198.7 39.2,200.1 34.3,200.1 		"/>
		<polyline class="st0" points="43.7,196.8 40.6,191.8 42.6,191.8 44.5,195.2 46.5,191.8 48.3,191.8 45.3,196.8 45.3,200.1 
			43.7,200.1 		"/>
		<polyline class="st0" points="50.2,191.8 51.9,191.8 50.8,194.7 49.4,194.7 		"/>
		<path class="st0" d="M58.3,193.3c-0.5-0.2-1.1-0.4-1.7-0.4c-0.6,0-1.3,0.2-1.3,1.2c0,1.4,3.6,0.8,3.6,3.6c0,1.8-1.4,2.5-3.1,2.5
			c-0.9,0-1.3-0.1-2.1-0.3l0.2-1.5c0.6,0.3,1.2,0.5,1.9,0.5c0.6,0,1.5-0.3,1.5-1.1c0-1.6-3.6-0.9-3.6-3.7c0-1.9,1.4-2.5,2.9-2.5
			c0.7,0,1.4,0.1,2,0.3"/>
		<path class="st0" d="M64.8,191.8h2.1c1.8,0,3.5,0.5,3.5,2.5c0,1.9-1.4,2.6-3.2,2.6h-0.7v3.1h-1.7 M66.4,195.6H67
			c0.8,0,1.6-0.3,1.6-1.2c0-1-0.7-1.3-1.6-1.3h-0.6V195.6z"/>
		<path class="st0" d="M72,191.8h1.8c1.8,0,3.9-0.1,3.9,2.2c0,1-0.7,1.8-1.7,1.9v0c0.5,0,0.7,0.5,0.9,0.9l1.3,3.2h-1.9l-1-2.6
			c-0.2-0.6-0.5-0.9-1.2-0.9h-0.5v3.4H72 M73.6,195.3h0.5c0.8,0,1.8-0.1,1.8-1.2c0-1-0.9-1.1-1.8-1.1h-0.5V195.3z"/>
		<polyline class="st0" points="79.9,191.8 84.8,191.8 84.8,193.1 81.6,193.1 81.6,195.1 84.6,195.1 84.6,196.4 81.6,196.4 
			81.6,198.7 84.8,198.7 84.8,200.1 79.9,200.1 		"/>
		<polyline class="st0" points="87.1,191.8 89.8,191.8 91.7,198 91.8,198 93.7,191.8 96.4,191.8 96.4,200.1 94.8,200.1 94.8,193.2 
			94.8,193.2 92.6,200.1 91,200.1 88.7,193.2 88.7,193.2 88.7,200.1 87.1,200.1 		"/>
		<rect x="98.8" y="191.8" class="st0" width="1.7" height="8.3"/>
		<polyline class="st0" points="102.8,191.8 107.7,191.8 107.7,193.1 104.5,193.1 104.5,195.1 107.4,195.1 107.4,196.4 104.5,196.4 
			104.5,198.7 107.7,198.7 107.7,200.1 102.8,200.1 		"/>
		<path class="st0" d="M109.8,191.8h1.8c1.8,0,3.9-0.1,3.9,2.2c0,1-0.7,1.8-1.7,1.9v0c0.5,0,0.7,0.5,0.9,0.9l1.3,3.2h-1.9l-1-2.6
			c-0.2-0.6-0.5-0.9-1.2-0.9h-0.5v3.4h-1.7 M111.5,195.3h0.5c0.8,0,1.8-0.1,1.8-1.2c0-1-0.9-1.1-1.8-1.1h-0.5V195.3z"/>
		<rect x="121.5" y="191.8" class="st0" width="1.7" height="8.3"/>
		<polyline class="st0" points="125.5,191.8 127.5,191.8 130.7,198 130.7,198 130.7,191.8 132.3,191.8 132.3,200.1 130.3,200.1 
			127.1,193.9 127.1,193.9 127.1,200.1 125.5,200.1 		"/>
		<path class="st0" d="M134.7,191.8h2.3c2.5,0,4.8,0.9,4.8,4.1c0,3.3-2.2,4.1-4.8,4.1h-2.3 M136.4,198.7h0.9c1.4,0,2.7-1,2.7-2.8
			c0-1.8-1.3-2.8-2.7-2.8h-0.9V198.7z"/>
		<path class="st0" d="M147.5,191.6c2.6,0,4.1,1.8,4.1,4.3c0,2.5-1.4,4.3-4.1,4.3c-2.7,0-4.1-1.8-4.1-4.3
			C143.5,193.3,144.9,191.6,147.5,191.6 M147.5,198.9c1.7,0,2.3-1.5,2.3-3c0-1.5-0.7-3-2.3-3c-1.7,0-2.3,1.5-2.3,3
			C145.2,197.4,145.8,198.9,147.5,198.9z"/>
		<path class="st0" d="M157.4,191.6c2.6,0,4.1,1.8,4.1,4.3c0,2.5-1.4,4.3-4.1,4.3c-2.7,0-4.1-1.8-4.1-4.3
			C153.3,193.3,154.7,191.6,157.4,191.6 M157.4,198.9c1.7,0,2.3-1.5,2.3-3c0-1.5-0.7-3-2.3-3c-1.7,0-2.3,1.5-2.3,3
			C155,197.4,155.7,198.9,157.4,198.9z"/>
		<path class="st0" d="M163.4,191.8h1.8c1.8,0,3.9-0.1,3.9,2.2c0,1-0.7,1.8-1.7,1.9v0c0.5,0,0.7,0.5,0.9,0.9l1.3,3.2h-1.9l-1-2.6
			c-0.2-0.6-0.5-0.9-1.2-0.9H165v3.4h-1.7 M165,195.3h0.5c0.8,0,1.8-0.1,1.8-1.2c0-1-0.9-1.1-1.8-1.1H165V195.3z"/>
		<path class="st0" d="M181.3,199.9c-0.6,0.1-1.3,0.3-1.9,0.3c-2.7,0-4.5-1.3-4.5-4.1c0-2.8,1.7-4.4,4.5-4.4c0.5,0,1.3,0.1,1.9,0.3
			l-0.1,1.4c-0.6-0.4-1.2-0.4-1.8-0.4c-1.7,0-2.8,1.3-2.8,3c0,1.7,1,3,2.8,3c0.7,0,1.4-0.1,1.8-0.3"/>
		<polyline class="st0" points="185.3,196.8 182.2,191.8 184.2,191.8 186.1,195.2 188.1,191.8 189.9,191.8 186.9,196.8 186.9,200.1 
			185.3,200.1 		"/>
		<path class="st0" d="M197.6,199.9c-0.6,0.1-1.3,0.3-1.9,0.3c-2.7,0-4.5-1.3-4.5-4.1c0-2.8,1.7-4.4,4.5-4.4c0.5,0,1.3,0.1,1.9,0.3
			l-0.1,1.4c-0.6-0.4-1.2-0.4-1.8-0.4c-1.7,0-2.8,1.3-2.8,3c0,1.7,1,3,2.8,3c0.7,0,1.4-0.1,1.8-0.3"/>
		<polyline class="st0" points="199.4,191.8 201.1,191.8 201.1,198.7 204.3,198.7 204.3,200.1 199.4,200.1 		"/>
		<polyline class="st0" points="205.9,191.8 210.8,191.8 210.8,193.1 207.6,193.1 207.6,195.1 210.6,195.1 210.6,196.4 207.6,196.4 
			207.6,198.7 210.9,198.7 210.9,200.1 205.9,200.1 		"/>
		<path class="st0" d="M221.4,193.3c-0.5-0.2-1.1-0.4-1.7-0.4c-0.6,0-1.3,0.2-1.3,1.2c0,1.4,3.6,0.8,3.6,3.6c0,1.8-1.4,2.5-3.1,2.5
			c-0.9,0-1.3-0.1-2.1-0.3l0.2-1.5c0.6,0.3,1.2,0.5,1.9,0.5c0.6,0,1.5-0.3,1.5-1.1c0-1.6-3.6-0.9-3.6-3.7c0-1.9,1.4-2.5,2.9-2.5
			c0.7,0,1.4,0.1,2,0.3"/>
		<polyline class="st0" points="225.7,193.1 223.3,193.1 223.3,191.8 229.7,191.8 229.7,193.1 227.3,193.1 227.3,200.1 225.7,200.1 
					"/>
		<path class="st0" d="M231.3,191.8h1.7v4.8c0,1.4,0.5,2.3,1.7,2.3c1.3,0,1.7-0.9,1.7-2.3v-4.8h1.7v5.3c0,2.2-1.3,3.1-3.4,3.1
			c-2.1,0-3.4-0.9-3.4-3.1"/>
		<path class="st0" d="M240.5,191.8h2.3c2.5,0,4.8,0.9,4.8,4.1c0,3.3-2.2,4.1-4.8,4.1h-2.3 M242.2,198.7h0.9c1.4,0,2.7-1,2.7-2.8
			c0-1.8-1.3-2.8-2.7-2.8h-0.9V198.7z"/>
		<rect x="249.5" y="191.8" class="st0" width="1.7" height="8.3"/>
		<path class="st0" d="M257.2,191.6c2.6,0,4.1,1.8,4.1,4.3c0,2.5-1.4,4.3-4.1,4.3c-2.7,0-4.1-1.8-4.1-4.3
			C253.2,193.3,254.6,191.6,257.2,191.6 M257.2,198.9c1.7,0,2.3-1.5,2.3-3c0-1.5-0.7-3-2.3-3c-1.7,0-2.3,1.5-2.3,3
			C254.9,197.4,255.5,198.9,257.2,198.9z"/>
		<path class="st1" d="M1.8,154.4h5.9c4.6,0,8.5,1.6,8.5,6.8c0,5-3.9,6.8-8,6.8H5.1v9.1H1.8 M5.1,165.1h3.2c2,0,4.5-1,4.5-4
			c0-2.9-3-3.9-5-3.9H5.1V165.1z"/>
		<polyline class="st1" points="34.8,154.4 47.5,154.4 47.5,157.2 38.1,157.2 38.1,163.9 46.7,163.9 46.7,166.7 38.1,166.7 
			38.1,174.2 47.5,174.2 47.5,177.1 34.8,177.1 		"/>
		<polyline class="st1" points="67.3,154.4 70.5,154.4 70.5,174.2 80,174.2 80,177.1 67.3,177.1 		"/>
		<path class="st1" d="M105.7,154c6.9,0,10.9,5,10.9,11.7c0,6.9-4,11.7-10.9,11.7c-6.9,0-10.9-4.8-10.9-11.7
			C94.7,159,98.8,154,105.7,154 M105.7,174.6c5.2,0,7.5-4.4,7.5-8.9c0-4.6-2.5-8.9-7.5-8.9c-5,0-7.5,4.3-7.5,8.9
			C98.2,170.2,100.4,174.6,105.7,174.6z"/>
		<polyline class="st1" points="139.3,157.2 132.3,157.2 132.3,154.4 149.6,154.4 149.6,157.2 142.6,157.2 142.6,177.1 139.3,177.1 
					"/>
		<path class="st1" d="M176.7,154c6.9,0,10.9,5,10.9,11.7c0,6.9-4,11.7-10.9,11.7c-6.9,0-10.9-4.8-10.9-11.7
			C165.8,159,169.8,154,176.7,154 M176.7,174.6c5.2,0,7.5-4.4,7.5-8.9c0-4.6-2.5-8.9-7.5-8.9c-5,0-7.5,4.3-7.5,8.9
			C169.2,170.2,171.5,174.6,176.7,174.6z"/>
		<polyline class="st1" points="206.8,154.4 211.2,154.4 221.2,172.6 221.3,172.6 221.3,154.4 224.5,154.4 224.5,177.1 220.3,177.1 
			210.1,158.4 210,158.4 210,177.1 206.8,177.1 		"/>
		<polyline class="st1" points="245,154.4 257.7,154.4 257.7,157.2 248.3,157.2 248.3,163.9 256.9,163.9 256.9,166.7 248.3,166.7 
			248.3,174.2 257.7,174.2 257.7,177.1 245,177.1 		"/>
	</g>
	<path class="st0" d="M145.8,0c-19.5,0.1-42.1,13.5-52.2,25.5c11.4-7.4,24.6-18.9,50.5-19.3c27.2-0.4,40.8,24.1,33.3,51
		c-7.5,26.9-34.9,48.8-61.2,49c-11.5,0-21.2-3.7-27.6-10.1c4.2,2.9,9.6,4.5,16.1,4.5c0.6,0,1.3,0,1.9,0c7.4-0.4,15.2-2.7,22.6-6.5
		c7.6-3.9,14.9-9.4,21-15.8c2.2-2.3,4.3-4.8,6.2-7.4c8.5-10.1,15.8-26.3,11.7-39.5C156.2-7.4,91.7,19.3,77.4,58.7
		c-12.4,34,5.6,56.1,36.5,56c30.9-0.1,62.8-22.8,71.9-57.6C194.1,25.6,176.7-0.1,145.8,0 M88.8,93.5c-3.7-3-6.1-7.2-7.1-12.3
		c8.7-4.5,15.6-8,20.8-10.4c4-1.8,7-3,9.2-3.5c-1,1.7-2.6,3.9-4.9,6.5C102.8,78.8,96.7,85.2,88.8,93.5z M81.3,76.4
		c0-4.5,1-9.4,3.1-14.7c7-0.3,12.7-0.6,17.2-0.6c4.1,0,7.2,0.2,9.1,0.8c0.2,0.1,0.4,0.1,0.5,0.2c-1.2,1.1-2.8,2.3-4.9,3.6
		c-5.4,3.4-13.5,7.7-24.9,13.5C81.3,78.2,81.3,77.3,81.3,76.4z M142,19.2c5.7,0,10.5,1.3,14.2,3.7c-8.3,8.7-14.5,15.2-19.2,19.6
		c-2.4,2.2-4.5,3.9-6.1,5c0.3-4.2,3.6-12.6,8.9-25.5c0.2-0.5,0.4-1.1,0.7-1.6c0.1-0.3,0.3-0.7,0.4-1.1
		C141.2,19.3,141.6,19.2,142,19.2z M133.7,54.4c-0.1-0.2-0.1-0.5-0.1-0.7c0-0.3,0.1-0.7,0.2-1.1c0.9-0.1,1.9-0.3,3.1-0.7
		C135.6,52.8,134.6,53.6,133.7,54.4z M126.5,64.6c-1.8,0.2-3.4,1-4.9,2.4c-0.6-0.2-1.2-0.4-1.8-0.4c0,0,0,0,0,0
		c-0.8,0-1.5,0.2-2.3,0.5c-0.1-0.3-0.3-0.6-0.5-0.9c-0.5-0.6-1.2-0.9-2-1c0.1-0.4,0.1-0.8,0.2-1.2c0-0.9-0.3-1.6-0.8-2.3
		c1.2-1.4,1.8-2.9,1.8-4.5c0,0,0,0,0,0c1.5-0.9,2.7-2,3.6-3.4c0.1-0.2,0.3-0.5,0.4-0.7c1.8-0.2,3.4-1,4.9-2.4
		c0.6,0.3,1.2,0.4,1.9,0.4c0.8,0,1.5-0.2,2.3-0.5c0.1,0.3,0.3,0.6,0.5,0.8c0.5,0.6,1.2,0.9,2,1c-0.1,0.4-0.1,0.8-0.2,1.2
		c0,0.9,0.3,1.6,0.8,2.3c-1.2,1.4-1.8,2.9-1.8,4.5c0,0,0,0,0,0c-1.5,0.9-2.7,2-3.6,3.4C126.8,64.1,126.6,64.4,126.5,64.6z
		 M132.4,50.5c-0.6-0.1-0.9-0.2-1.1-0.5c-0.1-0.1-0.1-0.2-0.2-0.3c0.9-0.5,2-1.2,3.1-2.1C133.4,48.7,132.8,49.7,132.4,50.5z
		 M128.7,48.6c-0.7,0.3-1.4,0.5-1.9,0.4c-0.1,0-0.2,0-0.3,0c0.8-1,1.6-2.2,2.4-3.5c-0.2,1-0.3,1.9-0.3,2.7
		C128.7,48.3,128.7,48.5,128.7,48.6z M112.7,60.4c-0.4-0.2-0.9-0.4-1.5-0.6c-0.5-0.1-1-0.3-1.5-0.4c1.3-0.3,2.5-0.6,3.6-1
		c0.2-0.1,0.4-0.2,0.6-0.2C113.8,59,113.4,59.7,112.7,60.4z M112.9,63.3c0.1,0.2,0.1,0.5,0.1,0.7c0,0.3-0.1,0.7-0.2,1.1
		c-0.9,0.1-1.9,0.3-3.1,0.7C111,64.9,112,64.1,112.9,63.3z M115.7,55.1c-0.4-1.1-1.1-2.1-2-3.2c1.4,0.6,2.7,1,4,1.2
		C117.2,53.9,116.6,54.5,115.7,55.1z M121,50.8c0.3-1.3,0.5-2.7,0.6-4.3c0.4,1,0.9,1.9,1.5,2.6c0.1,0.1,0.2,0.2,0.3,0.3
		C122.5,50.1,121.8,50.5,121,50.8z M134.9,50.3c1-1.7,2.6-3.9,4.9-6.5c4.1-4.8,10.2-11.2,18.1-19.6c3.7,3,6.2,7.1,7.2,12.2
		c-8.8,4.5-15.7,8-21,10.5C140.1,48.7,137,49.8,134.9,50.3z M127.6,43.7c-1,1.7-2,3.1-2.9,4.2c0,0-0.1-0.1-0.1-0.1
		c-2-2.4-3.3-9-4.9-19.3c-0.2-1-0.3-2.1-0.5-3.2c6.4-3.2,13-5.2,19.3-5.8C133.9,30.7,130.6,38.6,127.6,43.7z M119.5,45.4
		c0,2.3-0.3,4.2-0.8,5.7c-3.8-0.1-9.2-3.6-17.7-9.6c-0.7-0.5-1.3-1-2-1.5c5.4-5.5,11.7-10.2,18.3-13.8
		C118.6,34.6,119.5,40.9,119.5,45.4z M97.6,41.5c5.3,3.8,9.5,6.8,12.3,9.3c2.3,2.1,3.6,3.8,4.1,5.2c-1.6,0.7-3.5,1.2-6,1.7
		c-5.2,0.9-12.6,1.3-22.6,1.8C88.2,53.1,92.5,47,97.6,41.5z M114.2,67.2c0.6,0.1,0.9,0.2,1.1,0.5c0.1,0.1,0.1,0.2,0.2,0.3
		c-1,0.5-2,1.2-3.1,2.1C113.3,69,113.8,68.1,114.2,67.2z M117.9,69.1c0.7-0.3,1.4-0.5,1.9-0.4c0.1,0,0.2,0,0.3,0
		c-0.8,1-1.6,2.2-2.4,3.5c0.2-1,0.3-1.9,0.3-2.7C117.9,69.4,117.9,69.3,117.9,69.1z M119,74c1-1.7,2-3.1,2.9-4.2
		c0,0,0.1,0.1,0.1,0.1c2,2.4,3.3,9.1,4.9,19.5c0.2,1,0.3,2.1,0.5,3.2c-6.4,3.2-13.1,5.2-19.4,5.7C112.7,87.1,116,79.1,119,74z
		 M125.1,71.2c-0.4-1-0.9-1.9-1.5-2.6c-0.1-0.1-0.2-0.2-0.3-0.4c0.8-0.7,1.5-1.1,2.3-1.4C125.3,68.2,125.1,69.6,125.1,71.2z
		 M130.9,62.6c0.4,1.1,1.1,2.1,2,3.2c-1.4-0.6-2.7-1-4-1.2C129.4,63.9,130.1,63.2,130.9,62.6z M133.9,57.3c0.4,0.2,0.9,0.4,1.5,0.6
		c0.5,0.1,1,0.3,1.5,0.4c-1.3,0.3-2.5,0.6-3.6,1c-0.2,0.1-0.4,0.2-0.6,0.2C132.9,58.7,133.2,58,133.9,57.3z M135.9,55.9
		c-0.2-0.1-0.4-0.1-0.5-0.2c1.2-1.1,2.8-2.3,4.9-3.6c5.4-3.4,13.6-7.7,25-13.5c0.1,0.9,0.2,1.9,0.2,2.9c0,4.4-1,9.4-3.1,14.7
		c-7.1,0.3-12.9,0.6-17.4,0.6C140.9,56.7,137.8,56.4,135.9,55.9z M90.5,94.8c8.3-8.7,14.5-15.2,19.2-19.6c2.4-2.2,4.5-3.9,6.1-5
		c-0.3,4.1-3.5,12.3-8.6,24.7c-0.5,1.2-1,2.4-1.5,3.6c-0.3,0-0.7,0-1,0C99,98.5,94.2,97.2,90.5,94.8z M129.4,91.6
		c-1.3-8.5-2.3-14.8-2.3-19.3c0-2.4,0.3-4.2,0.8-5.7c3.8,0.1,9.3,3.6,17.8,9.7c0.7,0.5,1.4,1,2.1,1.5
		C142.3,83.3,136,88.1,129.4,91.6z M149.2,76.3c-5.4-3.9-9.6-6.9-12.4-9.5c-2.3-2.1-3.6-3.8-4.1-5.2c1.6-0.7,3.5-1.2,6-1.7
		c5.3-0.9,12.7-1.3,22.8-1.8C158.6,64.6,154.3,70.8,149.2,76.3z"/>
</g>
</svg>
