<?xml version="1.0" encoding="utf-8"?>
<!-- Generator: Adobe Illustrator 18.0.0, SVG Export Plug-In . SVG Version: 6.00 Build 0)  -->
<!DOCTYPE svg PUBLIC "-//W3C//DTD SVG 1.1//EN" "http://www.w3.org/Graphics/SVG/1.1/DTD/svg11.dtd">
<svg version="1.1" id="Layer_1" xmlns="http://www.w3.org/2000/svg" xmlns:xlink="http://www.w3.org/1999/xlink" x="0px" y="0px"
	 viewBox="0 0 195 70" enable-background="new 0 0 195 70" xml:space="preserve">
<g>
	<g>
		<path fill="#FFFFFF" d="M77.7,34.2c-0.5-0.4-1.2-0.6-1.9-0.8c-0.8-0.2-1.5-0.2-2.4-0.2c-0.5,0-0.9,0.1-1.3,0.2
			c-0.4,0.1-0.7,0.2-1,0.4c-0.3,0.2-0.5,0.4-0.7,0.7c-0.2,0.3-0.2,0.6-0.2,0.9c0,0.4,0.1,0.7,0.3,0.9c0.2,0.2,0.4,0.5,0.7,0.7
			c0.3,0.2,0.6,0.4,1,0.5c0.4,0.1,0.8,0.3,1.2,0.4c0.4,0.1,0.8,0.2,1.3,0.4c0.5,0.1,0.9,0.3,1.4,0.5c0.4,0.2,0.9,0.4,1.3,0.6
			c0.4,0.2,0.8,0.5,1.1,0.8c0.3,0.3,0.6,0.7,0.7,1.1c0.2,0.4,0.3,0.9,0.3,1.5c0,0.8-0.2,1.5-0.5,2c-0.4,0.6-0.8,1.1-1.4,1.4
			c-0.6,0.4-1.3,0.7-2,0.9c-0.8,0.2-1.5,0.3-2.3,0.3c-0.5,0-1.1,0-1.6-0.1c-0.5-0.1-1-0.2-1.5-0.3c-0.5-0.1-0.9-0.3-1.3-0.5
			c-0.4-0.2-0.8-0.5-1-0.8l0.7-2c0.3,0.3,0.6,0.6,0.9,0.8c0.4,0.2,0.7,0.4,1.2,0.6c0.4,0.1,0.8,0.3,1.3,0.3c0.4,0.1,0.9,0.1,1.3,0.1
			c0.6,0,1.1-0.1,1.5-0.2c0.5-0.1,0.9-0.3,1.2-0.5c0.3-0.2,0.6-0.5,0.8-0.8c0.2-0.3,0.3-0.7,0.3-1.1c0-0.5-0.1-0.8-0.3-1.1
			c-0.2-0.3-0.5-0.5-0.9-0.7c-0.4-0.2-0.9-0.4-1.4-0.5s-1.1-0.3-1.8-0.5c-0.8-0.2-1.4-0.5-2-0.8c-0.6-0.3-1.1-0.6-1.5-0.9
			c-0.4-0.4-0.7-0.8-1-1.2c-0.2-0.5-0.3-1-0.3-1.7c0-0.7,0.2-1.3,0.5-1.9c0.3-0.5,0.8-1,1.3-1.3c0.5-0.3,1.1-0.6,1.8-0.8
			c0.7-0.2,1.4-0.3,2.1-0.3c1,0,2,0.1,2.9,0.3c0.9,0.2,1.6,0.5,2.2,1L77.7,34.2z"/>
		<path fill="#FFFFFF" d="M93.1,34.9c-0.5-0.6-1.1-1-1.8-1.3c-0.7-0.3-1.4-0.4-2.2-0.4c-0.8,0-1.6,0.2-2.2,0.5
			c-0.7,0.3-1.2,0.8-1.7,1.3c-0.5,0.6-0.8,1.2-1,2c-0.2,0.7-0.4,1.5-0.4,2.4c0,0.8,0.1,1.6,0.3,2.4c0.2,0.7,0.5,1.4,1,1.9
			c0.4,0.5,1,1,1.6,1.3c0.7,0.3,1.4,0.5,2.3,0.5c1.7,0,3.2-0.6,4.5-1.7l0.7,2.1c-0.7,0.6-1.5,1-2.4,1.3c-0.9,0.3-1.9,0.4-3,0.4
			c-1.3,0-2.4-0.2-3.3-0.6c-1-0.4-1.8-1-2.4-1.7c-0.6-0.7-1.1-1.6-1.4-2.5c-0.3-1-0.5-2-0.5-3.1c0-1.1,0.2-2.2,0.5-3.2
			c0.3-1,0.8-1.9,1.5-2.6s1.4-1.3,2.4-1.8c1-0.4,2-0.7,3.3-0.7c1.2,0,2.3,0.2,3.2,0.6c0.9,0.4,1.6,0.9,2.1,1.6L93.1,34.9z"/>
		<path fill="#FFFFFF" d="M99.5,47H97V35.3c0-0.6,0-1.3,0-1.9c0-0.6,0-1.2-0.1-1.8h2.5l0.1,2.3c0.4-0.9,1-1.5,1.7-2
			c0.7-0.5,1.5-0.7,2.4-0.7c0.6,0,1.1,0.1,1.6,0.2l0,2.3c-0.2-0.1-0.5-0.2-0.8-0.3c-0.3-0.1-0.6-0.1-1-0.1c-0.6,0-1.2,0.1-1.7,0.4
			c-0.5,0.2-0.9,0.6-1.3,1c-0.4,0.4-0.6,1-0.8,1.6c-0.2,0.6-0.3,1.3-0.3,2.1V47z"/>
		<path fill="#FFFFFF" d="M107,31.6h2.5V47H107V31.6z M109.4,25v2.3h-2.3V25H109.4z"/>
		<path fill="#FFFFFF" d="M115.7,47h-2.5c0-0.7,0-1.3,0-1.8c0-0.2,0-0.5,0-0.7c0-0.2,0-0.5,0-0.7c0-0.2,0-0.4,0-0.5
			c0-0.1,0-0.3,0-0.3V24.6h2.5v9.2c0.6-0.9,1.4-1.5,2.4-1.9c1-0.4,2-0.6,3.1-0.6c1.2,0,2.2,0.2,3.1,0.6c0.9,0.4,1.5,1,2.1,1.7
			s0.9,1.6,1.2,2.5c0.3,1,0.4,2,0.4,3c0,1.1-0.1,2.2-0.4,3.2c-0.3,1-0.7,1.9-1.3,2.6c-0.6,0.7-1.3,1.3-2.2,1.8
			c-0.9,0.4-1.9,0.7-3.1,0.7c-1.1,0-2.1-0.2-2.9-0.6c-0.9-0.4-1.6-1-2.3-1.8L115.7,47z M125.5,38.7c0-0.8-0.1-1.5-0.3-2.1
			c-0.2-0.7-0.5-1.3-1-1.7c-0.4-0.5-0.9-0.9-1.5-1.2c-0.6-0.3-1.3-0.4-2-0.4c-0.8,0-1.5,0.2-2.1,0.5c-0.6,0.3-1.1,0.8-1.5,1.3
			c-0.4,0.6-0.7,1.2-0.9,1.9c-0.2,0.7-0.3,1.5-0.3,2.3c0,0.9,0.1,1.7,0.2,2.4c0.2,0.7,0.4,1.3,0.8,1.8c0.4,0.5,0.9,0.9,1.5,1.1
			c0.6,0.3,1.4,0.4,2.3,0.4c0.9,0,1.7-0.2,2.3-0.5c0.6-0.4,1.1-0.8,1.5-1.4c0.4-0.6,0.6-1.2,0.8-2C125.4,40.3,125.5,39.5,125.5,38.7
			z"/>
		<path fill="#FFFFFF" d="M133.2,47h-2.5c0-0.7,0-1.3,0-1.8c0-0.2,0-0.5,0-0.7c0-0.2,0-0.5,0-0.7c0-0.2,0-0.4,0-0.5
			c0-0.1,0-0.3,0-0.3V24.6h2.5v9.2c0.6-0.9,1.4-1.5,2.4-1.9c1-0.4,2-0.6,3.1-0.6c1.2,0,2.2,0.2,3.1,0.6c0.9,0.4,1.5,1,2.1,1.7
			c0.5,0.7,0.9,1.6,1.2,2.5c0.3,1,0.4,2,0.4,3c0,1.1-0.1,2.2-0.4,3.2c-0.3,1-0.7,1.9-1.3,2.6c-0.6,0.7-1.3,1.3-2.2,1.8
			c-0.9,0.4-1.9,0.7-3.1,0.7c-1.1,0-2.1-0.2-2.9-0.6c-0.9-0.4-1.6-1-2.3-1.8L133.2,47z M143,38.7c0-0.8-0.1-1.5-0.3-2.1
			c-0.2-0.7-0.5-1.3-1-1.7c-0.4-0.5-0.9-0.9-1.5-1.2c-0.6-0.3-1.3-0.4-2-0.4c-0.8,0-1.5,0.2-2.1,0.5c-0.6,0.3-1.1,0.8-1.5,1.3
			c-0.4,0.6-0.7,1.2-0.9,1.9c-0.2,0.7-0.3,1.5-0.3,2.3c0,0.9,0.1,1.7,0.2,2.4c0.2,0.7,0.4,1.3,0.8,1.8c0.4,0.5,0.9,0.9,1.5,1.1
			c0.6,0.3,1.4,0.4,2.3,0.4c0.9,0,1.7-0.2,2.3-0.5c0.6-0.4,1.1-0.8,1.5-1.4c0.4-0.6,0.6-1.2,0.8-2C142.9,40.3,143,39.5,143,38.7z"/>
		<path fill="#FFFFFF" d="M151,24.6V47h-2.5V24.6H151z"/>
		<path fill="#FFFFFF" d="M168,45.2c-0.8,0.7-1.8,1.2-2.8,1.6c-1,0.3-2.2,0.5-3.4,0.5c-1.2,0-2.3-0.2-3.2-0.6
			c-1-0.4-1.8-0.9-2.4-1.7c-0.7-0.7-1.2-1.5-1.5-2.5c-0.3-1-0.5-2.1-0.5-3.2c0-1.1,0.2-2.2,0.5-3.1c0.3-1,0.8-1.8,1.5-2.6
			c0.7-0.7,1.4-1.3,2.4-1.8c0.9-0.4,2-0.6,3.2-0.6c1.2,0,2.2,0.2,3.1,0.6c0.9,0.4,1.6,0.9,2.1,1.6c0.6,0.7,1,1.5,1.3,2.4
			c0.3,0.9,0.4,1.9,0.4,3c0,0.1,0,0.2,0,0.4c0,0.1,0,0.3,0,0.4h-11.8l0,0.7c0.1,0.7,0.2,1.4,0.5,2.1c0.2,0.6,0.6,1.2,1,1.6
			c0.4,0.4,1,0.8,1.6,1c0.6,0.2,1.3,0.4,2.1,0.4c1.1,0,2-0.2,2.9-0.6c0.9-0.4,1.7-0.9,2.4-1.6L168,45.2z M166,37.8l0-0.2
			c-0.1-0.7-0.2-1.2-0.4-1.8c-0.2-0.5-0.5-1-0.8-1.4c-0.4-0.4-0.8-0.7-1.3-0.9c-0.5-0.2-1.1-0.3-1.7-0.3c-0.7,0-1.3,0.1-1.9,0.4
			c-0.6,0.2-1,0.6-1.4,1c-0.4,0.4-0.7,0.9-1,1.5c-0.2,0.6-0.4,1.2-0.5,1.8H166z"/>
		<path fill="#FFFFFF" d="M180.8,34.2c-0.5-0.4-1.2-0.6-1.9-0.8c-0.8-0.2-1.5-0.2-2.4-0.2c-0.5,0-0.9,0.1-1.3,0.2
			c-0.4,0.1-0.7,0.2-1,0.4c-0.3,0.2-0.5,0.4-0.7,0.7c-0.2,0.3-0.2,0.6-0.2,0.9c0,0.4,0.1,0.7,0.3,0.9c0.2,0.2,0.4,0.5,0.7,0.7
			c0.3,0.2,0.6,0.4,1,0.5c0.4,0.1,0.8,0.3,1.2,0.4c0.4,0.1,0.8,0.2,1.3,0.4c0.5,0.1,0.9,0.3,1.4,0.5c0.4,0.2,0.9,0.4,1.3,0.6
			s0.8,0.5,1.1,0.8c0.3,0.3,0.6,0.7,0.7,1.1c0.2,0.4,0.3,0.9,0.3,1.5c0,0.8-0.2,1.5-0.5,2c-0.4,0.6-0.8,1.1-1.4,1.4
			c-0.6,0.4-1.3,0.7-2,0.9c-0.8,0.2-1.5,0.3-2.3,0.3c-0.5,0-1.1,0-1.6-0.1c-0.5-0.1-1-0.2-1.5-0.3c-0.5-0.1-0.9-0.3-1.3-0.5
			c-0.4-0.2-0.8-0.5-1-0.8l0.7-2c0.3,0.3,0.6,0.6,0.9,0.8c0.4,0.2,0.7,0.4,1.2,0.6c0.4,0.1,0.8,0.3,1.3,0.3c0.4,0.1,0.9,0.1,1.3,0.1
			c0.6,0,1.1-0.1,1.5-0.2c0.5-0.1,0.9-0.3,1.2-0.5c0.3-0.2,0.6-0.5,0.8-0.8c0.2-0.3,0.3-0.7,0.3-1.1c0-0.5-0.1-0.8-0.3-1.1
			c-0.2-0.3-0.5-0.5-0.9-0.7c-0.4-0.2-0.9-0.4-1.4-0.5s-1.1-0.3-1.8-0.5c-0.8-0.2-1.4-0.5-2-0.8s-1.1-0.6-1.5-0.9
			c-0.4-0.4-0.7-0.8-1-1.2c-0.2-0.5-0.3-1-0.3-1.7c0-0.7,0.2-1.3,0.5-1.9c0.3-0.5,0.8-1,1.3-1.3c0.5-0.3,1.1-0.6,1.8-0.8
			c0.7-0.2,1.4-0.3,2.1-0.3c1,0,2,0.1,2.9,0.3c0.9,0.2,1.6,0.5,2.2,1L180.8,34.2z"/>
	</g>
	<g opacity="0.7">
		<path fill="#FFFFFF" d="M161.1,56.9c-0.4,0.3-0.8,0.6-1.3,0.7s-1,0.2-1.6,0.2c-0.6,0-1.1-0.1-1.5-0.3c-0.4-0.2-0.8-0.4-1.1-0.8
			c-0.3-0.3-0.5-0.7-0.7-1.2c-0.2-0.5-0.2-1-0.2-1.5c0-0.5,0.1-1,0.2-1.5c0.2-0.5,0.4-0.9,0.7-1.2c0.3-0.3,0.7-0.6,1.1-0.8
			c0.4-0.2,0.9-0.3,1.5-0.3c0.6,0,1,0.1,1.5,0.3c0.4,0.2,0.7,0.4,1,0.8c0.3,0.3,0.5,0.7,0.6,1.1c0.1,0.4,0.2,0.9,0.2,1.4
			c0,0.1,0,0.1,0,0.2c0,0.1,0,0.1,0,0.2h-5.6l0,0.3c0,0.4,0.1,0.7,0.2,1s0.3,0.5,0.5,0.8s0.4,0.4,0.7,0.5c0.3,0.1,0.6,0.2,1,0.2
			c0.5,0,1-0.1,1.4-0.3c0.4-0.2,0.8-0.4,1.1-0.8L161.1,56.9z M160.1,53.4L160.1,53.4c0-0.4-0.1-0.7-0.2-0.9
			c-0.1-0.3-0.2-0.5-0.4-0.7c-0.2-0.2-0.4-0.3-0.6-0.4c-0.2-0.1-0.5-0.2-0.8-0.2c-0.3,0-0.6,0.1-0.9,0.2c-0.3,0.1-0.5,0.3-0.7,0.5
			c-0.2,0.2-0.3,0.4-0.5,0.7c-0.1,0.3-0.2,0.5-0.2,0.8H160.1z"/>
		<path fill="#FFFFFF" d="M164.4,50.5l0,1c0.3-0.4,0.6-0.7,1-0.9c0.4-0.2,0.8-0.3,1.3-0.3c0.3,0,0.5,0,0.8,0.1
			c0.2,0.1,0.5,0.2,0.7,0.3c0.2,0.1,0.4,0.3,0.5,0.5c0.2,0.2,0.3,0.4,0.4,0.6c0.3-0.5,0.6-0.9,1.1-1.1c0.4-0.2,1-0.3,1.6-0.3
			c0.5,0,0.9,0.1,1.3,0.3c0.3,0.2,0.6,0.4,0.8,0.7c0.2,0.3,0.3,0.6,0.4,0.9c0.1,0.4,0.1,0.7,0.1,1.1v4.5h-1.2v-4
			c0-0.3,0-0.6-0.1-0.9c0-0.3-0.1-0.6-0.2-0.8c-0.1-0.2-0.3-0.4-0.5-0.6c-0.2-0.2-0.6-0.2-1-0.2c-0.3,0-0.6,0.1-0.8,0.2
			c-0.2,0.1-0.5,0.3-0.6,0.5c-0.2,0.2-0.3,0.5-0.4,0.7c-0.1,0.3-0.1,0.6-0.1,0.9v4.2h-1.2v-4.5c0-0.3,0-0.5-0.1-0.8
			c-0.1-0.2-0.2-0.5-0.3-0.6c-0.1-0.2-0.3-0.3-0.6-0.4c-0.2-0.1-0.5-0.2-0.8-0.2c-0.3,0-0.6,0.1-0.9,0.2c-0.2,0.1-0.5,0.3-0.6,0.5
			s-0.3,0.5-0.4,0.7c-0.1,0.3-0.1,0.6-0.1,0.9v4.2h-1.2v-5.4c0-0.3,0-0.6,0-1c0-0.3,0-0.6,0-0.9H164.4z"/>
		<path fill="#FFFFFF" d="M181.1,51.7c-0.3-0.2-0.6-0.3-0.9-0.4c-0.4-0.1-0.7-0.1-1.1-0.1c-0.2,0-0.4,0-0.6,0.1s-0.3,0.1-0.5,0.2
			c-0.1,0.1-0.2,0.2-0.3,0.3c-0.1,0.1-0.1,0.3-0.1,0.4c0,0.2,0,0.3,0.1,0.4s0.2,0.2,0.3,0.3c0.1,0.1,0.3,0.2,0.5,0.2
			c0.2,0.1,0.4,0.1,0.6,0.2c0.2,0.1,0.4,0.1,0.6,0.2c0.2,0.1,0.4,0.1,0.6,0.2c0.2,0.1,0.4,0.2,0.6,0.3c0.2,0.1,0.4,0.2,0.5,0.4
			s0.3,0.3,0.4,0.5c0.1,0.2,0.1,0.4,0.1,0.7c0,0.4-0.1,0.7-0.3,1c-0.2,0.3-0.4,0.5-0.7,0.7c-0.3,0.2-0.6,0.3-1,0.4
			c-0.4,0.1-0.7,0.1-1.1,0.1c-0.3,0-0.5,0-0.7,0c-0.2,0-0.5-0.1-0.7-0.1c-0.2-0.1-0.4-0.2-0.6-0.3c-0.2-0.1-0.4-0.2-0.5-0.4l0.3-1
			c0.1,0.2,0.3,0.3,0.4,0.4c0.2,0.1,0.4,0.2,0.5,0.3c0.2,0.1,0.4,0.1,0.6,0.1c0.2,0,0.4,0,0.6,0c0.3,0,0.5,0,0.7-0.1
			c0.2,0,0.4-0.1,0.6-0.2c0.2-0.1,0.3-0.2,0.4-0.4c0.1-0.1,0.1-0.3,0.1-0.5c0-0.2-0.1-0.4-0.2-0.5c-0.1-0.1-0.2-0.3-0.4-0.3
			c-0.2-0.1-0.4-0.2-0.7-0.3c-0.3-0.1-0.5-0.2-0.8-0.3c-0.4-0.1-0.7-0.2-1-0.4c-0.3-0.1-0.5-0.3-0.7-0.4c-0.2-0.2-0.4-0.4-0.5-0.6
			c-0.1-0.2-0.2-0.5-0.2-0.8c0-0.3,0.1-0.6,0.2-0.9c0.2-0.3,0.4-0.5,0.6-0.6c0.3-0.2,0.5-0.3,0.9-0.4c0.3-0.1,0.6-0.1,1-0.1
			c0.5,0,0.9,0,1.4,0.1c0.4,0.1,0.8,0.3,1.1,0.5L181.1,51.7z"/>
	</g>
	<path opacity="0.7" fill="#FFFFFF" d="M39.8,60.1c-3.7,0-7.3-1.2-10.2-3.3c-0.8-0.6-1.6-1.3-2.4-2.1c-2.8-0.4-5.5-1.1-8.2-2.1
		c-3.7-1.4-5.8-3.2-6.5-5.6c-0.6-2,0-3.9,0.6-5.9c0.7-2,1.2-3.7,1.8-5.2c-0.1-1.1-0.1-2.3-0.1-3.5c-0.3-1.4-0.5-2.8-0.5-4
		c0-2.5,0.7-4.8,1.9-6.5c0.1-0.2,0.1-0.5,0.2-0.7c0.7-3.1,2-6.9,5.3-8.5c1-0.5,2.2-0.7,3.6-0.7c1.4,0,2.7,0.3,3.6,0.4
		c2.4,0.5,4.8,1.3,7.1,2.2c0.5,0.2,0.9,0.4,1.3,0.6c3.8-0.2,7.8,0.8,11.3,2.8c3.8,2.2,7.2,5.5,9.8,9.7c2.1,3.4,3.2,6.7,3.3,9.8
		c0.1,4-1.7,7.6-4.7,9.5c-0.5,0.3-1.1,0.6-1.8,0.9c-0.9,4.3-3.5,8.1-7.2,10.3C45.6,59.3,42.8,60.1,39.8,60.1z M31.1,55.1
		c2.5,1.8,5.6,2.8,8.7,2.8c2.5,0,5-0.6,7-1.8c2.8-1.6,4.9-4.4,5.8-7.6c-0.7,0.1-1.4,0.3-2.1,0.3c-0.3,0-0.5,0.1-0.8,0.1l0,0
		c-0.3,0.6-0.7,1.1-1.2,1.5c-1.6,1.5-3.8,2-5.9,2.3l0,0c-0.5,0.6-1.1,1-1.7,1.4c-1.3,0.7-2.8,0.9-4.2,1C34.9,55.2,33,55.2,31.1,55.1
		z M28.3,52.6c1.8,0.2,3.6,0.4,5.4,0.4c-2.3-0.4-4.3-1.2-5.8-2.5c-0.8-0.6-1.5-1.4-2.2-2.3c-0.3-0.1-0.7-0.2-1-0.3
		c0.5,0.8,1.1,1.5,1.7,2.3C27,51.1,27.6,51.9,28.3,52.6z M15.8,40c-0.2,0.5-0.4,1.1-0.6,1.7c-0.5,1.7-1,3.2-0.6,4.6
		c0.5,1.7,2.2,3,5.1,4.1c1.6,0.6,3.3,1.1,5,1.5c-0.1-0.1-0.2-0.3-0.3-0.4c-1.3-1.7-2.5-3.4-3.6-5.2l0,0c-0.8-0.5-1.6-1.1-2.2-1.7
		C17.4,43.3,16.4,41.8,15.8,40z M29.3,48.8c1.8,1.4,4.3,2.1,7.6,2.1c1.3,0,2.8-0.1,4.6-0.4c0.2-0.3,0.4-0.7,0.6-1.2
		c-4.1,0.1-8.3-0.1-12.4-0.6C29.6,48.9,29.4,48.8,29.3,48.8z M44.5,49.3c-0.1,0.3-0.2,0.6-0.3,0.8c0.9-0.2,1.7-0.5,2.3-1
		C45.9,49.2,45.2,49.3,44.5,49.3z M26.9,46.2c0.9,0.2,1.9,0.3,3,0.5c4.3,0.5,8.6,0.7,12.9,0.5c0-0.1,0-0.1,0.1-0.2
		c0.3-1,0.5-2,0.8-3c-0.6,0.1-1.2,0.2-1.9,0.2h0c-0.7,0-1.4-0.1-2.2-0.3c-3.7-0.8-7-3.5-9.5-7.5c-2.1-3.3-2.8-6.2-2.1-8.4
		c0.5-1.5,1.5-2.7,3.2-3.6c-2.1-0.5-3.6-0.4-4.6,0.3c-1,0.6-1.7,1.8-2.3,3.8c-1.6,5.5-0.8,11.8,2.1,16.7
		C26.6,45.6,26.8,45.9,26.9,46.2z M46.2,42.7c-0.2,1.4-0.6,2.8-1,4.3c1-0.1,2-0.2,3-0.3c0.3-0.8,0.4-1.6,0.5-2.2
		c0.5-2.8,0.6-5.6,0.3-8.1c-0.1,1.4-0.4,2.6-0.9,3.8C47.6,41.2,47,42.1,46.2,42.7L46.2,42.7z M51.4,38.4c0.1,2.1-0.1,4.3-0.5,6.5
		c-0.1,0.5-0.2,1-0.3,1.5c0.8-0.1,1.7-0.3,2.5-0.5c0.2-1.5,0-2.9-0.4-4.3C52.5,40.6,52,39.5,51.4,38.4z M22.5,44.6
		c0.4,0.2,0.9,0.4,1.3,0.6c-2.7-5.3-3.3-11.6-1.7-17.3c0.3-0.9,0.7-2.1,1.3-3.2c-0.4,0.5-0.9,1.1-1.3,1.7c-1.6,2.3-3.1,4.9-4.4,8.1
		c0.1,0.2,0.1,0.4,0.2,0.6C19.2,38.5,20.7,41.7,22.5,44.6z M50.9,33.9c2.1,2.3,3.4,4.7,4.1,7.1c0.4,1.3,0.5,2.6,0.5,4
		c0.1-0.1,0.2-0.1,0.3-0.2c2.2-1.4,3.7-4.4,3.6-7.6c0-2.7-1-5.6-2.9-8.7c-2.4-3.9-5.5-7-9-8.9c-1.9-1.1-4-1.9-6.1-2.2
		c2.4,2.1,3.8,4.9,4.8,7.2l0,0c0.5,0.5,1,1,1.4,1.7C49.1,28.5,50.2,31.1,50.9,33.9L50.9,33.9z M34.7,25.6c-0.9,0.2-1.6,0.5-2.3,0.8
		c-1.2,0.6-2,1.3-2.3,2.3c-0.5,1.6,0.2,3.8,1.9,6.6c1.2,2,3.9,5.5,8.1,6.5c1.6,0.4,3,0.2,4.1-0.3c0.6-3.8,0.5-7.2-0.2-10.2
		c-0.1-0.2-0.1-0.4-0.2-0.7C40.9,28.4,37.9,26.7,34.7,25.6z M46.7,34.1c0.1,0.8,0.1,1.5,0.1,2.3C46.8,35.6,46.8,34.9,46.7,34.1z
		 M18.3,22.7c-0.5,2.3-0.8,4.6-1.1,6.9c0,0.4-0.1,0.7-0.1,1.1c1-2,2.1-3.9,3.3-5.5c1.8-2.5,3.9-4.7,6.2-6.3c-1.3,0.2-2.6,0.6-3.9,1
		c-1.8,0.7-3,1.4-3.9,2.3C18.6,22.3,18.4,22.5,18.3,22.7z M38.7,24.8c1.2,0.6,2.4,1.3,3.6,2c-0.4-0.7-0.8-1.5-1.3-2.1
		C40.4,24.7,39.6,24.7,38.7,24.8z M34.9,23.2L34.9,23.2c0.9-0.2,1.8-0.3,2.6-0.5c0.6-0.1,1.2-0.2,1.7-0.2c-1.4-1.4-2.9-2.4-4.6-3
		c-1.1-0.4-2.2-0.7-3.4-0.8c-2.3,1-4.4,2.5-6.3,4.5c0.1-0.1,0.3-0.2,0.4-0.3c1-0.6,2.2-0.9,3.5-0.9c1,0,2.1,0.2,3.5,0.5
		C33.2,22.7,34,22.9,34.9,23.2L34.9,23.2z M42.3,22.6c0.1,0,0.3,0.1,0.4,0.1c-0.7-1.3-1.7-2.6-2.8-3.6c-0.8-0.7-1.8-1.3-3-1.9
		c-0.5,0-0.9,0.1-1.4,0.2c0,0,0,0,0,0C38.1,18.4,40.4,20.2,42.3,22.6z M25.2,14c-1,0-1.9,0.2-2.6,0.5c-1.7,0.8-2.7,2.6-3.4,4.5
		c1-0.6,1.9-0.9,2.7-1.2c3-1.1,6.1-1.6,9-1.4l0,0l0,0c0.7-0.3,1.3-0.5,2-0.7c-1.5-0.5-3-0.9-4.6-1.3C27.6,14.2,26.4,14,25.2,14z"/>
</g>
</svg>
