<?xml version="1.0" encoding="utf-8"?>
<!-- Generator: Adobe Illustrator 19.2.1, SVG Export Plug-In . SVG Version: 6.00 Build 0)  -->
<svg version="1.1" id="Layer_1" xmlns="http://www.w3.org/2000/svg" xmlns:xlink="http://www.w3.org/1999/xlink" x="0px" y="0px"
	 viewBox="0 0 201.9 178.4" style="enable-background:new 0 0 201.9 178.4;" xml:space="preserve">
<style type="text/css">
	.Web_st0{
		fill:none;
		stroke-width:5;
		stroke-miterlimit:10;
	}
	.Web_st1{}
	.Web_st2{
		fill:none;
		stroke-width:2;
		stroke-miterlimit:10;
	}
	.Web_st3{
		fill:none;
		stroke-width:5;
		stroke-linecap:round;
		stroke-miterlimit:10;
	}
	.Web_st4{
		fill:none;
		stroke-width:2;
		stroke-linecap:round;
		stroke-miterlimit:10;
	}
</style>
<rect x="3.9" y="27.3" class="Web_st0" width="194.2" height="147.8"/>
<path class="Web_st0" d="M193.2,3.2H8.6c-2.9,0-5.2,2.3-5.2,5.2V27h195V8.4C198.4,5.5,196.1,3.2,193.2,3.2z"/>
<circle class="Web_st1" cx="17.7" cy="14.2" r="3.5"/>
<circle class="Web_st1" cx="29.2" cy="14.2" r="3.5"/>
<circle class="Web_st1" cx="40.9" cy="14.2" r="3.5"/>
<line class="Web_st2" x1="110.4" y1="51.5" x2="199.2" y2="51.5"/>
<line class="Web_st2" x1="2.4" y1="51.5" x2="93.9" y2="51.5"/>
<line class="Web_st2" x1="2.4" y1="98.2" x2="199.2" y2="98.2"/>
<rect x="18.2" y="112.8" class="Web_st2" width="37.2" height="37.5"/>
<rect x="144.9" y="112.8" class="Web_st2" width="37.2" height="37.5"/>
<rect x="81.4" y="112.8" class="Web_st2" width="37.2" height="37.5"/>
<line class="Web_st3" x1="80.2" y1="70.2" x2="120.9" y2="70.2"/>
<line class="Web_st4" x1="71.1" y1="79.1" x2="128.9" y2="79.1"/>
<line class="Web_st4" x1="71.1" y1="88.6" x2="128.9" y2="88.6"/>
<line class="Web_st4" x1="81.3" y1="159.6" x2="117.4" y2="159.6"/>
<line class="Web_st4" x1="81.3" y1="166.8" x2="105.4" y2="166.8"/>
<line class="Web_st4" x1="144.7" y1="159.6" x2="180.8" y2="159.6"/>
<line class="Web_st4" x1="144.7" y1="166.8" x2="168.8" y2="166.8"/>
<line class="Web_st4" x1="17.8" y1="159.6" x2="53.9" y2="159.6"/>
<line class="Web_st4" x1="17.8" y1="166.8" x2="41.9" y2="166.8"/>
<path class="Web_st1" d="M101.9,36.5c-6.9,0-12.5,5.6-12.5,12.5c0,6.9,5.6,12.5,12.5,12.5s12.5-5.6,12.5-12.5
	C114.4,42.1,108.8,36.5,101.9,36.5z M102,55h-6c0,0,0-1.1,0.5-2.1c0.4-0.8,1.9-1.2,4-2v-1.6c0,0-0.6-0.5-0.6-1.5c-0.3,0-0.5-1,0-1.3
	c0-0.2-1-2.6,0.5-2.6c0.3-1,3.9-1,4.1,0.3c0.2,0.9-0.5,2.2-0.5,2.3c0.5,0.3,0.3,1.3,0,1.3c0,1-0.6,1.6-0.6,1.6v1.5
	c2.1,0.8,3.6,1.2,4,2c0.5,1,0.5,2.1,0.5,2.1H102z"/>
</svg>
