<?xml version="1.0" encoding="utf-8"?>
<!-- Generator: Adobe Illustrator 19.2.1, SVG Export Plug-In . SVG Version: 6.00 Build 0)  -->
<svg version="1.1" id="Layer_1" xmlns="http://www.w3.org/2000/svg" xmlns:xlink="http://www.w3.org/1999/xlink" x="0px" y="0px"
	 viewBox="0 0 30 30" style="enable-background:new 0 0 30 30;" xml:space="preserve">
<rect class="LI_0" width="30" height="30"/>
<g>
	<rect x="5" y="11.7" class="LI_1" width="4.7" height="13.3"/>
	<path class="LI_1" d="M7.3,9.7c1.3,0,2.3-1,2.3-2.3C9.7,6,8.6,5,7.3,5S5,6,5,7.3S6,9.7,7.3,9.7"/>
	<path class="LI_1" d="M25,17.7c0-3.6-0.8-6-5-6c-2,0-3.4,0.7-3.9,1.8H16v-1.8h-3.7V25h3.9v-6.6c0-1.7,0.3-3.4,2.5-3.4
		c2.1,0,2.3,2,2.3,3.5V25h4V17.7z"/>
</g>
</svg>
