<?xml version="1.0" encoding="utf-8"?>
<!-- Generator: Adobe Illustrator 19.2.1, SVG Export Plug-In . SVG Version: 6.00 Build 0)  -->
<svg version="1.1" id="Layer_1" xmlns="http://www.w3.org/2000/svg" xmlns:xlink="http://www.w3.org/1999/xlink" x="0px" y="0px"
	 viewBox="0 0 200 200" style="enable-background:new 0 0 200 200;" xml:space="preserve">
<style type="text/css">
	.st0{fill:#212121;}
	.st1{fill:#FFAC33;}
</style>
<g>
	<g>
		<g>
			<rect x="46.9" y="18.8" class="st0" width="112.5" height="6.2"/>
		</g>
		<g>
			<rect x="46.9" y="175" class="st0" width="112.5" height="6.2"/>
		</g>
		<g>
			<path class="st0" d="M143.8,200H62.5c-10.3,0-18.8-8.4-18.8-18.8V93.8H50v87.5c0,6.9,5.6,12.5,12.5,12.5h81.2
				c6.9,0,12.5-5.6,12.5-12.5V150h6.2v31.2C162.5,191.6,154.1,200,143.8,200z"/>
		</g>
		<g>
			<path class="st0" d="M162.5,62.5h-6.2V18.8c0-6.9-5.6-12.5-12.5-12.5H62.5C55.6,6.2,50,11.9,50,18.8v12.5h-6.2V18.8
				C43.8,8.4,52.2,0,62.5,0h81.2c10.3,0,18.8,8.4,18.8,18.8V62.5z"/>
		</g>
		<g>
			<rect x="156.2" y="81.2" class="st0" width="6.2" height="25"/>
		</g>
		<g>
			<path class="st0" d="M3.1,84.4c-0.4,0-0.8-0.1-1.2-0.2C0.8,83.7,0,82.5,0,81.2V40.6c0-1.7,1.4-3.1,3.1-3.1h62.5
				c1.7,0,3.1,1.4,3.1,3.1v25c0,1.7-1.4,3.1-3.1,3.1H20L5.3,83.5C4.7,84.1,3.9,84.4,3.1,84.4z M6.2,43.8v30l10.3-10.3
				c0.6-0.6,1.4-0.9,2.2-0.9h43.8V43.8H6.2z"/>
		</g>
		<g>
			<g>
				<path class="st0" d="M196.9,143.8h-87.5c-1.7,0-3.1-1.4-3.1-3.1v-25c0-1.7,1.4-3.1,3.1-3.1H180l14.7-14.7
					c0.9-0.9,2.2-1.2,3.4-0.7c1.2,0.5,1.9,1.6,1.9,2.9v40.6C200,142.4,198.6,143.8,196.9,143.8z M112.5,137.5h81.2v-30l-10.3,10.3
					c-0.6,0.6-1.4,0.9-2.2,0.9h-68.8V137.5z"/>
			</g>
		</g>
		<g>
			<rect x="18.8" y="50" class="st0" width="6.2" height="6.2"/>
		</g>
		<g>
			<rect x="31.2" y="50" class="st1" width="6.2" height="6.2"/>
		</g>
		<g>
			<rect x="43.8" y="50" class="st1" width="6.2" height="6.2"/>
		</g>
		<g>
			<rect x="125" y="125" class="st0" width="37.5" height="6.2"/>
		</g>
		<g>
			<rect x="168.8" y="125" class="st0" width="12.5" height="6.2"/>
		</g>
		<g>
			<path class="st0" d="M71.9,168.8H59.4c-1.7,0-3.1-1.4-3.1-3.1v-12.5c0-1.7,1.4-3.1,3.1-3.1h12.5c1.7,0,3.1,1.4,3.1,3.1v12.5
				C75,167.4,73.6,168.8,71.9,168.8z M62.5,162.5h6.2v-6.2h-6.2V162.5z"/>
		</g>
		<g>
			<path class="st1" d="M96.9,168.8H84.4c-1.7,0-3.1-1.4-3.1-3.1v-12.5c0-1.7,1.4-3.1,3.1-3.1h12.5c1.7,0,3.1,1.4,3.1,3.1v12.5
				C100,167.4,98.6,168.8,96.9,168.8z M87.5,162.5h6.2v-6.2h-6.2V162.5z"/>
		</g>
		<g>
			<path class="st0" d="M121.9,168.8h-12.5c-1.7,0-3.1-1.4-3.1-3.1v-12.5c0-1.7,1.4-3.1,3.1-3.1h12.5c1.7,0,3.1,1.4,3.1,3.1v12.5
				C125,167.4,123.6,168.8,121.9,168.8z M112.5,162.5h6.2v-6.2h-6.2V162.5z"/>
		</g>
		<g>
			<path class="st0" d="M146.9,168.8h-12.5c-1.7,0-3.1-1.4-3.1-3.1v-12.5c0-1.7,1.4-3.1,3.1-3.1h12.5c1.7,0,3.1,1.4,3.1,3.1v12.5
				C150,167.4,148.6,168.8,146.9,168.8z M137.5,162.5h6.2v-6.2h-6.2V162.5z"/>
		</g>
		<g>
			<path class="st1" d="M103.1,106.2c-12.1,0-21.9-9.8-21.9-21.9s9.8-21.9,21.9-21.9c12.1,0,21.9,9.8,21.9,21.9
				S115.2,106.2,103.1,106.2z M103.1,68.8c-8.6,0-15.6,7-15.6,15.6s7,15.6,15.6,15.6c8.6,0,15.6-7,15.6-15.6S111.7,68.8,103.1,68.8z
				"/>
		</g>
		<g>
			<path class="st0" d="M100,131.2H59.4c-1.7,0-3.1-1.4-3.1-3.1V93.8h6.2V125H100V131.2z"/>
		</g>
		<g>
			<rect x="143.8" y="81.2" class="st0" width="6.2" height="25"/>
		</g>
		<g>
			<path class="st0" d="M150,62.5h-6.2V43.8H75v-6.2h71.9c1.7,0,3.1,1.4,3.1,3.1V62.5z"/>
		</g>
		<g>
			<rect x="56.2" y="137.5" class="st1" width="6.2" height="6.2"/>
		</g>
		<g>
			<rect x="68.8" y="137.5" class="st0" width="6.2" height="6.2"/>
		</g>
		<g>
			<rect x="81.2" y="137.5" class="st1" width="6.2" height="6.2"/>
		</g>
		<g>
			<rect x="93.8" y="137.5" class="st0" width="6.2" height="6.2"/>
		</g>
		<g>
			<rect x="131.2" y="68.8" class="st0" width="68.8" height="6.2"/>
		</g>
		<g>
			<rect x="168.8" y="50" class="st1" width="31.2" height="6.2"/>
		</g>
		<g>
			<rect x="168.8" y="37.5" class="st0" width="31.2" height="6.2"/>
		</g>
	</g>
	<g>
		<path class="st0" d="M25,118.8h-6.2V90.6c0-5.2,4.2-9.4,9.4-9.4H75v6.2H28.1c-1.7,0-3.1,1.4-3.1,3.1V118.8z"/>
	</g>
	<g>
		<path class="st0" d="M21.9,156.2c-8.6,0-15.6-7-15.6-15.6s7-15.6,15.6-15.6s15.6,7,15.6,15.6S30.5,156.2,21.9,156.2z M21.9,131.2
			c-5.2,0-9.4,4.2-9.4,9.4s4.2,9.4,9.4,9.4s9.4-4.2,9.4-9.4S27,131.2,21.9,131.2z"/>
	</g>
	<g>
		<rect x="131.2" y="81.2" class="st0" width="6.2" height="6.2"/>
	</g>
	<g>
		<rect x="68.8" y="115.6" class="st0" width="6.2" height="6.2"/>
	</g>
	<g>
		<rect x="75" y="50" class="st1" width="6.2" height="6.2"/>
	</g>
	<g>
		<rect x="12.5" y="162.5" class="st1" width="6.2" height="6.2"/>
	</g>
	<g>
		<rect x="25" y="162.5" class="st0" width="6.2" height="6.2"/>
	</g>
</g>
</svg>
