<?xml version="1.0" encoding="utf-8"?>
<!-- Generator: Adobe Illustrator 19.2.1, SVG Export Plug-In . SVG Version: 6.00 Build 0)  -->
<svg version="1.1" id="Layer_1" xmlns="http://www.w3.org/2000/svg" xmlns:xlink="http://www.w3.org/1999/xlink" x="0px" y="0px"
	 viewBox="0 0 200 200" style="enable-background:new 0 0 200 200;" xml:space="preserve">
<style type="text/css">
	.st0{fill:#00B1FF;}
	.st1{fill:#002121;}
</style>
<g>
	<g>
		<path class="st0" d="M100,197.3c-11.9,0-23.5-2.1-34.5-6.3l2.2-5.7c10.3,3.9,21.2,5.9,32.4,5.9c50.3,0,91.2-40.9,91.2-91.2
			S150.3,8.8,100,8.8c-17.9,0-35.2,5.2-50,14.9l-3.3-5.1C62.5,8.2,80.9,2.7,100,2.7c53.6,0,97.3,43.6,97.3,97.3
			C197.3,153.6,153.6,197.3,100,197.3z"/>
	</g>
	<g>
		<g>
			<path class="st1" d="M54.4,197.3H36.2v-73h18.2V197.3z M42.2,191.2h6.1v-60.8h-6.1V191.2z"/>
		</g>
		<g>
			<path class="st1" d="M48.3,127.4h-6.1v-15.2h3c20.1,0,36.5-16.4,36.5-36.5S65.4,39.2,45.3,39.2c-20.1,0-36.5,16.4-36.5,36.5
				c0,14.8,8.8,28,22.4,33.7l-2.3,5.6C13,108.3,2.7,92.9,2.7,75.7c0-23.5,19.1-42.6,42.6-42.6c23.5,0,42.6,19.1,42.6,42.6
				c0,22.4-17.5,40.9-39.5,42.5V127.4z"/>
		</g>
	</g>
	<g>
		<rect x="97" y="5.7" class="st0" width="6.1" height="94.3"/>
	</g>
	<g>
		
			<rect x="56" y="115.2" transform="matrix(0.7071 -0.7071 0.7071 0.7071 -59.6637 92.4438)" class="st0" width="51.6" height="6.1"/>
	</g>
	<g>
		<rect x="100" y="97" class="st0" width="36.5" height="6.1"/>
	</g>
	<g>
		
			<rect x="130.4" y="86.1" transform="matrix(0.7071 -0.7071 0.7071 0.7071 -55.2745 133.4465)" class="st0" width="6.1" height="94.6"/>
	</g>
	<g>
		<path class="st1" d="M45.3,106.1c-16.8,0-30.4-13.6-30.4-30.4c0-16.8,13.6-30.4,30.4-30.4c16.8,0,30.4,13.6,30.4,30.4
			C75.7,92.4,62,106.1,45.3,106.1z M45.3,51.4c-13.4,0-24.3,10.9-24.3,24.3S31.9,100,45.3,100c13.4,0,24.3-10.9,24.3-24.3
			S58.7,51.4,45.3,51.4z"/>
	</g>
	<g>
		<path class="st0" d="M100,185.1V179c43.6,0,79.1-35.5,79.1-79S143.6,21,100,21v-6.1c46.9,0,85.1,38.2,85.1,85.1
			C185.1,146.9,146.9,185.1,100,185.1z"/>
	</g>
	<g>
		<rect x="142.6" y="97" class="st0" width="6.1" height="6.1"/>
	</g>
	<g>
		<rect x="154.7" y="97" class="st0" width="6.1" height="6.1"/>
	</g>
	<g>
		<rect x="166.9" y="97" class="st0" width="6.1" height="6.1"/>
	</g>
</g>
</svg>
