<?xml version="1.0" encoding="utf-8"?>
<!-- Generator: Adobe Illustrator 19.2.1, SVG Export Plug-In . SVG Version: 6.00 Build 0)  -->
<svg version="1.1" id="Layer_1" xmlns="http://www.w3.org/2000/svg" xmlns:xlink="http://www.w3.org/1999/xlink" x="0px" y="0px"
	 viewBox="0 0 200 200" style="enable-background:new 0 0 200 200;" xml:space="preserve">
<style type="text/css">
	.st0{fill:#212121;}
	.st1{fill:#FFAC33;}
</style>
<g>
	<g>
		<g>
			<path class="st0" d="M43.8,134.4c-10.7,0-18.8-10.1-18.8-23.4c0-9.5,2.1-20.3,18.8-20.3c16.6,0,18.8,10.9,18.8,20.3
				C62.5,124.3,54.4,134.4,43.8,134.4z M43.8,96.9c-9.5,0-12.5,3.4-12.5,14.1c0,8.3,4.4,17.2,12.5,17.2c8.1,0,12.5-8.9,12.5-17.2
				C56.2,100.3,53.2,96.9,43.8,96.9z"/>
		</g>
		<g>
			<path class="st0" d="M65.6,159.4H21.9c-5.1,0-9.4-5.7-9.4-12.5V139l20.1-13.4l3.5,5.2l-17.4,11.6v4.6c0,3.8,2.2,6.2,3.1,6.2h43.8
				c0.9,0,3.1-2.4,3.1-6.2v-4.6l-17.4-11.6l3.5-5.2L75,139v7.9C75,153.6,70.7,159.4,65.6,159.4z"/>
		</g>
	</g>
	<g>
		<path class="st0" d="M75,196.9c-0.5,0-1-0.1-1.4-0.3l-49.3-24.7H9.4c-5.2,0-9.4-4.2-9.4-9.4v-75c0-5.2,4.2-9.4,9.4-9.4h68.8
			c5.2,0,9.4,4.2,9.4,9.4v75c0,5.2-4.2,9.4-9.4,9.4H67.6l10.2,20.5c0.6,1.2,0.4,2.7-0.6,3.6C76.6,196.6,75.8,196.9,75,196.9z
			 M9.4,84.4c-1.7,0-3.1,1.4-3.1,3.1v75c0,1.7,1.4,3.1,3.1,3.1H25c0.5,0,1,0.1,1.4,0.3L68,186.8l-8.3-16.6c-0.5-1-0.4-2.1,0.1-3
			c0.6-0.9,1.6-1.5,2.7-1.5h15.6c1.7,0,3.1-1.4,3.1-3.1v-75c0-1.7-1.4-3.1-3.1-3.1H9.4z"/>
	</g>
	<g>
		<g>
			<path class="st0" d="M156.2,103.1c-10.7,0-18.8-10.1-18.8-23.4c0-9.5,2.1-20.3,18.8-20.3c16.6,0,18.8,10.9,18.8,20.3
				C175,93,166.9,103.1,156.2,103.1z M156.2,65.6c-9.5,0-12.5,3.4-12.5,14.1c0,8.3,4.4,17.2,12.5,17.2c8.1,0,12.5-8.9,12.5-17.2
				C168.8,69,165.7,65.6,156.2,65.6z"/>
		</g>
		<g>
			<path class="st0" d="M178.1,128.1h-43.8c-5.1,0-9.4-5.7-9.4-12.5v-7.9l20.1-13.4l3.5,5.2L131.2,111v4.6c0,3.8,2.2,6.2,3.1,6.2
				h43.8c0.9,0,3.1-2.4,3.1-6.2V111l-17.4-11.6l3.5-5.2l20.1,13.4v7.9C187.5,122.4,183.2,128.1,178.1,128.1z"/>
		</g>
	</g>
	<g>
		<path class="st0" d="M125,165.6c-0.8,0-1.6-0.3-2.2-0.9c-1-1-1.2-2.4-0.6-3.6l10.2-20.5h-10.6c-5.2,0-9.4-4.2-9.4-9.4v-28.1h6.2
			v28.1c0,1.7,1.4,3.1,3.1,3.1h15.6c1.1,0,2.1,0.6,2.7,1.5c0.6,0.9,0.6,2.1,0.1,3l-8.3,16.6l41.6-20.8c0.4-0.2,0.9-0.3,1.4-0.3h15.6
			c1.7,0,3.1-1.4,3.1-3.1v-75c0-1.7-1.4-3.1-3.1-3.1h-53.1v-6.2h53.1c5.2,0,9.4,4.2,9.4,9.4v75c0,5.2-4.2,9.4-9.4,9.4h-14.9
			l-49.3,24.7C126,165.5,125.5,165.6,125,165.6z"/>
	</g>
	<g>
		<g>
			<path class="st1" d="M87.5,59.4c-10.7,0-18.8-10.1-18.8-23.4c0-9.5,2.1-20.3,18.8-20.3c16.6,0,18.8,10.9,18.8,20.3
				C106.2,49.3,98.2,59.4,87.5,59.4z M87.5,21.9C78,21.9,75,25.3,75,35.9c0,8.3,4.4,17.2,12.5,17.2c8.1,0,12.5-8.9,12.5-17.2
				C100,25.3,97,21.9,87.5,21.9z"/>
		</g>
		<g>
			<polygon class="st1" points="62.5,71.9 56.2,71.9 56.2,64 76.4,50.5 79.9,55.7 62.5,67.3 			"/>
		</g>
		<g>
			<path class="st1" d="M109.4,84.4H93.8v-6.2h15.6c0.9,0,3.1-2.4,3.1-6.2v-4.6L95.1,55.7l3.5-5.2L118.8,64v7.9
				C118.8,78.7,114.5,84.4,109.4,84.4z"/>
		</g>
	</g>
	<g>
		<path class="st0" d="M96.4,114.2l-5.2-3.5L103.7,92c0.6-0.9,1.6-1.4,2.6-1.4h15.6c1.7,0,3.1-1.4,3.1-3.1v-75
			c0-1.7-1.4-3.1-3.1-3.1H53.1c-1.7,0-3.1,1.4-3.1,3.1v59.4h-6.2V12.5c0-5.2,4.2-9.4,9.4-9.4h68.8c5.2,0,9.4,4.2,9.4,9.4v75
			c0,5.2-4.2,9.4-9.4,9.4h-14L96.4,114.2z"/>
	</g>
	<g>
		<rect x="121.9" y="178.1" class="st1" width="6.2" height="6.2"/>
	</g>
	<g>
		<rect x="109.4" y="178.1" class="st1" width="6.2" height="6.2"/>
	</g>
	<g>
		<rect x="96.9" y="178.1" class="st1" width="6.2" height="6.2"/>
	</g>
	<g>
		<rect x="134.4" y="178.1" class="st1" width="6.2" height="6.2"/>
	</g>
</g>
</svg>
