<?xml version="1.0" encoding="utf-8"?>
<!-- Generator: Adobe Illustrator 19.2.1, SVG Export Plug-In . SVG Version: 6.00 Build 0)  -->
<svg version="1.1" id="Layer_1" xmlns="http://www.w3.org/2000/svg" xmlns:xlink="http://www.w3.org/1999/xlink" x="0px" y="0px"
	 viewBox="0 0 200 200" style="enable-background:new 0 0 200 200;" xml:space="preserve">
<style type="text/css">
	.st0{fill:#212121;}
	.st1{fill:#00B1FF;}
</style>
<g>
	<g>
		<path class="st0" d="M200,200H0V0h200V200z M6.2,193.8h187.5V6.2H6.2V193.8z"/>
	</g>
	<g>
		<rect x="3.1" y="25" class="st0" width="193.8" height="6.2"/>
	</g>
	<g>
		<rect x="12.5" y="12.5" class="st1" width="6.2" height="6.2"/>
	</g>
	<g>
		<rect x="25" y="12.5" class="st1" width="6.2" height="6.2"/>
	</g>
	<g>
		<rect x="37.5" y="12.5" class="st1" width="6.2" height="6.2"/>
	</g>
	<g>
		<rect x="50" y="3.1" class="st0" width="6.2" height="25"/>
	</g>
	<g>
		<rect x="62.5" y="12.5" class="st1" width="125" height="6.2"/>
	</g>
	<g>
		<path class="st0" d="M187.5,187.5h-175v-150h175V187.5z M18.8,181.2h162.5V43.8H18.8V181.2z"/>
	</g>
	<g>
		<g>
			<path class="st1" d="M81.2,146.9h-50v-43.8h50V146.9z M37.5,140.6H75v-31.2H37.5V140.6z"/>
		</g>
		<g>
			<path class="st1" d="M75,106.2h-6.2V87.5c0-1.7-1.4-3.1-3.1-3.1H46.9c-1.7,0-3.1,1.4-3.1,3.1v18.8h-6.2V87.5
				c0-5.2,4.2-9.4,9.4-9.4h18.8c5.2,0,9.4,4.2,9.4,9.4V106.2z"/>
		</g>
	</g>
	<g>
		<polygon class="st0" points="168.8,109.4 87.5,109.4 87.5,103.1 162.5,103.1 162.5,84.4 81.2,84.4 81.2,78.1 168.8,78.1 		"/>
	</g>
	<g>
		<polygon class="st0" points="168.8,146.9 87.5,146.9 87.5,140.6 162.5,140.6 162.5,121.9 87.5,121.9 87.5,115.6 168.8,115.6 		"/>
	</g>
	<g>
		<rect x="93.8" y="90.6" class="st0" width="6.2" height="6.2"/>
	</g>
	<g>
		<g>
			<rect x="106.2" y="90.6" class="st0" width="6.2" height="6.2"/>
		</g>
	</g>
	<g>
		<g>
			<rect x="118.8" y="90.6" class="st1" width="6.2" height="6.2"/>
		</g>
	</g>
	<g>
		<g>
			<rect x="131.2" y="90.6" class="st1" width="6.2" height="6.2"/>
		</g>
	</g>
	<g>
		<g>
			<rect x="143.8" y="90.6" class="st1" width="6.2" height="6.2"/>
		</g>
	</g>
	<g>
		<rect x="93.8" y="128.1" class="st0" width="6.2" height="6.2"/>
	</g>
	<g>
		<g>
			<rect x="106.2" y="128.1" class="st0" width="6.2" height="6.2"/>
		</g>
	</g>
	<g>
		<g>
			<rect x="118.8" y="128.1" class="st1" width="6.2" height="6.2"/>
		</g>
	</g>
	<g>
		<g>
			<rect x="131.2" y="128.1" class="st1" width="6.2" height="6.2"/>
		</g>
	</g>
	<g>
		<g>
			<rect x="143.8" y="128.1" class="st1" width="6.2" height="6.2"/>
		</g>
	</g>
</g>
</svg>
