<?xml version="1.0" encoding="utf-8"?>
<!-- Generator: Adobe Illustrator 19.2.1, SVG Export Plug-In . SVG Version: 6.00 Build 0)  -->
<svg version="1.1" id="Layer_1" xmlns="http://www.w3.org/2000/svg" xmlns:xlink="http://www.w3.org/1999/xlink" x="0px" y="0px"
	 viewBox="0 0 100 100" style="enable-background:new 0 0 100 100;" xml:space="preserve">
<style type="text/css">
	.st0{fill:#FFFFFF;}
	.st1{fill:#212120;}
	.st2{fill:#00EA7A;}
</style>
<polygon class="st0" points="25,93.3 0,50 25,6.7 75,6.7 100,50 75,93.3 "/>
<g>
	<g>
		<g>
			<path class="st1" d="M21.9,72.1v-7h1.4v5.8h3.6v1.2H21.9z"/>
			<path class="st1" d="M27,69.5c0-0.4,0.1-0.7,0.2-1c0.1-0.3,0.3-0.6,0.5-0.9c0.2-0.2,0.5-0.4,0.9-0.6c0.3-0.1,0.7-0.2,1.1-0.2
				c0.4,0,0.8,0.1,1.1,0.2c0.3,0.1,0.6,0.3,0.9,0.6c0.2,0.2,0.4,0.5,0.5,0.9c0.1,0.3,0.2,0.7,0.2,1c0,0.4-0.1,0.7-0.2,1
				c-0.1,0.3-0.3,0.6-0.5,0.9c-0.2,0.2-0.5,0.4-0.9,0.6c-0.3,0.1-0.7,0.2-1.1,0.2c-0.4,0-0.8-0.1-1.1-0.2c-0.3-0.1-0.6-0.3-0.9-0.6
				c-0.2-0.2-0.4-0.5-0.5-0.9C27,70.2,27,69.8,27,69.5z M28.3,69.5c0,0.2,0,0.4,0.1,0.6c0.1,0.2,0.2,0.4,0.3,0.5
				c0.1,0.1,0.3,0.2,0.4,0.3s0.3,0.1,0.5,0.1c0.2,0,0.4,0,0.5-0.1c0.2-0.1,0.3-0.2,0.4-0.3c0.1-0.1,0.2-0.3,0.3-0.5
				c0.1-0.2,0.1-0.4,0.1-0.6c0-0.2,0-0.4-0.1-0.6c-0.1-0.2-0.2-0.4-0.3-0.5c-0.1-0.1-0.3-0.2-0.4-0.3c-0.2-0.1-0.3-0.1-0.5-0.1
				s-0.4,0-0.5,0.1c-0.2,0.1-0.3,0.2-0.4,0.3c-0.1,0.1-0.2,0.3-0.3,0.5C28.4,69.1,28.3,69.3,28.3,69.5z"/>
			<path class="st1" d="M32.5,66.9h1.2l1.5,3.9l0.6-1.7L35,66.9h1.1l0.5,1.6l0.6-1.6h1.1l-0.9,2.2l0.6,1.7l1.5-3.9h1.3l-2.2,5.2
				h-1.1l-0.9-2.3l-0.9,2.3h-1.1L32.5,66.9z"/>
			<path class="st1" d="M43.6,72.1v-7h4.7v1.2H45v1.8h2.8v1.1H45v2.9H43.6z"/>
			<path class="st1" d="M49.2,66.2V65h1.3v1.2H49.2z M49.2,72.1v-5.2h1.3v5.2H49.2z"/>
			<path class="st1" d="M51.4,69.5c0-0.4,0.1-0.7,0.2-1s0.3-0.6,0.5-0.8c0.2-0.2,0.4-0.4,0.7-0.6c0.3-0.1,0.6-0.2,0.9-0.2
				c0.4,0,0.7,0.1,1,0.3c0.3,0.2,0.5,0.4,0.7,0.7v-2.9h1.3v5.7c0,0.1,0,0.2,0.1,0.3c0,0.1,0.1,0.1,0.2,0.1v1.1
				c-0.2,0-0.4,0.1-0.6,0.1c-0.2,0-0.4-0.1-0.6-0.2c-0.2-0.1-0.2-0.3-0.3-0.5l0-0.3c-0.2,0.3-0.4,0.6-0.8,0.7
				c-0.3,0.2-0.7,0.3-1,0.3c-0.4,0-0.7-0.1-1-0.2c-0.3-0.1-0.6-0.3-0.8-0.6c-0.2-0.2-0.4-0.5-0.5-0.9C51.4,70.2,51.4,69.9,51.4,69.5
				z M52.8,69.5c0,0.2,0,0.4,0.1,0.6c0.1,0.2,0.2,0.3,0.3,0.5c0.1,0.1,0.3,0.2,0.4,0.3C53.8,71,54,71,54.2,71c0.1,0,0.3,0,0.4-0.1
				c0.1,0,0.3-0.1,0.4-0.2c0.1-0.1,0.2-0.2,0.3-0.3c0.1-0.1,0.2-0.2,0.2-0.3v-1.2c-0.1-0.1-0.1-0.3-0.2-0.4
				c-0.1-0.1-0.2-0.2-0.3-0.3c-0.1-0.1-0.2-0.2-0.4-0.2s-0.3-0.1-0.4-0.1c-0.2,0-0.4,0-0.5,0.1s-0.3,0.2-0.4,0.3
				c-0.1,0.1-0.2,0.3-0.3,0.5C52.8,69.1,52.8,69.3,52.8,69.5z"/>
			<path class="st1" d="M57.7,69.5c0-0.4,0.1-0.7,0.2-1c0.1-0.3,0.3-0.6,0.5-0.8c0.2-0.2,0.5-0.4,0.9-0.6c0.3-0.1,0.7-0.2,1.1-0.2
				c0.4,0,0.8,0.1,1.1,0.2c0.3,0.1,0.6,0.3,0.8,0.6c0.2,0.2,0.4,0.5,0.5,0.8c0.1,0.3,0.2,0.6,0.2,1c0,0.1,0,0.2,0,0.3
				c0,0.1,0,0.2,0,0.2h-4c0,0.2,0.1,0.4,0.1,0.6c0.1,0.2,0.2,0.3,0.3,0.4s0.3,0.2,0.4,0.3c0.2,0.1,0.3,0.1,0.5,0.1
				c0.3,0,0.5-0.1,0.7-0.2c0.2-0.1,0.4-0.3,0.5-0.5l1.1,0.3c-0.2,0.4-0.5,0.7-0.9,1c-0.4,0.2-0.9,0.4-1.5,0.4
				c-0.4,0-0.8-0.1-1.1-0.2c-0.3-0.1-0.6-0.3-0.9-0.6c-0.2-0.2-0.4-0.5-0.5-0.9C57.8,70.2,57.7,69.8,57.7,69.5z M59.1,69h2.7
				c0-0.4-0.2-0.7-0.4-0.9c-0.3-0.2-0.6-0.3-0.9-0.3c-0.2,0-0.3,0-0.5,0.1c-0.2,0.1-0.3,0.1-0.4,0.3c-0.1,0.1-0.2,0.2-0.3,0.4
				C59.2,68.6,59.1,68.8,59.1,69z"/>
			<path class="st1" d="M64,70.9v-6h1.3v5.6c0,0.2,0,0.3,0.1,0.4c0.1,0.1,0.2,0.2,0.4,0.2c0.1,0,0.2,0,0.3,0c0.1,0,0.2-0.1,0.3-0.1
				l0.2,1c-0.2,0.1-0.4,0.2-0.6,0.2c-0.2,0-0.5,0.1-0.6,0.1c-0.4,0-0.7-0.1-1-0.3C64.1,71.6,64,71.3,64,70.9z"/>
			<path class="st1" d="M67.1,66.2V65h1.3v1.2H67.1z M67.1,72.1v-5.2h1.3v5.2H67.1z"/>
			<path class="st1" d="M69.2,67.8v-0.9h0.7v-1.8h1.3v1.8h1.1v0.9h-1.1v2.6c0,0.2,0,0.3,0.1,0.4c0.1,0.1,0.2,0.1,0.3,0.1
				c0.1,0,0.3,0,0.4-0.1c0.1,0,0.2-0.1,0.3-0.1l0.3,1c-0.2,0.1-0.4,0.2-0.7,0.2c-0.3,0.1-0.5,0.1-0.8,0.1c-0.2,0-0.4,0-0.5-0.1
				c-0.2,0-0.3-0.1-0.4-0.2c-0.1-0.1-0.2-0.2-0.3-0.4c-0.1-0.2-0.1-0.4-0.1-0.6v-3H69.2z"/>
			<path class="st1" d="M72.9,66.9h1.4l1.4,4l1.2-4h1.2l-2.2,6.2c-0.1,0.4-0.3,0.7-0.6,0.9c-0.3,0.2-0.7,0.3-1.1,0.3
				c-0.1,0-0.2,0-0.3,0c-0.1,0-0.2,0-0.3-0.1v-1.2c0.1,0,0.2,0.1,0.3,0.1c0.1,0,0.2,0,0.3,0c0.1,0,0.2,0,0.2,0
				c0.1,0,0.1-0.1,0.2-0.2c0.1-0.1,0.1-0.2,0.2-0.3c0.1-0.1,0.1-0.3,0.2-0.5L72.9,66.9z"/>
			<path class="st1" d="M24.3,76.9h1.5l2,5.4l0.9-2.2l-1.2-3.2h1.3l0.8,2.3l0.8-2.3h1.3l-1.2,3.2l0.9,2.2l2-5.4h1.5l-2.9,7h-1.1
				L29.5,81l-1.2,2.9h-1.1L24.3,76.9z"/>
			<path class="st1" d="M35.3,78v-1.2h1.3V78H35.3z M35.3,83.9v-5.2h1.3v5.2H35.3z"/>
			<path class="st1" d="M37.8,83.9v-5.2H39v1.1c0.1-0.2,0.2-0.3,0.3-0.5c0.1-0.1,0.3-0.3,0.4-0.4c0.1-0.1,0.3-0.2,0.4-0.2
				c0.1-0.1,0.3-0.1,0.4-0.1c0.1,0,0.1,0,0.2,0c0,0,0.1,0,0.1,0v1.2c-0.4,0-0.8,0.1-1.1,0.2c-0.3,0.2-0.5,0.4-0.7,0.7v3.1H37.8z"/>
			<path class="st1" d="M41.1,81.3c0-0.4,0.1-0.7,0.2-1c0.1-0.3,0.3-0.6,0.5-0.8c0.2-0.2,0.5-0.4,0.9-0.6c0.3-0.1,0.7-0.2,1.1-0.2
				c0.4,0,0.8,0.1,1.1,0.2c0.3,0.1,0.6,0.3,0.8,0.6c0.2,0.2,0.4,0.5,0.5,0.8c0.1,0.3,0.2,0.6,0.2,1c0,0.1,0,0.2,0,0.3
				c0,0.1,0,0.2,0,0.2h-4c0,0.2,0.1,0.4,0.1,0.6c0.1,0.2,0.2,0.3,0.3,0.4c0.1,0.1,0.3,0.2,0.4,0.3c0.2,0.1,0.3,0.1,0.5,0.1
				c0.3,0,0.5-0.1,0.7-0.2c0.2-0.1,0.4-0.3,0.5-0.5l1.1,0.3c-0.2,0.4-0.5,0.7-0.9,1c-0.4,0.2-0.9,0.4-1.5,0.4
				c-0.4,0-0.8-0.1-1.1-0.2c-0.3-0.1-0.6-0.3-0.9-0.6c-0.2-0.2-0.4-0.5-0.5-0.9C41.1,82,41.1,81.7,41.1,81.3z M42.4,80.8h2.7
				c0-0.4-0.2-0.7-0.4-0.9c-0.3-0.2-0.6-0.3-0.9-0.3c-0.2,0-0.3,0-0.5,0.1c-0.2,0.1-0.3,0.1-0.4,0.3c-0.1,0.1-0.2,0.2-0.3,0.4
				C42.5,80.5,42.5,80.6,42.4,80.8z"/>
			<path class="st1" d="M46.9,80v-0.9h0.7v-0.3c0-0.7,0.2-1.2,0.5-1.6c0.3-0.4,0.7-0.6,1.3-0.6c0.4,0,0.8,0.1,1.3,0.3l-0.3,1
				c-0.1-0.1-0.2-0.1-0.4-0.1c-0.1,0-0.3-0.1-0.4-0.1c-0.5,0-0.7,0.3-0.7,1v0.4h1.3V80h-1.3v3.9h-1.3V80H46.9z"/>
			<path class="st1" d="M50.9,83.9v-5.2h1.2v1.1c0.1-0.2,0.2-0.3,0.3-0.5c0.1-0.1,0.3-0.3,0.4-0.4c0.1-0.1,0.3-0.2,0.4-0.2
				c0.1-0.1,0.3-0.1,0.4-0.1c0.1,0,0.1,0,0.2,0c0,0,0.1,0,0.1,0v1.2c-0.4,0-0.8,0.1-1.1,0.2c-0.3,0.2-0.5,0.4-0.7,0.7v3.1H50.9z"/>
			<path class="st1" d="M54.3,82.4c0-0.2,0.1-0.5,0.2-0.7c0.1-0.2,0.3-0.4,0.5-0.5c0.2-0.1,0.4-0.3,0.7-0.3c0.3-0.1,0.6-0.1,0.9-0.1
				c0.2,0,0.5,0,0.7,0.1c0.2,0,0.4,0.1,0.6,0.2v-0.3c0-0.3-0.1-0.6-0.3-0.8c-0.2-0.2-0.5-0.3-0.9-0.3c-0.3,0-0.5,0-0.8,0.1
				c-0.3,0.1-0.5,0.2-0.8,0.4l-0.4-0.8c0.7-0.4,1.4-0.7,2.1-0.7c0.7,0,1.3,0.2,1.7,0.5c0.4,0.4,0.6,0.9,0.6,1.6v1.6
				c0,0.1,0,0.2,0.1,0.3c0,0.1,0.1,0.1,0.2,0.1v1.1C59.2,84,59,84,58.8,84c-0.3,0-0.4-0.1-0.6-0.2c-0.1-0.1-0.2-0.3-0.3-0.4l0-0.3
				c-0.2,0.3-0.5,0.5-0.8,0.7c-0.3,0.2-0.7,0.2-1.1,0.2c-0.2,0-0.5,0-0.7-0.1c-0.2-0.1-0.4-0.2-0.6-0.3c-0.2-0.1-0.3-0.3-0.4-0.5
				C54.3,82.8,54.3,82.6,54.3,82.4z M55.5,82.3c0,0.2,0.1,0.4,0.3,0.6c0.2,0.2,0.4,0.2,0.6,0.2c0.2,0,0.4,0,0.6-0.1
				c0.2-0.1,0.4-0.2,0.5-0.3c0.1-0.1,0.2-0.2,0.2-0.4v-0.6c-0.2-0.1-0.3-0.1-0.5-0.1c-0.2,0-0.4-0.1-0.5-0.1c-0.3,0-0.6,0.1-0.8,0.2
				C55.6,81.8,55.5,82,55.5,82.3z"/>
			<path class="st1" d="M60.3,83.9v-5.2h1.2v1c0.2-0.3,0.4-0.6,0.8-0.8c0.3-0.2,0.7-0.3,1.1-0.3c0.4,0,0.8,0.1,1,0.3
				c0.2,0.2,0.4,0.5,0.5,0.8c0.2-0.4,0.5-0.6,0.8-0.8c0.3-0.2,0.7-0.3,1.1-0.3c0.3,0,0.6,0.1,0.8,0.2c0.2,0.1,0.4,0.3,0.5,0.5
				c0.1,0.2,0.2,0.4,0.2,0.7c0,0.2,0.1,0.5,0.1,0.7v3.2H67V81c0-0.4-0.1-0.7-0.2-0.9c-0.1-0.2-0.3-0.3-0.6-0.3
				c-0.3,0-0.5,0.1-0.7,0.3c-0.2,0.2-0.4,0.5-0.5,0.8v3h-1.3V81c0-0.4-0.1-0.7-0.2-0.9c-0.1-0.2-0.3-0.3-0.6-0.3
				c-0.3,0-0.5,0.1-0.7,0.3c-0.2,0.2-0.4,0.5-0.5,0.8v3H60.3z"/>
			<path class="st1" d="M69.2,81.3c0-0.4,0.1-0.7,0.2-1c0.1-0.3,0.3-0.6,0.5-0.8c0.2-0.2,0.5-0.4,0.9-0.6c0.3-0.1,0.7-0.2,1.1-0.2
				c0.4,0,0.8,0.1,1.1,0.2c0.3,0.1,0.6,0.3,0.8,0.6c0.2,0.2,0.4,0.5,0.5,0.8c0.1,0.3,0.2,0.6,0.2,1c0,0.1,0,0.2,0,0.3
				c0,0.1,0,0.2,0,0.2h-4c0,0.2,0.1,0.4,0.1,0.6c0.1,0.2,0.2,0.3,0.3,0.4c0.1,0.1,0.3,0.2,0.4,0.3c0.2,0.1,0.3,0.1,0.5,0.1
				c0.3,0,0.5-0.1,0.7-0.2c0.2-0.1,0.4-0.3,0.5-0.5l1.1,0.3c-0.2,0.4-0.5,0.7-0.9,1C73,83.9,72.5,84,71.9,84c-0.4,0-0.8-0.1-1.1-0.2
				c-0.3-0.1-0.6-0.3-0.9-0.6c-0.2-0.2-0.4-0.5-0.5-0.9C69.2,82,69.2,81.7,69.2,81.3z M70.6,80.8h2.7c0-0.4-0.2-0.7-0.4-0.9
				c-0.3-0.2-0.6-0.3-0.9-0.3c-0.2,0-0.3,0-0.5,0.1c-0.2,0.1-0.3,0.1-0.4,0.3c-0.1,0.1-0.2,0.2-0.3,0.4
				C70.6,80.5,70.6,80.6,70.6,80.8z"/>
		</g>
	</g>
	<g>
		<path class="st2" d="M37.6,52.6c-5.2,0-9.4-4-9.8-9h19.7C47,48.7,42.8,52.6,37.6,52.6z"/>
		<g>
			<path class="st1" d="M74.2,57.8H55.9c-1,0-1.8-0.4-2.2-1.1c-0.5-0.8-0.5-1.8,0-2.9l7-14.1v-8.3h-0.6v-7.2h10v7.2h-0.6v8.3l7,14.1
				c0.5,1,0.5,2.1,0,2.9C75.9,57.4,75.1,57.8,74.2,57.8z M62.4,29.1H63v11.2l-7.2,14.6c-0.2,0.4-0.2,0.6-0.1,0.6c0,0,0.1,0,0.2,0
				h18.3c0.2,0,0.2,0,0.2,0c0,0,0-0.2-0.1-0.6l-7.2-14.6V29.1h0.6v-2.6h-5.4V29.1z"/>
		</g>
		<polygon class="st2" points="59.2,53.2 65.1,41.4 70.9,53.2 		"/>
		<g>
			<g>
				<path class="st1" d="M37.6,57.8c-8.3,0-15.1-6.8-15.1-15.1c0-6.8,4.4-12.6,10.8-14.5v-5.1h-0.9V16h10.4v7.2h-0.9v5.1
					c6.4,1.9,10.8,7.7,10.8,14.5C52.7,51.1,45.9,57.8,37.6,57.8z M34.8,20.9h0.9v9.2l-0.9,0.2c-5.8,1.3-9.9,6.5-9.9,12.5
					c0,7,5.7,12.8,12.8,12.8c7,0,12.8-5.7,12.8-12.8c0-6-4.1-11.1-9.9-12.5l-0.9-0.2v-9.2h0.9v-2.6h-5.7V20.9z"/>
			</g>
		</g>
	</g>
</g>
</svg>
