<?xml version="1.0" encoding="utf-8"?>
<!-- Generator: Adobe Illustrator 19.2.1, SVG Export Plug-In . SVG Version: 6.00 Build 0)  -->
<svg version="1.1" id="Layer_1" xmlns="http://www.w3.org/2000/svg" xmlns:xlink="http://www.w3.org/1999/xlink" x="0px" y="0px"
	 viewBox="0 0 30 30" style="enable-background:new 0 0 30 30;" xml:space="preserve">
<rect class="TW_0" width="30" height="30"/>
<path class="TW_1" d="M23.9,7.8c-0.7,0.4-1.6,0.7-2.4,0.9c-0.7-0.7-1.7-1.2-2.8-1.2c-2.1,0-3.8,1.7-3.8,3.8c0,0.3,0,0.6,0.1,0.9
	c-3.2-0.2-6-1.7-7.9-4c-0.3,0.6-0.5,1.2-0.5,1.9c0,1.3,0.7,2.5,1.7,3.2c-0.6,0-1.2-0.2-1.7-0.5l0,0c0,1.8,1.3,3.4,3.1,3.7
	c-0.3,0.1-0.7,0.1-1,0.1c-0.2,0-0.5,0-0.7-0.1c0.5,1.5,1.9,2.6,3.6,2.6c-1.3,1-3,1.6-4.8,1.6c-0.3,0-0.6,0-0.9-0.1
	c1.7,1.1,3.7,1.7,5.9,1.7c7.1,0,10.9-5.8,10.9-10.8c0-0.2,0-0.3,0-0.5c0.8-0.5,1.4-1.2,1.9-2c-0.7,0.3-1.4,0.5-2.2,0.6
	C23,9.4,23.6,8.7,23.9,7.8"/>
</svg>
