<?xml version="1.0" encoding="utf-8"?>
<!-- Generator: Adobe Illustrator 19.2.1, SVG Export Plug-In . SVG Version: 6.00 Build 0)  -->
<svg version="1.1" id="Layer_1" xmlns="http://www.w3.org/2000/svg" xmlns:xlink="http://www.w3.org/1999/xlink" x="0px" y="0px"
	 viewBox="0 0 200 200" style="enable-background:new 0 0 200 200;" xml:space="preserve">
<style type="text/css">
	.st0{fill:#002121;}
	.st1{fill:#00B1FF;}
</style>
<g>
	<g>
		<g>
			<path class="st0" d="M199.8,187.4H0.2V37.6h199.7V187.4z M6.4,181.1h187.2V43.8H6.4V181.1z"/>
		</g>
		<g>
			<path class="st1" d="M81.3,87.5h-25v-25h25V87.5z M62.6,81.3H75V68.8H62.6V81.3z"/>
		</g>
		<g>
			<path class="st1" d="M112.5,87.5h-25v-25h25V87.5z M93.8,81.3h12.5V68.8H93.8V81.3z"/>
		</g>
		<g>
			<path class="st1" d="M143.7,87.5h-25v-25h25V87.5z M125,81.3h12.5V68.8H125V81.3z"/>
		</g>
		<g>
			<path class="st1" d="M174.9,87.5h-25v-25h25V87.5z M156.2,81.3h12.5V68.8h-12.5V81.3z"/>
		</g>
		<g>
			<path class="st1" d="M50.1,118.7h-25v-25h25V118.7z M31.4,112.5h12.5V100H31.4V112.5z"/>
		</g>
		<g>
			<path class="st1" d="M81.3,118.7h-25v-25h25V118.7z M62.6,112.5H75V100H62.6V112.5z"/>
		</g>
		<g>
			<path class="st1" d="M112.5,118.7h-25v-25h25V118.7z M93.8,112.5h12.5V100H93.8V112.5z"/>
		</g>
		<g>
			<path class="st1" d="M174.9,118.7h-25v-25h25V118.7z M156.2,112.5h12.5V100h-12.5V112.5z"/>
		</g>
		<g>
			<path class="st1" d="M50.1,149.9h-25v-25h25V149.9z M31.4,143.7h12.5v-12.5H31.4V143.7z"/>
		</g>
		<g>
			<path class="st1" d="M112.5,149.9h-25v-25h25V149.9z M93.8,143.7h12.5v-12.5H93.8V143.7z"/>
		</g>
		<g>
			<path class="st1" d="M143.7,149.9h-25v-25h25V149.9z M125,143.7h12.5v-12.5H125V143.7z"/>
		</g>
		<g>
			<path class="st1" d="M174.9,149.9h-25v-25h25V149.9z M156.2,143.7h12.5v-12.5h-12.5V143.7z"/>
		</g>
		<g>
			<polygon class="st0" points="199.8,40.7 193.6,40.7 193.6,18.9 6.4,18.9 6.4,40.7 0.2,40.7 0.2,12.6 199.8,12.6 			"/>
		</g>
		<g>
			<rect x="106.2" y="25.1" class="st0" width="6.2" height="6.2"/>
		</g>
		<g>
			<rect x="118.7" y="25.1" class="st0" width="6.2" height="6.2"/>
		</g>
		<g>
			<rect x="131.2" y="25.1" class="st0" width="6.2" height="6.2"/>
		</g>
		<g>
			<rect x="62.6" y="25.1" class="st0" width="6.2" height="6.2"/>
		</g>
		<g>
			<rect x="75" y="25.1" class="st0" width="6.2" height="6.2"/>
		</g>
		<g>
			<rect x="87.5" y="25.1" class="st0" width="6.2" height="6.2"/>
		</g>
		<g>
			<g>
				
					<rect x="24.4" y="71.9" transform="matrix(0.7071 -0.7071 0.7071 0.7071 -42.0485 48.5643)" class="st1" width="26.5" height="6.2"/>
			</g>
			<g>
				
					<rect x="34.5" y="61.8" transform="matrix(0.7071 -0.7071 0.7071 0.7071 -42.0485 48.5643)" class="st1" width="6.2" height="26.5"/>
			</g>
		</g>
		<g>
			<g>
				
					<rect x="55.6" y="134.3" transform="matrix(0.7071 -0.7071 0.7071 0.7071 -77.0348 88.9038)" class="st1" width="26.5" height="6.2"/>
			</g>
			<g>
				
					<rect x="65.7" y="124.2" transform="matrix(0.7071 -0.7071 0.7071 0.7071 -77.0348 88.9038)" class="st1" width="6.2" height="26.5"/>
			</g>
		</g>
		<g>
			<g>
				
					<rect x="118" y="103.1" transform="matrix(0.7071 -0.7071 0.7071 0.7071 -36.6953 123.8901)" class="st1" width="26.5" height="6.2"/>
			</g>
			<g>
				
					<rect x="128.1" y="93" transform="matrix(0.7071 -0.7071 0.7071 0.7071 -36.6953 123.8901)" class="st1" width="6.2" height="26.5"/>
			</g>
		</g>
		<g>
			<rect x="3.3" y="168.6" class="st0" width="193.4" height="6.2"/>
		</g>
	</g>
</g>
</svg>
