<?xml version="1.0" encoding="utf-8"?>
<!-- Generator: Adobe Illustrator 19.2.1, SVG Export Plug-In . SVG Version: 6.00 Build 0)  -->
<svg version="1.1" id="Layer_1" xmlns="http://www.w3.org/2000/svg" xmlns:xlink="http://www.w3.org/1999/xlink" x="0px" y="0px"
	 viewBox="0 0 100 100" style="enable-background:new 0 0 100 100;" xml:space="preserve">
<style type="text/css">
	.st0{fill:#FFFFFF;}
	.st1{fill:#212120;}
	.st2{fill:#00B1FF;}
	.st3{fill:#282D33;}
</style>
<polygon class="st0" points="25,93.3 0,50 25,6.7 75,6.7 100,50 75,93.3 "/>
<g>
	<g>
		<path class="st1" d="M18.3,81.3v-7h2.6c0.6,0,1.1,0.1,1.5,0.3c0.4,0.2,0.8,0.4,1.1,0.7c0.3,0.3,0.5,0.7,0.7,1.1
			c0.1,0.4,0.2,0.9,0.2,1.4c0,0.5-0.1,1-0.2,1.4c-0.2,0.4-0.4,0.8-0.7,1.1c-0.3,0.3-0.7,0.5-1.1,0.7c-0.4,0.2-0.9,0.3-1.4,0.3H18.3z
			 M19.7,80.1h1.2c0.3,0,0.6-0.1,0.9-0.2c0.3-0.1,0.5-0.3,0.7-0.5c0.2-0.2,0.3-0.5,0.4-0.7c0.1-0.3,0.1-0.6,0.1-0.9
			c0-0.3,0-0.6-0.1-0.9c-0.1-0.3-0.2-0.5-0.4-0.7c-0.2-0.2-0.4-0.4-0.7-0.5c-0.3-0.1-0.6-0.2-0.9-0.2h-1.2V80.1z"/>
		<path class="st1" d="M24.9,78.7c0-0.4,0.1-0.7,0.2-1c0.1-0.3,0.3-0.6,0.5-0.8c0.2-0.2,0.5-0.4,0.9-0.6c0.3-0.1,0.7-0.2,1.1-0.2
			c0.4,0,0.8,0.1,1.1,0.2c0.3,0.1,0.6,0.3,0.8,0.6c0.2,0.2,0.4,0.5,0.5,0.8c0.1,0.3,0.2,0.6,0.2,1c0,0.1,0,0.2,0,0.3
			c0,0.1,0,0.2,0,0.2h-4c0,0.2,0.1,0.4,0.1,0.6c0.1,0.2,0.2,0.3,0.3,0.4c0.1,0.1,0.3,0.2,0.4,0.3c0.2,0.1,0.3,0.1,0.5,0.1
			c0.3,0,0.5-0.1,0.7-0.2c0.2-0.1,0.4-0.3,0.5-0.5l1.1,0.3c-0.2,0.4-0.5,0.7-0.9,1c-0.4,0.2-0.9,0.4-1.5,0.4c-0.4,0-0.8-0.1-1.1-0.2
			c-0.3-0.1-0.6-0.3-0.9-0.6c-0.2-0.2-0.4-0.5-0.5-0.9C25,79.4,24.9,79.1,24.9,78.7z M26.3,78.2H29c0-0.4-0.2-0.7-0.4-0.9
			C28.3,77.1,28,77,27.7,77c-0.2,0-0.3,0-0.5,0.1c-0.2,0.1-0.3,0.1-0.4,0.3c-0.1,0.1-0.2,0.2-0.3,0.4C26.4,77.9,26.3,78,26.3,78.2z"
			/>
		<path class="st1" d="M30.5,76.1h1.4l1.3,4.1l1.3-4.1h1.2l-1.9,5.2h-1.4L30.5,76.1z"/>
		<path class="st1" d="M35.9,78.7c0-0.4,0.1-0.7,0.2-1c0.1-0.3,0.3-0.6,0.5-0.8c0.2-0.2,0.5-0.4,0.9-0.6c0.3-0.1,0.7-0.2,1.1-0.2
			c0.4,0,0.8,0.1,1.1,0.2c0.3,0.1,0.6,0.3,0.8,0.6c0.2,0.2,0.4,0.5,0.5,0.8c0.1,0.3,0.2,0.6,0.2,1c0,0.1,0,0.2,0,0.3
			c0,0.1,0,0.2,0,0.2h-4c0,0.2,0.1,0.4,0.1,0.6c0.1,0.2,0.2,0.3,0.3,0.4c0.1,0.1,0.3,0.2,0.4,0.3c0.2,0.1,0.3,0.1,0.5,0.1
			c0.3,0,0.5-0.1,0.7-0.2c0.2-0.1,0.4-0.3,0.5-0.5l1.1,0.3c-0.2,0.4-0.5,0.7-0.9,1c-0.4,0.2-0.9,0.4-1.5,0.4c-0.4,0-0.8-0.1-1.1-0.2
			c-0.3-0.1-0.6-0.3-0.9-0.6c-0.2-0.2-0.4-0.5-0.5-0.9C36,79.4,35.9,79.1,35.9,78.7z M37.3,78.2H40c0-0.4-0.2-0.7-0.4-0.9
			C39.3,77.1,39,77,38.7,77c-0.2,0-0.3,0-0.5,0.1c-0.2,0.1-0.3,0.1-0.4,0.3c-0.1,0.1-0.2,0.2-0.3,0.4C37.4,77.9,37.3,78,37.3,78.2z"
			/>
		<path class="st1" d="M42.2,80.1v-6h1.3v5.6c0,0.2,0,0.3,0.1,0.4c0.1,0.1,0.2,0.2,0.4,0.2c0.1,0,0.2,0,0.3,0c0.1,0,0.2-0.1,0.3-0.1
			l0.2,1c-0.2,0.1-0.4,0.2-0.6,0.2c-0.2,0-0.5,0.1-0.6,0.1c-0.4,0-0.7-0.1-1-0.3C42.3,80.8,42.2,80.5,42.2,80.1z"/>
		<path class="st1" d="M45,78.7c0-0.4,0.1-0.7,0.2-1c0.1-0.3,0.3-0.6,0.5-0.9c0.2-0.2,0.5-0.4,0.9-0.6c0.3-0.1,0.7-0.2,1.1-0.2
			c0.4,0,0.8,0.1,1.1,0.2c0.3,0.1,0.6,0.3,0.9,0.6c0.2,0.2,0.4,0.5,0.5,0.9c0.1,0.3,0.2,0.7,0.2,1c0,0.4-0.1,0.7-0.2,1
			c-0.1,0.3-0.3,0.6-0.5,0.9c-0.2,0.2-0.5,0.4-0.9,0.6c-0.3,0.1-0.7,0.2-1.1,0.2c-0.4,0-0.8-0.1-1.1-0.2c-0.3-0.1-0.6-0.3-0.9-0.6
			c-0.2-0.2-0.4-0.5-0.5-0.9C45.1,79.4,45,79.1,45,78.7z M46.4,78.7c0,0.2,0,0.4,0.1,0.6c0.1,0.2,0.2,0.4,0.3,0.5
			c0.1,0.1,0.3,0.2,0.4,0.3c0.2,0.1,0.3,0.1,0.5,0.1c0.2,0,0.4,0,0.5-0.1c0.2-0.1,0.3-0.2,0.4-0.3c0.1-0.1,0.2-0.3,0.3-0.5
			c0.1-0.2,0.1-0.4,0.1-0.6c0-0.2,0-0.4-0.1-0.6c-0.1-0.2-0.2-0.4-0.3-0.5c-0.1-0.1-0.3-0.2-0.4-0.3c-0.2-0.1-0.3-0.1-0.5-0.1
			c-0.2,0-0.4,0-0.5,0.1c-0.2,0.1-0.3,0.2-0.4,0.3s-0.2,0.3-0.3,0.5C46.4,78.3,46.4,78.5,46.4,78.7z"/>
		<path class="st1" d="M51.3,83.4v-7.3h1.2V77c0.2-0.3,0.4-0.5,0.7-0.7c0.3-0.2,0.7-0.3,1-0.3c0.4,0,0.7,0.1,1,0.2
			c0.3,0.1,0.6,0.3,0.8,0.6c0.2,0.2,0.4,0.5,0.5,0.9c0.1,0.3,0.2,0.7,0.2,1c0,0.4-0.1,0.7-0.2,1.1c-0.1,0.3-0.3,0.6-0.5,0.9
			c-0.2,0.2-0.4,0.4-0.7,0.6c-0.3,0.1-0.6,0.2-0.9,0.2c-0.4,0-0.8-0.1-1.1-0.3c-0.3-0.2-0.5-0.4-0.7-0.7v3H51.3z M52.6,79.2
			c0.1,0.3,0.3,0.5,0.5,0.7c0.2,0.2,0.5,0.3,0.8,0.3c0.2,0,0.4,0,0.5-0.1s0.3-0.2,0.4-0.3c0.1-0.1,0.2-0.3,0.3-0.5
			c0.1-0.2,0.1-0.4,0.1-0.6c0-0.2,0-0.4-0.1-0.6c-0.1-0.2-0.2-0.3-0.3-0.5c-0.1-0.1-0.3-0.2-0.5-0.3c-0.2-0.1-0.4-0.1-0.6-0.1
			c-0.1,0-0.3,0-0.4,0.1c-0.1,0-0.3,0.1-0.4,0.2c-0.1,0.1-0.2,0.2-0.3,0.3c-0.1,0.1-0.2,0.2-0.2,0.3V79.2z"/>
		<path class="st1" d="M57.6,81.3v-5.2h1.2v1c0.2-0.3,0.4-0.6,0.8-0.8c0.3-0.2,0.7-0.3,1.1-0.3c0.4,0,0.8,0.1,1,0.3
			c0.2,0.2,0.4,0.5,0.5,0.8c0.2-0.4,0.5-0.6,0.8-0.8c0.3-0.2,0.7-0.3,1.1-0.3c0.3,0,0.6,0.1,0.8,0.2c0.2,0.1,0.4,0.3,0.5,0.5
			c0.1,0.2,0.2,0.4,0.2,0.7c0,0.2,0.1,0.5,0.1,0.7v3.2h-1.3v-2.9c0-0.4-0.1-0.7-0.2-0.9c-0.1-0.2-0.3-0.3-0.6-0.3
			c-0.3,0-0.5,0.1-0.7,0.3c-0.2,0.2-0.4,0.5-0.5,0.8v3h-1.3v-2.9c0-0.4-0.1-0.7-0.2-0.9c-0.1-0.2-0.3-0.3-0.6-0.3
			c-0.3,0-0.5,0.1-0.7,0.3c-0.2,0.2-0.4,0.5-0.5,0.8v3H57.6z"/>
		<path class="st1" d="M66.4,78.7c0-0.4,0.1-0.7,0.2-1c0.1-0.3,0.3-0.6,0.5-0.8c0.2-0.2,0.5-0.4,0.9-0.6c0.3-0.1,0.7-0.2,1.1-0.2
			c0.4,0,0.8,0.1,1.1,0.2c0.3,0.1,0.6,0.3,0.8,0.6c0.2,0.2,0.4,0.5,0.5,0.8c0.1,0.3,0.2,0.6,0.2,1c0,0.1,0,0.2,0,0.3
			c0,0.1,0,0.2,0,0.2h-4c0,0.2,0.1,0.4,0.1,0.6c0.1,0.2,0.2,0.3,0.3,0.4c0.1,0.1,0.3,0.2,0.4,0.3c0.2,0.1,0.3,0.1,0.5,0.1
			c0.3,0,0.5-0.1,0.7-0.2c0.2-0.1,0.4-0.3,0.5-0.5l1.1,0.3c-0.2,0.4-0.5,0.7-0.9,1c-0.4,0.2-0.9,0.4-1.5,0.4c-0.4,0-0.8-0.1-1.1-0.2
			c-0.3-0.1-0.6-0.3-0.9-0.6c-0.2-0.2-0.4-0.5-0.5-0.9C66.5,79.4,66.4,79.1,66.4,78.7z M67.8,78.2h2.7c0-0.4-0.2-0.7-0.4-0.9
			c-0.3-0.2-0.6-0.3-0.9-0.3c-0.2,0-0.3,0-0.5,0.1c-0.2,0.1-0.3,0.1-0.4,0.3c-0.1,0.1-0.2,0.2-0.3,0.4C67.9,77.9,67.8,78,67.8,78.2z
			"/>
		<path class="st1" d="M72.7,81.3v-5.2h1.2v1c0.2-0.3,0.5-0.6,0.8-0.8c0.4-0.2,0.8-0.3,1.2-0.3c0.3,0,0.6,0.1,0.8,0.2
			c0.2,0.1,0.4,0.3,0.5,0.5c0.1,0.2,0.2,0.4,0.2,0.7c0,0.2,0.1,0.5,0.1,0.7v3.2h-1.3v-2.9c0-0.4-0.1-0.7-0.2-0.9
			c-0.1-0.2-0.3-0.3-0.6-0.3c-0.1,0-0.3,0-0.4,0.1c-0.1,0.1-0.3,0.1-0.4,0.2c-0.1,0.1-0.2,0.2-0.3,0.3C74.1,78,74,78.1,74,78.3v3
			H72.7z"/>
		<path class="st1" d="M78.2,77.1v-0.9h0.7v-1.8h1.3v1.8h1.1v0.9h-1.1v2.6c0,0.2,0,0.3,0.1,0.4c0.1,0.1,0.2,0.1,0.3,0.1
			c0.1,0,0.3,0,0.4-0.1c0.1,0,0.2-0.1,0.3-0.1l0.3,1c-0.2,0.1-0.4,0.2-0.7,0.2c-0.3,0.1-0.5,0.1-0.8,0.1c-0.2,0-0.4,0-0.5-0.1
			c-0.2,0-0.3-0.1-0.4-0.2c-0.1-0.1-0.2-0.2-0.3-0.4c-0.1-0.2-0.1-0.4-0.1-0.6v-3H78.2z"/>
	</g>
	<g>
		<g>
			<g>
				<g>
					<path class="st0" d="M74.1,47.5V18.8c0-0.7-0.6-1.3-1.3-1.3H26.5c-0.7,0-1.3,0.6-1.3,1.3v28.6H74.1z"/>
					<path class="st1" d="M75,48.4H24.3V18.8c0-1.2,1-2.2,2.2-2.2h46.2c1.2,0,2.2,1,2.2,2.2V48.4z M26.1,46.6h47.1V18.8
						c0-0.2-0.2-0.4-0.4-0.4H26.5c-0.2,0-0.4,0.2-0.4,0.4V46.6z"/>
				</g>
				<rect x="29" y="21.4" class="st2" width="41.2" height="22.1"/>
				<g>
					<path class="st0" d="M25.2,47.4v4.1c0,0.8,0.8,1.7,1.6,1.7h46.1c0.8,0,1.3-0.8,1.3-1.6v-4.2H25.2z"/>
					<path class="st1" d="M72.8,54.1H26.8c-1.3,0-2.5-1.3-2.5-2.6v-5H75v5.1C75,52.9,74.2,54.1,72.8,54.1z M26.1,48.3v3.2
						c0,0.3,0.4,0.8,0.7,0.8h46.1c0.2,0,0.4-0.3,0.4-0.7v-3.3H26.1z"/>
				</g>
				<g>
					<path class="st1" d="M42.3,60.5l-0.7-1.7c0.5-0.2,1-0.4,1.2-0.6l0.1,0c0.1,0,0.2-0.1,0.2-0.1c0,0,0-0.1,0.1-0.6
						c0.1-0.6,0.1-1.7,0.1-2.6c0-0.7,0-1.3,0-1.7l1.8,0.1c0,0.4,0,0.9,0,1.6c0,1.1,0,2.2-0.1,3c-0.2,1.2-0.5,1.5-1.3,1.9l-0.1,0
						C43.3,60,42.7,60.3,42.3,60.5z"/>
				</g>
				<g>
					<path class="st0" d="M57.3,59.6c-0.4-0.2-1-0.4-1.3-0.6c-0.5-0.3-0.6-0.3-0.8-1.4c-0.2-1.1,0-3.3-0.1-4.4"/>
					<path class="st3" d="M56.9,60.5c-0.4-0.2-1-0.4-1.3-0.6l0,0c-0.8-0.5-1-0.8-1.3-1.9c-0.2-0.8-0.1-1.9-0.1-2.9
						c0-0.6,0-1.2,0-1.5l1.8-0.1c0,0.4,0,1.1,0,1.7c0,0.9,0,2,0.1,2.6c0.1,0.4,0.1,0.6,0.2,0.6c0,0,0.1,0.1,0.2,0.1l0,0
						c0.2,0.1,0.7,0.3,1.2,0.6L56.9,60.5z"/>
				</g>
				<g>
					<line class="st0" x1="40.6" y1="59.5" x2="58.7" y2="59.5"/>
					<rect x="40.6" y="58.6" class="st1" width="18.1" height="1.8"/>
				</g>
			</g>
		</g>
		<g>
			<g>
				<path class="st0" d="M50.2,40.2c0-0.6,0.5-1,1-1h17c0.6,0,1,0.5,1,1v24.8c0,0.6-0.5,1-1,1h-17c-0.6,0-1-0.5-1-1V40.2z"/>
				<path class="st1" d="M68.2,67h-17c-1.1,0-1.9-0.9-1.9-1.9V40.2c0-1.1,0.9-1.9,1.9-1.9h17c1.1,0,1.9,0.9,1.9,1.9v24.8
					C70.1,66.1,69.3,67,68.2,67z M51.2,40.1c-0.1,0-0.1,0-0.1,0.1v24.8c0,0.1,0,0.1,0.1,0.1h17c0.1,0,0.1,0,0.1-0.1V40.2
					c0-0.1,0-0.1-0.1-0.1H51.2z"/>
			</g>
			<rect x="52.7" y="41.9" class="st2" width="14.1" height="21.4"/>
		</g>
		<g>
			<g>
				<path class="st0" d="M74.1,65.6c0,0.4-0.3,0.6-0.6,0.6h-8.9c-0.4,0-0.6-0.3-0.6-0.6V46.7c0-0.4,0.3-0.6,0.6-0.6h8.9
					c0.4,0,0.6,0.3,0.6,0.6V65.6z"/>
				<path class="st1" d="M73.5,67.1h-8.9c-0.9,0-1.5-0.7-1.5-1.5V46.7c0-0.9,0.7-1.5,1.5-1.5h8.9c0.9,0,1.5,0.7,1.5,1.5v18.8
					C75,66.4,74.4,67.1,73.5,67.1z M64.8,65.3h8.4V47h-8.4V65.3z"/>
			</g>
			<g>
				<rect x="64.7" y="61.5" class="st1" width="9.4" height="1.8"/>
			</g>
		</g>
		<g>
			<g>
				<g>
					<polygon class="st0" points="56.1,30.2 56.1,26.2 52.1,26.2 52.1,24.4 57.9,24.4 57.9,30.2 					"/>
				</g>
				<g>
					
						<rect x="50.3" y="27.7" transform="matrix(0.707 -0.7072 0.7072 0.707 -4.4506 46.3711)" class="st0" width="6.9" height="1.8"/>
				</g>
			</g>
			<g>
				<g>
					<polygon class="st0" points="48,40.1 42.2,40.1 42.2,34.3 44,34.3 44,38.3 48,38.3 					"/>
				</g>
				<g>
					
						<rect x="42.9" y="35" transform="matrix(0.7071 -0.7071 0.7071 0.7071 -11.8328 43.3061)" class="st0" width="6.8" height="1.8"/>
				</g>
			</g>
		</g>
	</g>
</g>
</svg>
