<?xml version="1.0" encoding="utf-8"?>
<!-- Generator: Adobe Illustrator 19.2.1, SVG Export Plug-In . SVG Version: 6.00 Build 0)  -->
<svg version="1.1" id="Layer_1" xmlns="http://www.w3.org/2000/svg" xmlns:xlink="http://www.w3.org/1999/xlink" x="0px" y="0px"
	 viewBox="0 0 100 100" style="enable-background:new 0 0 100 100;" xml:space="preserve">
<style type="text/css">
	.st0{fill:#FFFFFF;}
	.st1{fill:#212120;}
	.st2{fill:#282D33;}
	.st3{fill:#00EA7A;}
</style>
<polygon class="st0" points="25,93.3 0,50 25,6.7 75,6.7 100,50 75,93.3 "/>
<g>
	<g>
		<path class="st1" d="M20.5,72.9v-7h1.4v2.8h3.2v-2.8h1.4v7h-1.4v-3h-3.2v3H20.5z"/>
		<path class="st1" d="M27.8,67v-1.2h1.3V67H27.8z M27.8,72.9v-5.2h1.3v5.2H27.8z"/>
		<path class="st1" d="M30,70.3c0-0.4,0.1-0.7,0.2-1c0.1-0.3,0.3-0.6,0.5-0.8c0.2-0.2,0.5-0.4,0.8-0.6c0.3-0.1,0.6-0.2,1-0.2
			c0.4,0,0.8,0.1,1.1,0.3c0.3,0.2,0.6,0.4,0.7,0.7v-0.9h1.2v4.9c0,0.4-0.1,0.7-0.2,1c-0.1,0.3-0.3,0.6-0.6,0.8
			c-0.3,0.2-0.6,0.4-0.9,0.5c-0.4,0.1-0.7,0.2-1.1,0.2c-0.6,0-1-0.1-1.4-0.3c-0.4-0.2-0.7-0.4-1-0.8l0.7-0.7
			c0.2,0.3,0.4,0.5,0.7,0.6c0.3,0.1,0.6,0.2,1,0.2c0.2,0,0.4,0,0.6-0.1c0.2-0.1,0.4-0.1,0.5-0.3c0.1-0.1,0.3-0.3,0.3-0.5
			c0.1-0.2,0.1-0.4,0.1-0.7V72c-0.2,0.3-0.4,0.5-0.7,0.7c-0.3,0.2-0.6,0.2-1,0.2c-0.4,0-0.7-0.1-1-0.2c-0.3-0.1-0.5-0.3-0.7-0.6
			c-0.2-0.2-0.4-0.5-0.5-0.8C30,71,30,70.6,30,70.3z M31.3,70.3c0,0.2,0,0.4,0.1,0.6c0.1,0.2,0.2,0.3,0.3,0.5
			c0.1,0.1,0.3,0.2,0.5,0.3c0.2,0.1,0.4,0.1,0.6,0.1c0.1,0,0.3,0,0.4-0.1c0.1,0,0.3-0.1,0.4-0.2s0.2-0.2,0.3-0.3
			c0.1-0.1,0.1-0.2,0.2-0.3v-1.2c-0.1-0.3-0.3-0.5-0.6-0.7c-0.3-0.2-0.5-0.3-0.8-0.3c-0.2,0-0.4,0-0.6,0.1c-0.2,0.1-0.3,0.2-0.4,0.3
			c-0.1,0.1-0.2,0.3-0.3,0.5C31.4,69.9,31.3,70.1,31.3,70.3z"/>
		<path class="st1" d="M36.5,72.9v-7.2h1.3v3c0.2-0.3,0.4-0.6,0.8-0.8s0.7-0.3,1.1-0.3c0.3,0,0.6,0.1,0.8,0.2
			c0.2,0.1,0.4,0.3,0.5,0.5c0.1,0.2,0.2,0.4,0.2,0.7c0,0.2,0.1,0.5,0.1,0.7v3.2H40V70c0-0.4-0.1-0.7-0.2-0.9
			c-0.2-0.2-0.4-0.3-0.6-0.3c-0.1,0-0.2,0-0.4,0.1c-0.1,0.1-0.3,0.1-0.4,0.2c-0.1,0.1-0.2,0.2-0.3,0.3c-0.1,0.1-0.2,0.3-0.2,0.4v3
			H36.5z"/>
		<path class="st1" d="M45,72.9v-7h4.7v1.2h-3.3v1.8h2.8V70h-2.8v2.9H45z"/>
		<path class="st1" d="M50.5,67v-1.2h1.3V67H50.5z M50.5,72.9v-5.2h1.3v5.2H50.5z"/>
		<path class="st1" d="M52.7,70.3c0-0.4,0.1-0.7,0.2-1c0.1-0.3,0.3-0.6,0.5-0.8s0.4-0.4,0.7-0.6s0.6-0.2,0.9-0.2
			c0.4,0,0.7,0.1,1,0.3c0.3,0.2,0.5,0.4,0.7,0.7v-2.9h1.3v5.7c0,0.1,0,0.2,0.1,0.3c0,0.1,0.1,0.1,0.2,0.1v1.1
			c-0.2,0-0.4,0.1-0.6,0.1c-0.2,0-0.4-0.1-0.6-0.2c-0.2-0.1-0.2-0.3-0.3-0.5l0-0.3c-0.2,0.3-0.4,0.6-0.8,0.7c-0.3,0.2-0.7,0.3-1,0.3
			c-0.4,0-0.7-0.1-1-0.2c-0.3-0.1-0.6-0.3-0.8-0.6s-0.4-0.5-0.5-0.9C52.8,71,52.7,70.7,52.7,70.3z M54.1,70.3c0,0.2,0,0.4,0.1,0.6
			c0.1,0.2,0.2,0.3,0.3,0.5c0.1,0.1,0.3,0.2,0.4,0.3c0.2,0.1,0.4,0.1,0.6,0.1c0.1,0,0.3,0,0.4-0.1c0.1,0,0.3-0.1,0.4-0.2
			c0.1-0.1,0.2-0.2,0.3-0.3c0.1-0.1,0.2-0.2,0.2-0.3v-1.2c-0.1-0.1-0.1-0.3-0.2-0.4c-0.1-0.1-0.2-0.2-0.3-0.3
			c-0.1-0.1-0.2-0.2-0.4-0.2c-0.1-0.1-0.3-0.1-0.4-0.1c-0.2,0-0.4,0-0.5,0.1s-0.3,0.2-0.4,0.3c-0.1,0.1-0.2,0.3-0.3,0.5
			C54.1,69.9,54.1,70.1,54.1,70.3z"/>
		<path class="st1" d="M59.1,70.3c0-0.4,0.1-0.7,0.2-1s0.3-0.6,0.5-0.8c0.2-0.2,0.5-0.4,0.9-0.6c0.3-0.1,0.7-0.2,1.1-0.2
			c0.4,0,0.8,0.1,1.1,0.2s0.6,0.3,0.8,0.6c0.2,0.2,0.4,0.5,0.5,0.8c0.1,0.3,0.2,0.6,0.2,1c0,0.1,0,0.2,0,0.3c0,0.1,0,0.2,0,0.2h-4
			c0,0.2,0.1,0.4,0.1,0.6c0.1,0.2,0.2,0.3,0.3,0.4c0.1,0.1,0.3,0.2,0.4,0.3c0.2,0.1,0.3,0.1,0.5,0.1c0.3,0,0.5-0.1,0.7-0.2
			c0.2-0.1,0.4-0.3,0.5-0.5l1.1,0.3c-0.2,0.4-0.5,0.7-0.9,1c-0.4,0.2-0.9,0.4-1.5,0.4c-0.4,0-0.8-0.1-1.1-0.2
			c-0.3-0.1-0.6-0.3-0.9-0.6c-0.2-0.2-0.4-0.5-0.5-0.9C59.1,71,59.1,70.6,59.1,70.3z M60.5,69.8h2.7c0-0.4-0.2-0.7-0.4-0.9
			c-0.3-0.2-0.6-0.3-0.9-0.3c-0.2,0-0.3,0-0.5,0.1c-0.2,0.1-0.3,0.1-0.4,0.3c-0.1,0.1-0.2,0.2-0.3,0.4
			C60.5,69.4,60.5,69.6,60.5,69.8z"/>
		<path class="st1" d="M65.3,71.7v-6h1.3v5.6c0,0.2,0,0.3,0.1,0.4c0.1,0.1,0.2,0.2,0.4,0.2c0.1,0,0.2,0,0.3,0c0.1,0,0.2-0.1,0.3-0.1
			l0.2,1c-0.2,0.1-0.4,0.2-0.6,0.2c-0.2,0-0.5,0.1-0.6,0.1c-0.4,0-0.7-0.1-1-0.3C65.4,72.4,65.3,72.1,65.3,71.7z"/>
		<path class="st1" d="M68.5,67v-1.2h1.3V67H68.5z M68.5,72.9v-5.2h1.3v5.2H68.5z"/>
		<path class="st1" d="M70.6,68.6v-0.9h0.7v-1.8h1.3v1.8h1.1v0.9h-1.1v2.6c0,0.2,0,0.3,0.1,0.4c0.1,0.1,0.2,0.1,0.3,0.1
			c0.1,0,0.3,0,0.4-0.1c0.1,0,0.2-0.1,0.3-0.1l0.3,1c-0.2,0.1-0.4,0.2-0.7,0.2c-0.3,0.1-0.5,0.1-0.8,0.1c-0.2,0-0.4,0-0.5-0.1
			c-0.2,0-0.3-0.1-0.4-0.2c-0.1-0.1-0.2-0.2-0.3-0.4c-0.1-0.2-0.1-0.4-0.1-0.6v-3H70.6z"/>
		<path class="st1" d="M74.2,67.7h1.4l1.4,4l1.2-4h1.2l-2.2,6.2c-0.1,0.4-0.3,0.7-0.6,0.9c-0.3,0.2-0.7,0.3-1.1,0.3
			c-0.1,0-0.2,0-0.3,0c-0.1,0-0.2,0-0.3-0.1v-1.2c0.1,0,0.2,0.1,0.3,0.1c0.1,0,0.2,0,0.3,0c0.1,0,0.2,0,0.2,0c0.1,0,0.1-0.1,0.2-0.2
			c0.1-0.1,0.1-0.2,0.2-0.3c0.1-0.1,0.1-0.3,0.2-0.5L74.2,67.7z"/>
		<path class="st1" d="M21.8,77.7h1.5l2,5.4l0.9-2.2L25,77.7h1.3l0.8,2.3l0.8-2.3h1.3l-1.2,3.2l0.9,2.2l2-5.4h1.5l-2.9,7h-1.1
			L27,81.8l-1.2,2.9h-1.1L21.8,77.7z"/>
		<path class="st1" d="M32.8,78.8v-1.2h1.3v1.2H32.8z M32.8,84.7v-5.2h1.3v5.2H32.8z"/>
		<path class="st1" d="M35.4,84.7v-5.2h1.2v1.1c0.1-0.2,0.2-0.3,0.3-0.5c0.1-0.1,0.3-0.3,0.4-0.4c0.1-0.1,0.3-0.2,0.4-0.2
			c0.1-0.1,0.3-0.1,0.4-0.1c0.1,0,0.1,0,0.2,0c0,0,0.1,0,0.1,0v1.2c-0.4,0-0.8,0.1-1.1,0.2c-0.3,0.2-0.5,0.4-0.7,0.7v3.1H35.4z"/>
		<path class="st1" d="M38.6,82.1c0-0.4,0.1-0.7,0.2-1c0.1-0.3,0.3-0.6,0.5-0.8c0.2-0.2,0.5-0.4,0.9-0.6c0.3-0.1,0.7-0.2,1.1-0.2
			c0.4,0,0.8,0.1,1.1,0.2c0.3,0.1,0.6,0.3,0.8,0.6c0.2,0.2,0.4,0.5,0.5,0.8c0.1,0.3,0.2,0.6,0.2,1c0,0.1,0,0.2,0,0.3
			c0,0.1,0,0.2,0,0.2h-4c0,0.2,0.1,0.4,0.1,0.6c0.1,0.2,0.2,0.3,0.3,0.4c0.1,0.1,0.3,0.2,0.4,0.3c0.2,0.1,0.3,0.1,0.5,0.1
			c0.3,0,0.5-0.1,0.7-0.2c0.2-0.1,0.4-0.3,0.5-0.5l1.1,0.3c-0.2,0.4-0.5,0.7-0.9,1c-0.4,0.2-0.9,0.4-1.5,0.4c-0.4,0-0.8-0.1-1.1-0.2
			c-0.3-0.1-0.6-0.3-0.9-0.6c-0.2-0.2-0.4-0.5-0.5-0.9C38.7,82.8,38.6,82.5,38.6,82.1z M40,81.6h2.7c0-0.4-0.2-0.7-0.4-0.9
			c-0.3-0.2-0.6-0.3-0.9-0.3c-0.2,0-0.3,0-0.5,0.1c-0.2,0.1-0.3,0.1-0.4,0.3c-0.1,0.1-0.2,0.2-0.3,0.4C40,81.3,40,81.5,40,81.6z"/>
		<path class="st1" d="M44.4,80.8v-0.9h0.7v-0.3c0-0.7,0.2-1.2,0.5-1.6c0.3-0.4,0.7-0.6,1.3-0.6c0.4,0,0.8,0.1,1.3,0.3l-0.3,1
			c-0.1-0.1-0.2-0.1-0.4-0.1c-0.1,0-0.3-0.1-0.4-0.1c-0.5,0-0.7,0.3-0.7,1v0.4h1.3v0.9h-1.3v3.9h-1.3v-3.9H44.4z"/>
		<path class="st1" d="M48.4,84.7v-5.2h1.2v1.1c0.1-0.2,0.2-0.3,0.3-0.5c0.1-0.1,0.3-0.3,0.4-0.4c0.1-0.1,0.3-0.2,0.4-0.2
			c0.1-0.1,0.3-0.1,0.4-0.1c0.1,0,0.1,0,0.2,0c0,0,0.1,0,0.1,0v1.2c-0.4,0-0.8,0.1-1.1,0.2c-0.3,0.2-0.5,0.4-0.7,0.7v3.1H48.4z"/>
		<path class="st1" d="M51.8,83.2c0-0.2,0.1-0.5,0.2-0.7c0.1-0.2,0.3-0.4,0.5-0.5c0.2-0.1,0.4-0.3,0.7-0.3c0.3-0.1,0.6-0.1,0.9-0.1
			c0.2,0,0.5,0,0.7,0.1c0.2,0,0.4,0.1,0.6,0.2v-0.3c0-0.3-0.1-0.6-0.3-0.8c-0.2-0.2-0.5-0.3-0.9-0.3c-0.3,0-0.5,0-0.8,0.1
			c-0.3,0.1-0.5,0.2-0.8,0.4l-0.4-0.8c0.7-0.4,1.4-0.7,2.1-0.7c0.7,0,1.3,0.2,1.7,0.5c0.4,0.4,0.6,0.9,0.6,1.6v1.6
			c0,0.1,0,0.2,0.1,0.3c0,0.1,0.1,0.1,0.2,0.1v1.1c-0.2,0-0.4,0.1-0.6,0.1c-0.3,0-0.4-0.1-0.6-0.2c-0.1-0.1-0.2-0.3-0.3-0.4l0-0.3
			c-0.2,0.3-0.5,0.5-0.8,0.7c-0.3,0.2-0.7,0.2-1.1,0.2c-0.2,0-0.5,0-0.7-0.1s-0.4-0.2-0.6-0.3c-0.2-0.1-0.3-0.3-0.4-0.5
			C51.9,83.7,51.8,83.4,51.8,83.2z M53.1,83.1c0,0.2,0.1,0.4,0.3,0.6c0.2,0.2,0.4,0.2,0.6,0.2c0.2,0,0.4,0,0.6-0.1
			c0.2-0.1,0.4-0.2,0.5-0.3c0.1-0.1,0.2-0.2,0.2-0.4v-0.6c-0.2-0.1-0.3-0.1-0.5-0.1c-0.2,0-0.4-0.1-0.5-0.1c-0.3,0-0.6,0.1-0.8,0.2
			S53.1,82.9,53.1,83.1z"/>
		<path class="st1" d="M57.9,84.7v-5.2h1.2v1c0.2-0.3,0.4-0.6,0.8-0.8c0.3-0.2,0.7-0.3,1.1-0.3c0.4,0,0.8,0.1,1,0.3
			c0.2,0.2,0.4,0.5,0.5,0.8c0.2-0.4,0.5-0.6,0.8-0.8c0.3-0.2,0.7-0.3,1.1-0.3c0.3,0,0.6,0.1,0.8,0.2c0.2,0.1,0.4,0.3,0.5,0.5
			c0.1,0.2,0.2,0.4,0.2,0.7c0,0.2,0.1,0.5,0.1,0.7v3.2h-1.3v-2.9c0-0.4-0.1-0.7-0.2-0.9c-0.1-0.2-0.3-0.3-0.6-0.3
			c-0.3,0-0.5,0.1-0.7,0.3c-0.2,0.2-0.4,0.5-0.5,0.8v3h-1.3v-2.9c0-0.4-0.1-0.7-0.2-0.9c-0.1-0.2-0.3-0.3-0.6-0.3
			c-0.3,0-0.5,0.1-0.7,0.3c-0.2,0.2-0.4,0.5-0.5,0.8v3H57.9z"/>
		<path class="st1" d="M66.7,82.1c0-0.4,0.1-0.7,0.2-1c0.1-0.3,0.3-0.6,0.5-0.8c0.2-0.2,0.5-0.4,0.9-0.6c0.3-0.1,0.7-0.2,1.1-0.2
			c0.4,0,0.8,0.1,1.1,0.2c0.3,0.1,0.6,0.3,0.8,0.6c0.2,0.2,0.4,0.5,0.5,0.8c0.1,0.3,0.2,0.6,0.2,1c0,0.1,0,0.2,0,0.3
			c0,0.1,0,0.2,0,0.2h-4c0,0.2,0.1,0.4,0.1,0.6c0.1,0.2,0.2,0.3,0.3,0.4c0.1,0.1,0.3,0.2,0.4,0.3c0.2,0.1,0.3,0.1,0.5,0.1
			c0.3,0,0.5-0.1,0.7-0.2c0.2-0.1,0.4-0.3,0.5-0.5l1.1,0.3c-0.2,0.4-0.5,0.7-0.9,1c-0.4,0.2-0.9,0.4-1.5,0.4c-0.4,0-0.8-0.1-1.1-0.2
			c-0.3-0.1-0.6-0.3-0.9-0.6c-0.2-0.2-0.4-0.5-0.5-0.9C66.8,82.8,66.7,82.5,66.7,82.1z M68.1,81.6h2.7c0-0.4-0.2-0.7-0.4-0.9
			c-0.3-0.2-0.6-0.3-0.9-0.3c-0.2,0-0.3,0-0.5,0.1c-0.2,0.1-0.3,0.1-0.4,0.3c-0.1,0.1-0.2,0.2-0.3,0.4
			C68.2,81.3,68.1,81.5,68.1,81.6z"/>
		<path class="st1" d="M72.6,84l0.5-0.8c0.3,0.2,0.6,0.4,0.9,0.5c0.3,0.1,0.6,0.2,0.9,0.2c0.3,0,0.5-0.1,0.6-0.2
			c0.2-0.1,0.2-0.2,0.2-0.4c0-0.2-0.1-0.3-0.3-0.4c-0.2-0.1-0.5-0.2-0.9-0.3c-0.3-0.1-0.6-0.2-0.9-0.3c-0.2-0.1-0.4-0.2-0.6-0.3
			c-0.1-0.1-0.3-0.2-0.3-0.4c-0.1-0.1-0.1-0.3-0.1-0.5c0-0.3,0.1-0.5,0.2-0.7c0.1-0.2,0.2-0.4,0.4-0.5c0.2-0.1,0.4-0.3,0.7-0.3
			c0.2-0.1,0.5-0.1,0.8-0.1c0.4,0,0.8,0.1,1.1,0.2c0.3,0.1,0.6,0.3,0.9,0.5L76.3,81c-0.3-0.2-0.5-0.3-0.8-0.4
			c-0.2-0.1-0.5-0.1-0.7-0.1c-0.2,0-0.4,0-0.6,0.1C74.1,80.6,74,80.8,74,81c0,0.1,0,0.2,0.1,0.2c0,0.1,0.1,0.1,0.2,0.2
			c0.1,0,0.2,0.1,0.3,0.1c0.1,0,0.3,0.1,0.5,0.1c0.4,0.1,0.7,0.2,0.9,0.3c0.3,0.1,0.5,0.2,0.6,0.3c0.2,0.1,0.3,0.3,0.4,0.4
			C77,82.8,77,83,77,83.2c0,0.5-0.2,0.9-0.6,1.2c-0.4,0.3-0.9,0.4-1.5,0.4c-0.4,0-0.9-0.1-1.3-0.2C73.2,84.5,72.9,84.3,72.6,84z"/>
	</g>
	<g>
		<g>
			<g>
				<path class="st0" d="M42.3,41.4v1.4c0,0.2,0.1,0.3,0.3,0.3h2.2c0.2,0,0.3-0.1,0.3-0.3v-1.4"/>
				<path class="st2" d="M44.9,43.9h-2.2c-0.6,0-1.1-0.5-1.1-1.1v-1.4h1.6v0.9h1.3v-0.9H46v1.4C46,43.4,45.5,43.9,44.9,43.9z"/>
			</g>
			<g>
				<polygon class="st1" points="46,20.8 44.4,20.8 44.4,20.4 43.8,18.9 43.1,20.4 43.1,20.8 41.6,20.8 41.6,20 43.8,15.2 46,20 
									"/>
			</g>
			<rect x="41.6" y="21.9" class="st3" width="4.5" height="18.4"/>
		</g>
		<g>
			<g>
				<rect x="48.7" y="16.2" class="st0" width="6.6" height="27.6"/>
				<path class="st1" d="M56.2,44.5H48V15.4h8.2V44.5z M49.5,43h5.1v-26h-5.1V43z"/>
			</g>
			<g>
				<rect x="52.2" y="18.2" class="st1" width="3.2" height="1.6"/>
			</g>
			<g>
				<rect x="53.7" y="21" class="st1" width="1.7" height="1.6"/>
			</g>
			<g>
				<rect x="52.2" y="23.8" class="st1" width="3.2" height="1.6"/>
			</g>
			<g>
				<rect x="53.7" y="26.7" class="st1" width="1.7" height="1.6"/>
			</g>
			<g>
				<rect x="52.2" y="29.5" class="st1" width="3.2" height="1.6"/>
			</g>
			<g>
				<rect x="53.7" y="32.3" class="st2" width="1.7" height="1.6"/>
			</g>
			<g>
				<rect x="52.2" y="35.1" class="st2" width="3.2" height="1.6"/>
			</g>
			<g>
				<rect x="53.7" y="37.9" class="st2" width="1.7" height="1.6"/>
			</g>
			<g>
				<rect x="52.2" y="40.7" class="st2" width="3.2" height="1.6"/>
			</g>
		</g>
		<g>
			<path class="st3" d="M38.6,33.1v12.2c0,7,4.6,10,11,11.9c6.4-1.9,11-4.9,11-11.9V33.1H38.6z"/>
			<path class="st1" d="M49.6,58l-0.2-0.1c-5.4-1.6-11.6-4.4-11.6-12.6v-13h23.6v13c0,8.2-6.2,11-11.6,12.6L49.6,58z M39.4,33.9
				v11.4c0,5.6,3.1,8.9,10.2,11.1c7.2-2.1,10.2-5.5,10.2-11.1V33.9H39.4z"/>
		</g>
		<g>
			<g>
				<rect x="40.3" y="34.7" class="st1" width="1.6" height="1.6"/>
			</g>
			<g>
				<path class="st1" d="M56,36.3h-1.4v-1.6H56V36.3z M53.2,36.3h-1.4v-1.6h1.4V36.3z M50.3,36.3h-1.4v-1.6h1.4V36.3z M47.5,36.3
					h-1.4v-1.6h1.4V36.3z M44.7,36.3h-1.4v-1.6h1.4V36.3z"/>
			</g>
			<g>
				<rect x="57.4" y="34.7" class="st1" width="1.6" height="1.6"/>
			</g>
			<g>
				<path class="st1" d="M48.6,55.2c-0.5-0.2-1-0.4-1.5-0.6l0.6-1.4c0.4,0.2,0.9,0.4,1.4,0.5L48.6,55.2z M50.6,55.1l-0.5-1.5
					c0.5-0.2,1-0.4,1.4-0.5l0.6,1.4C51.7,54.8,51.2,55,50.6,55.1z M45.6,53.9c-0.5-0.3-1-0.6-1.4-0.9l0.9-1.3
					c0.4,0.3,0.8,0.5,1.3,0.8L45.6,53.9z M53.7,53.9l-0.7-1.4c0.5-0.2,0.9-0.5,1.3-0.8l0.9,1.3C54.6,53.3,54.2,53.6,53.7,53.9z
					 M42.9,52c-0.4-0.4-0.8-0.8-1.1-1.3l1.3-0.9c0.3,0.4,0.6,0.7,0.9,1.1L42.9,52z M56.4,51.9l-1.1-1.1c0.3-0.3,0.7-0.7,0.9-1.1
					l1.3,0.9C57.2,51.1,56.8,51.5,56.4,51.9z M40.9,49.1c-0.2-0.5-0.4-1.1-0.5-1.7l1.5-0.3c0.1,0.5,0.2,0.9,0.4,1.4L40.9,49.1z
					 M58.3,49.1l-1.4-0.6c0.2-0.4,0.3-0.9,0.4-1.4l1.5,0.3C58.7,48,58.5,48.6,58.3,49.1z M40.3,45.8c0-0.2,0-0.3,0-0.5v-1.1h1.6v1.1
					c0,0.1,0,0.3,0,0.4L40.3,45.8z M59,45.8l-1.6-0.1c0-0.1,0-0.3,0-0.4v-1.1H59v1.1C59,45.5,59,45.6,59,45.8z M41.8,42.6h-1.6V41
					h1.6V42.6z M59,42.6h-1.6V41H59V42.6z M41.8,39.5h-1.6v-1.6h1.6V39.5z M59,39.4h-1.6v-1.6H59V39.4z"/>
			</g>
		</g>
	</g>
</g>
</svg>
