<?xml version="1.0" encoding="utf-8"?>
<!-- Generator: Adobe Illustrator 19.2.1, SVG Export Plug-In . SVG Version: 6.00 Build 0)  -->
<svg version="1.1" id="Layer_1" xmlns="http://www.w3.org/2000/svg" xmlns:xlink="http://www.w3.org/1999/xlink" x="0px" y="0px"
	 viewBox="0 0 200 200" style="enable-background:new 0 0 200 200;" xml:space="preserve">
<style type="text/css">
	.st0{fill:#212121;}
	.st1{fill:#00B1FF;}
</style>
<g>
	<g>
		<rect y="193.8" class="st0" width="200" height="6.2"/>
	</g>
	<g>
		<polygon class="st0" points="190.6,196.9 184.4,196.9 184.4,6.2 15.6,6.2 15.6,196.9 9.4,196.9 9.4,0 190.6,0 		"/>
	</g>
	<g>
		<rect x="12.5" y="25" class="st0" width="175" height="6.2"/>
	</g>
	<g>
		<rect x="21.9" y="12.5" class="st0" width="6.2" height="6.2"/>
	</g>
	<g>
		<rect x="34.4" y="12.5" class="st0" width="6.2" height="6.2"/>
	</g>
	<g>
		<rect x="46.9" y="12.5" class="st0" width="6.2" height="6.2"/>
	</g>
	<g>
		<rect x="59.4" y="3.1" class="st0" width="6.2" height="25"/>
	</g>
	<g>
		<rect x="71.9" y="12.5" class="st0" width="106.2" height="6.2"/>
	</g>
	<g>
		<path class="st0" d="M178.1,81.2H21.9V37.5h156.2V81.2z M28.1,75h143.8V43.8H28.1V75z"/>
	</g>
	<g>
		<rect x="96.9" y="56.2" class="st1" width="6.2" height="6.2"/>
	</g>
	<g>
		<rect x="84.4" y="56.2" class="st0" width="6.2" height="6.2"/>
	</g>
	<g>
		<rect x="109.4" y="56.2" class="st0" width="6.2" height="6.2"/>
	</g>
	<g>
		<path class="st1" d="M68.8,125H21.9V93.8h46.9V125z M28.1,118.8h34.4V100H28.1V118.8z"/>
	</g>
	<g>
		<path class="st1" d="M125,125H75V93.8h50V125z M81.2,118.8h37.5V100H81.2V118.8z"/>
	</g>
	<g>
		<path class="st1" d="M178.1,125h-46.9V93.8h46.9V125z M137.5,118.8h34.4V100h-34.4V118.8z"/>
	</g>
	<g>
		<rect x="21.9" y="131.2" class="st0" width="46.9" height="6.2"/>
	</g>
	<g>
		<rect x="21.9" y="143.8" class="st0" width="46.9" height="6.2"/>
	</g>
	<g>
		<rect x="21.9" y="156.2" class="st0" width="46.9" height="6.2"/>
	</g>
	<g>
		<rect x="75" y="131.2" class="st0" width="46.9" height="6.2"/>
	</g>
	<g>
		<rect x="75" y="143.8" class="st0" width="46.9" height="6.2"/>
	</g>
	<g>
		<rect x="75" y="156.2" class="st1" width="46.9" height="6.2"/>
	</g>
	<g>
		<rect x="131.2" y="131.2" class="st0" width="46.9" height="6.2"/>
	</g>
	<g>
		<rect x="131.2" y="143.8" class="st0" width="46.9" height="6.2"/>
	</g>
	<g>
		<rect x="131.2" y="156.2" class="st0" width="46.9" height="6.2"/>
	</g>
	<g>
		<rect x="21.9" y="181.2" class="st0" width="156.2" height="6.2"/>
	</g>
</g>
</svg>
