<?xml version="1.0" encoding="utf-8"?>
<!-- Generator: Adobe Illustrator 19.2.1, SVG Export Plug-In . SVG Version: 6.00 Build 0)  -->
<svg version="1.1" id="Layer_1" xmlns="http://www.w3.org/2000/svg" xmlns:xlink="http://www.w3.org/1999/xlink" x="0px" y="0px"
	 viewBox="0 0 200 200" style="enable-background:new 0 0 200 200;" xml:space="preserve">
<style type="text/css">
	.st0{fill:#212121;}
	.st1{fill:#00EA7A;}
</style>
<g>
	<g>
		<rect x="96.9" y="53.1" class="st0" width="6.2" height="18.8"/>
	</g>
	<g>
		<g>
			<path class="st0" d="M128.1,200H71.9v-68.8h45l11.2,11.2V200z M78.1,193.8h43.8V145l-7.5-7.5H78.1V193.8z"/>
		</g>
		<g>
			<rect x="84.4" y="143.8" class="st1" width="12.5" height="6.2"/>
		</g>
		<g>
			<rect x="84.4" y="156.2" class="st0" width="31.2" height="6.2"/>
		</g>
		<g>
			<rect x="84.4" y="168.8" class="st0" width="31.2" height="6.2"/>
		</g>
		<g>
			<rect x="84.4" y="181.2" class="st0" width="31.2" height="6.2"/>
		</g>
	</g>
	<g>
		<g>
			<path class="st0" d="M200,200h-56.2v-68.8h45l11.2,11.2V200z M150,193.8h43.8V145l-7.5-7.5H150V193.8z"/>
		</g>
		<g>
			<rect x="156.2" y="143.8" class="st0" width="12.5" height="6.2"/>
		</g>
		<g>
			<rect x="156.2" y="156.2" class="st0" width="31.2" height="6.2"/>
		</g>
		<g>
			<rect x="156.2" y="168.8" class="st0" width="31.2" height="6.2"/>
		</g>
		<g>
			<rect x="156.2" y="181.2" class="st1" width="31.2" height="6.2"/>
		</g>
	</g>
	<g>
		<g>
			<path class="st0" d="M56.2,200H0v-68.8h45l11.2,11.2V200z M6.2,193.8H50V145l-7.5-7.5H6.2V193.8z"/>
		</g>
		<g>
			<rect x="12.5" y="143.8" class="st0" width="12.5" height="6.2"/>
		</g>
		<g>
			<rect x="12.5" y="156.2" class="st0" width="31.2" height="6.2"/>
		</g>
		<g>
			<rect x="12.5" y="168.8" class="st1" width="31.2" height="6.2"/>
		</g>
		<g>
			<rect x="12.5" y="181.2" class="st0" width="31.2" height="6.2"/>
		</g>
	</g>
	<g>
		<rect x="96.9" y="115.6" class="st0" width="6.2" height="18.8"/>
	</g>
	<g>
		<path class="st0" d="M171.9,56.2c-15.5,0-28.1-12.6-28.1-28.1S156.4,0,171.9,0C187.4,0,200,12.6,200,28.1S187.4,56.2,171.9,56.2z
			 M171.9,6.2c-12.1,0-21.9,9.8-21.9,21.9S159.8,50,171.9,50c12.1,0,21.9-9.8,21.9-21.9S183.9,6.2,171.9,6.2z"/>
	</g>
	<g>
		<path class="st1" d="M100,56.2c-15.5,0-28.1-12.6-28.1-28.1S84.5,0,100,0c15.5,0,28.1,12.6,28.1,28.1S115.5,56.2,100,56.2z
			 M100,6.2c-12.1,0-21.9,9.8-21.9,21.9S87.9,50,100,50c12.1,0,21.9-9.8,21.9-21.9S112.1,6.2,100,6.2z"/>
	</g>
	<g>
		<path class="st0" d="M28.1,56.2C12.6,56.2,0,43.6,0,28.1S12.6,0,28.1,0c15.5,0,28.1,12.6,28.1,28.1S43.6,56.2,28.1,56.2z
			 M28.1,6.2c-12.1,0-21.9,9.8-21.9,21.9S16.1,50,28.1,50C40.2,50,50,40.2,50,28.1S40.2,6.2,28.1,6.2z"/>
	</g>
	<g>
		<path class="st0" d="M134.4,118.8H65.6c-5.2,0-9.4-4.2-9.4-9.4V78.1c0-5.2,4.2-9.4,9.4-9.4h68.8c5.2,0,9.4,4.2,9.4,9.4v31.2
			C143.8,114.5,139.5,118.8,134.4,118.8z M65.6,75c-1.7,0-3.1,1.4-3.1,3.1v31.2c0,1.7,1.4,3.1,3.1,3.1h68.8c1.7,0,3.1-1.4,3.1-3.1
			V78.1c0-1.7-1.4-3.1-3.1-3.1H65.6z"/>
	</g>
	<g>
		<path class="st0" d="M50,90.6H34.4c-5.2,0-9.4-4.2-9.4-9.4V53.1h6.2v28.1c0,1.7,1.4,3.1,3.1,3.1H50V90.6z"/>
	</g>
	<g>
		<path class="st0" d="M31.2,134.4H25v-28.1c0-5.2,4.2-9.4,9.4-9.4H50v6.2H34.4c-1.7,0-3.1,1.4-3.1,3.1V134.4z"/>
	</g>
	<g>
		<path class="st0" d="M165.6,90.6H150v-6.2h15.6c1.7,0,3.1-1.4,3.1-3.1V53.1h6.2v28.1C175,86.4,170.8,90.6,165.6,90.6z"/>
	</g>
	<g>
		<path class="st0" d="M175,134.4h-6.2v-28.1c0-1.7-1.4-3.1-3.1-3.1H150v-6.2h15.6c5.2,0,9.4,4.2,9.4,9.4V134.4z"/>
	</g>
	<g>
		<rect x="96.9" y="90.6" class="st1" width="6.2" height="6.2"/>
	</g>
	<g>
		<rect x="84.4" y="90.6" class="st1" width="6.2" height="6.2"/>
	</g>
	<g>
		<rect x="109.4" y="90.6" class="st1" width="6.2" height="6.2"/>
	</g>
</g>
</svg>
