<?xml version="1.0" encoding="utf-8"?>
<!-- Generator: Adobe Illustrator 19.2.1, SVG Export Plug-In . SVG Version: 6.00 Build 0)  -->
<svg version="1.1" id="Layer_1" xmlns="http://www.w3.org/2000/svg" xmlns:xlink="http://www.w3.org/1999/xlink" x="0px" y="0px"
	 viewBox="0 0 200 200" style="enable-background:new 0 0 200 200;" xml:space="preserve">
<style type="text/css">
	.st0{fill:#002121;}
	.st1{fill:#00B1FF;}
</style>
<g>
	<g>
		<g>
			<path class="st0" d="M19.2,106.2c-6.9,0-12.4-5.6-12.4-12.4s5.6-12.4,12.4-12.4c6.9,0,12.4,5.6,12.4,12.4S26.1,106.2,19.2,106.2z
				 M19.2,87.6c-3.4,0-6.2,2.8-6.2,6.2s2.8,6.2,6.2,6.2c3.4,0,6.2-2.8,6.2-6.2S22.6,87.6,19.2,87.6z"/>
		</g>
		<g>
			<path class="st0" d="M47.2,180.8H34.7c-5.1,0-9.3-4.2-9.3-9.3v-49.7c0-5.1,4.2-9.3,9.3-9.3h12.4c5.1,0,9.3,4.2,9.3,9.3v49.7
				C56.5,176.6,52.3,180.8,47.2,180.8z M34.7,118.6c-1.7,0-3.1,1.4-3.1,3.1v49.7c0,1.7,1.4,3.1,3.1,3.1h12.4c1.7,0,3.1-1.4,3.1-3.1
				v-49.7c0-1.7-1.4-3.1-3.1-3.1H34.7z"/>
		</g>
		<g>
			<rect x="96.9" y="140.4" class="st1" width="6.2" height="6.2"/>
		</g>
		<g>
			<rect x="84.5" y="140.4" class="st1" width="6.2" height="6.2"/>
		</g>
		<g>
			<rect x="109.3" y="140.4" class="st1" width="6.2" height="6.2"/>
		</g>
		<g>
			<g>
				<path class="st0" d="M112.4,199.5H100c-5.1,0-9.3-4.2-9.3-9.3V187c0-5.1,4.2-9.3,9.3-9.3h12.4c5.1,0,9.3,4.2,9.3,9.3v3.1
					C121.8,195.3,117.6,199.5,112.4,199.5z M100,183.9c-1.7,0-3.1,1.4-3.1,3.1v3.1c0,1.7,1.4,3.1,3.1,3.1h12.4
					c1.7,0,3.1-1.4,3.1-3.1V187c0-1.7-1.4-3.1-3.1-3.1H100z"/>
			</g>
			<g>
				<path class="st0" d="M162.2,199.5h-49.7v-6.2h49.7c3.4,0,6.2-2.8,6.2-6.2v-15.5h6.2V187C174.6,193.9,169,199.5,162.2,199.5z"/>
			</g>
		</g>
		<g>
			<path class="st0" d="M28.5,174.6c-15.4,0-28-12.5-28-28s12.5-28,28-28v6.2c-12,0-21.8,9.8-21.8,21.8s9.8,21.8,21.8,21.8V174.6z"
				/>
		</g>
		<g>
			<path class="st0" d="M13,131.1H6.8v-18.6c0-0.3,0.1-0.7,0.2-1l3.1-9.3l5.9,2l-2.9,8.8V131.1z"/>
		</g>
		<g>
			<path class="st0" d="M180.8,106.2c-6.9,0-12.4-5.6-12.4-12.4s5.6-12.4,12.4-12.4c6.9,0,12.4,5.6,12.4,12.4
				S187.7,106.2,180.8,106.2z M180.8,87.6c-3.4,0-6.2,2.8-6.2,6.2s2.8,6.2,6.2,6.2c3.4,0,6.2-2.8,6.2-6.2S184.2,87.6,180.8,87.6z"/>
		</g>
		<g>
			<path class="st0" d="M165.3,180.8h-12.4c-5.1,0-9.3-4.2-9.3-9.3v-49.7c0-5.1,4.2-9.3,9.3-9.3h12.4c5.1,0,9.3,4.2,9.3,9.3v49.7
				C174.6,176.6,170.4,180.8,165.3,180.8z M152.8,118.6c-1.7,0-3.1,1.4-3.1,3.1v49.7c0,1.7,1.4,3.1,3.1,3.1h12.4
				c1.7,0,3.1-1.4,3.1-3.1v-49.7c0-1.7-1.4-3.1-3.1-3.1H152.8z"/>
		</g>
		<g>
			<path class="st0" d="M171.5,174.6v-6.2c12,0,21.8-9.8,21.8-21.8s-9.8-21.8-21.8-21.8v-6.2c15.4,0,28,12.5,28,28
				S186.9,174.6,171.5,174.6z"/>
		</g>
		<g>
			<path class="st0" d="M193.2,131.1H187v-18.1l-2.9-8.8l5.9-2l3.1,9.3c0.1,0.3,0.2,0.6,0.2,1V131.1z"/>
		</g>
		<g>
			<path class="st0" d="M183.9,84.5h-6.2c0-42.8-34.9-77.7-77.7-77.7c-42.8,0-77.7,34.9-77.7,77.7h-6.2c0-46.3,37.6-83.9,83.9-83.9
				C146.3,0.5,183.9,38.2,183.9,84.5z"/>
		</g>
		<g>
			<path d="M171.5,84.5h-6.2c0-36-29.3-65.3-65.3-65.3c-36,0-65.3,29.3-65.3,65.3h-6.2C28.5,45,60.6,13,100,13
				C139.4,13,171.5,45,171.5,84.5z"/>
		</g>
	</g>
</g>
</svg>
