<?xml version="1.0" encoding="utf-8"?>
<!-- Generator: Adobe Illustrator 19.2.1, SVG Export Plug-In . SVG Version: 6.00 Build 0)  -->
<svg version="1.1" id="Layer_1" xmlns="http://www.w3.org/2000/svg" xmlns:xlink="http://www.w3.org/1999/xlink" x="0px" y="0px"
	 viewBox="0 0 200 200" style="enable-background:new 0 0 200 200;" xml:space="preserve">
<style type="text/css">
	.st0{fill:#002121;}
	.st1{fill:#00B1FF;}
</style>
<g>
	<g>
		<g>
			<path class="st0" d="M75,175H34.4v-9.4c0-0.2-0.2-5.1-5.3-10.3L7.2,133.5C0.1,126.4,0,119.1,0,118.7v-50
				c0-6.9,5.6-12.5,12.5-12.5c6.9,0,12.5,5.6,12.5,12.5v25h-6.2v-25c0-3.4-2.8-6.2-6.2-6.2c-3.4,0-6.2,2.8-6.2,6.2v50
				c0,0.2,0.2,5.1,5.3,10.3l21.9,21.9c7.1,7.1,7.2,14.4,7.2,14.7v3.1h28.1v-21.9c0-0.1-0.1-8.2-5.3-13.4l-30.3-30.3h-1.8
				c-3.4,0-6.2,2.8-6.2,6.3v1.8l21,21l-4.4,4.4l-22.8-22.8v-4.4c0-6.9,5.6-12.5,12.5-12.5h4.4L67.8,129c7.1,7.1,7.2,17.4,7.2,17.8
				V175z"/>
		</g>
		<g>
			<path class="st0" d="M165.6,175H125v-28.1c0-0.4,0.1-10.8,7.2-17.8l32.2-32.2h4.4c6.9,0,12.5,5.6,12.5,12.5v4.4l-22.8,22.8
				l-4.4-4.4l21-21v-1.8c0-3.4-2.8-6.3-6.2-6.3h-1.8l-30.3,30.3c-5.3,5.3-5.3,13.3-5.3,13.4v21.9h28.1v-3.1c0-0.3,0.1-7.6,7.2-14.7
				l21.9-21.9c5.2-5.2,5.3-10.1,5.3-10.3v-50c0-3.4-2.8-6.2-6.2-6.2c-3.4,0-6.2,2.8-6.2,6.2v25H175v-25c0-6.9,5.6-12.5,12.5-12.5
				c6.9,0,12.5,5.6,12.5,12.5v50c0,0.3-0.1,7.6-7.2,14.7L171,155.3c-5.2,5.2-5.3,10.1-5.3,10.3V175z"/>
		</g>
		<g>
			<path class="st0" d="M171.9,193.7h-6.2V175H125v18.7h-6.2V175c0-3.4,2.8-6.3,6.2-6.3h40.6c3.4,0,6.2,2.8,6.2,6.3V193.7z"/>
		</g>
		<g>
			<path class="st0" d="M81.3,193.7H75V175H34.4v18.7h-6.2V175c0-3.4,2.8-6.3,6.2-6.3H75c3.4,0,6.2,2.8,6.2,6.3V193.7z"/>
		</g>
	</g>
	<g>
		<rect x="96.9" y="43.8" class="st1" width="6.2" height="6.2"/>
	</g>
	<g>
		<rect x="96.9" y="56.3" class="st1" width="6.2" height="6.2"/>
	</g>
	<g>
		<path class="st1" d="M100,122.4l-1.6-0.9c-2.5-1.4-60.9-35.8-60.9-83.9c0-17.2,14-31.2,31.2-31.2c12.1,0,25.4,7.5,31.2,18.8
			c5.9-11.3,19.1-18.8,31.2-18.8c17.2,0,31.2,14,31.2,31.2c0,48.1-58.4,82.5-60.9,83.9L100,122.4z M68.8,12.5c-13.8,0-25,11.2-25,25
			c0,40.4,47,71.8,56.2,77.6c9.3-5.8,56.2-37.3,56.2-77.6c0-13.8-11.2-25-25-25c-13.3,0-28.1,9.4-28.1,25h-6.2
			C96.9,21.9,82,12.5,68.8,12.5z"/>
	</g>
	<g>
		<path class="st1" d="M150,37.5h-6.2c0-6.2-5.6-12.5-12.5-12.5v-6.2C141.6,18.8,150,28.1,150,37.5z"/>
	</g>
	<g>
		<path class="st1" d="M56.3,37.5H50c0-9.4,8.4-18.7,18.7-18.7V25C61.9,25,56.3,31.3,56.3,37.5z"/>
	</g>
</g>
</svg>
