<?xml version="1.0" encoding="utf-8"?>
<!-- Generator: Adobe Illustrator 19.2.1, SVG Export Plug-In . SVG Version: 6.00 Build 0)  -->
<svg version="1.1" id="Layer_1" xmlns="http://www.w3.org/2000/svg" xmlns:xlink="http://www.w3.org/1999/xlink" x="0px" y="0px"
	 viewBox="0 0 200 200" style="enable-background:new 0 0 200 200;" xml:space="preserve">
<style type="text/css">
	.st0{fill:#00B1FF;}
	.st1{fill:#002121;}
</style>
<g>
	<g>
		<g>
			<g>
				<rect x="84.7" y="35.8" class="st0" width="6.1" height="125.3"/>
			</g>
			<g>
				<rect x="60.3" y="35.8" class="st0" width="6.1" height="125.3"/>
			</g>
			<g>
				<rect x="72.5" y="35.8" class="st0" width="6.1" height="125.3"/>
			</g>
			<g>
				<path class="st0" d="M87.8,38.9H63.3c-1.1,0-2-0.5-2.6-1.4c-0.6-0.9-0.6-2-0.1-3L72.8,10c1-2.1,4.4-2.1,5.5,0l12.2,24.4
					c0.5,0.9,0.4,2.1-0.1,3C89.8,38.4,88.8,38.9,87.8,38.9z M68.3,32.8h14.6l-7.3-14.6L68.3,32.8z"/>
			</g>
		</g>
		<g>
			<g>
				<polygon class="st0" points="139.7,161.1 133.6,161.1 133.6,14.5 109.2,14.5 109.2,161.1 103.1,161.1 103.1,8.3 139.7,8.3 				
					"/>
			</g>
			<g>
				<rect x="121.4" y="20.6" class="st0" width="6.1" height="6.1"/>
			</g>
			<g>
				<rect x="106.1" y="32.8" class="st0" width="9.2" height="6.1"/>
			</g>
			<g>
				<rect x="106.1" y="45" class="st0" width="9.2" height="6.1"/>
			</g>
			<g>
				<rect x="106.1" y="57.2" class="st0" width="9.2" height="6.1"/>
			</g>
			<g>
				<rect x="106.1" y="69.4" class="st0" width="9.2" height="6.1"/>
			</g>
			<g>
				<rect x="106.1" y="81.7" class="st0" width="9.2" height="6.1"/>
			</g>
			<g>
				<rect x="106.1" y="93.9" class="st0" width="9.2" height="6.1"/>
			</g>
			<g>
				<rect x="106.1" y="106.1" class="st0" width="9.2" height="6.1"/>
			</g>
			<g>
				<rect x="106.1" y="118.3" class="st0" width="9.2" height="6.1"/>
			</g>
			<g>
				<rect x="106.1" y="130.6" class="st0" width="9.2" height="6.1"/>
			</g>
			<g>
				<rect x="106.1" y="142.8" class="st0" width="9.2" height="6.1"/>
			</g>
			<g>
				<rect x="106.1" y="155" class="st0" width="9.2" height="6.1"/>
			</g>
		</g>
		<g>
			<g>
				<path class="st1" d="M183.8,191.7H16.2l-14-14v-10.4h77.6l6.1,6.1h28l6.1-6.1h77.6v10.4L183.8,191.7z M18.8,185.5h162.4
					l10.4-10.4v-1.8h-69l-6.1,6.1H83.5l-6.1-6.1h-69v1.8L18.8,185.5z"/>
			</g>
			<g>
				<path class="st1" d="M20.6,161.1h-6.1V63.3c0-6.7,5.5-12.2,12.2-12.2h27.5v6.1H26.7c-3.4,0-6.1,2.7-6.1,6.1V161.1z"/>
			</g>
			<g>
				<path class="st1" d="M185.5,161.1h-6.1V63.3c0-3.4-2.7-6.1-6.1-6.1h-27.5v-6.1h27.5c6.7,0,12.2,5.5,12.2,12.2V161.1z"/>
			</g>
			<g>
				<polygon class="st1" points="173.3,161.1 145.8,161.1 145.8,155 167.2,155 167.2,69.4 145.8,69.4 145.8,63.3 173.3,63.3 				"/>
			</g>
			<g>
				<polygon class="st1" points="54.2,161.1 26.7,161.1 26.7,63.3 54.2,63.3 54.2,69.4 32.8,69.4 32.8,155 54.2,155 				"/>
			</g>
		</g>
	</g>
</g>
</svg>
