<?xml version="1.0" encoding="utf-8"?>
<!-- Generator: Adobe Illustrator 19.2.1, SVG Export Plug-In . SVG Version: 6.00 Build 0)  -->
<svg version="1.1" id="Layer_1" xmlns="http://www.w3.org/2000/svg" xmlns:xlink="http://www.w3.org/1999/xlink" x="0px" y="0px"
	 viewBox="0 0 200 200" style="enable-background:new 0 0 200 200;" xml:space="preserve">
<style type="text/css">
	.st0{fill:#002121;}
	.st1{fill:#00B1FF;}
</style>
<g>
	<g>
		<g>
			<g>
				<polygon class="st0" points="115.5,180.8 84.5,180.8 84.5,59.6 90.7,59.6 90.7,174.6 109.3,174.6 109.3,59.6 115.5,59.6 				"/>
			</g>
			<g>
				<path class="st0" d="M115.5,34.7h-6.2V16.1c0-5.1-4.2-9.3-9.3-9.3c-5.1,0-9.3,4.2-9.3,9.3v18.6h-6.2V16.1
					c0-8.6,7-15.5,15.5-15.5c8.6,0,15.5,7,15.5,15.5V34.7z"/>
			</g>
			<g>
				<path class="st0" d="M190.1,199.4H9.9v-3.1c0-12,9.8-21.8,21.8-21.8h46.6v6.2H31.6c-7.5,0-13.8,5.3-15.2,12.4h167.2
					c-1.4-7.1-7.7-12.4-15.2-12.4h-46.6v-6.2h46.6c12,0,21.8,9.8,21.8,21.8V199.4z"/>
			</g>
			<g>
				<rect x="96.9" y="13" class="st1" width="6.2" height="6.2"/>
			</g>
			<g>
				<path class="st0" d="M100,68.9c-12,0-21.8-9.8-21.8-21.8S88,25.4,100,25.4c12,0,21.8,9.8,21.8,21.8S112,68.9,100,68.9z
					 M100,31.6c-8.6,0-15.5,7-15.5,15.5s7,15.5,15.5,15.5c8.6,0,15.5-7,15.5-15.5S108.6,31.6,100,31.6z"/>
			</g>
			<g>
				<path class="st0" d="M190.1,56.5h-12.4v-6.2h12.4c1.7,0,3.1-1.4,3.1-3.1s-1.4-3.1-3.1-3.1h-71.5v-6.2h71.5
					c5.1,0,9.3,4.2,9.3,9.3S195.3,56.5,190.1,56.5z"/>
			</g>
			<g>
				<rect x="118.6" y="50.3" class="st0" width="40.4" height="6.2"/>
			</g>
			<g>
				<path class="st0" d="M22.3,56.5H9.9c-5.1,0-9.3-4.2-9.3-9.3s4.2-9.3,9.3-9.3h71.5v6.2H9.9c-1.7,0-3.1,1.4-3.1,3.1
					s1.4,3.1,3.1,3.1h12.4V56.5z"/>
			</g>
			<g>
				<rect x="41" y="50.3" class="st0" width="40.4" height="6.2"/>
			</g>
			<g>
				<g>
					<path class="st1" d="M31.6,140.4c-17.1,0-31.1-13.9-31.1-31.1v-3.1h62.1v3.1C62.7,126.5,48.8,140.4,31.6,140.4z M7,112.4
						c1.5,12.2,12,21.8,24.7,21.8c12.7,0,23.1-9.5,24.7-21.8H7z"/>
				</g>
				<g>
					<path class="st1" d="M6.8,112.4c-0.4,0-0.8-0.1-1.3-0.3c-1.6-0.7-2.3-2.5-1.6-4.1l24.9-55.9c0.7-1.6,2.5-2.3,4.1-1.6
						c1.6,0.7,2.3,2.5,1.6,4.1L9.6,110.6C9.1,111.7,8,112.4,6.8,112.4z"/>
				</g>
				<g>
					<path class="st1" d="M56.5,112.4c-1.2,0-2.3-0.7-2.8-1.8L28.8,54.7c-0.7-1.6,0-3.4,1.6-4.1c1.6-0.7,3.4,0,4.1,1.6l24.9,55.9
						c0.7,1.6,0,3.4-1.6,4.1C57.4,112.3,56.9,112.4,56.5,112.4z"/>
				</g>
			</g>
			<g>
				<g>
					<path class="st1" d="M168.4,140.4c-17.1,0-31.1-13.9-31.1-31.1v-3.1h62.1v3.1C199.4,126.5,185.5,140.4,168.4,140.4z
						 M143.7,112.4c1.5,12.2,12,21.8,24.7,21.8c12.7,0,23.1-9.5,24.7-21.8H143.7z"/>
				</g>
				<g>
					<path class="st1" d="M143.5,112.4c-0.4,0-0.8-0.1-1.3-0.3c-1.6-0.7-2.3-2.5-1.6-4.1l24.9-55.9c0.7-1.6,2.5-2.3,4.1-1.6
						c1.6,0.7,2.3,2.5,1.6,4.1l-24.9,55.9C145.8,111.7,144.7,112.4,143.5,112.4z"/>
				</g>
				<g>
					<path class="st1" d="M193.2,112.4c-1.2,0-2.3-0.7-2.8-1.8l-24.9-55.9c-0.7-1.6,0-3.4,1.6-4.1c1.6-0.7,3.4,0,4.1,1.6l24.9,55.9
						c0.7,1.6,0,3.4-1.6,4.1C194.1,112.3,193.6,112.4,193.2,112.4z"/>
				</g>
			</g>
			<g>
				<rect x="96.9" y="162.1" class="st0" width="6.2" height="6.2"/>
			</g>
			<g>
				<rect x="96.9" y="149.7" class="st0" width="6.2" height="6.2"/>
			</g>
			<g>
				<rect x="96.9" y="137.3" class="st0" width="6.2" height="6.2"/>
			</g>
		</g>
	</g>
</g>
</svg>
