<?xml version="1.0" encoding="utf-8"?>
<!-- Generator: Adobe Illustrator 19.2.1, SVG Export Plug-In . SVG Version: 6.00 Build 0)  -->
<svg version="1.1" id="Layer_1" xmlns="http://www.w3.org/2000/svg" xmlns:xlink="http://www.w3.org/1999/xlink" x="0px" y="0px"
	 viewBox="0 0 100 100" style="enable-background:new 0 0 100 100;" xml:space="preserve">
<style type="text/css">
	.st0{fill:#FFFFFF;}
	.st1{fill:#212120;}
	.st2{fill:#FBAC35;}
</style>
<polygon class="st0" points="25,93.3 0,50 25,6.7 75,6.7 100,50 75,93.3 "/>
<g>
	<g>
		<path class="st1" d="M29.8,70.4v-7h3.8c0.2,0,0.5,0.1,0.7,0.2c0.2,0.1,0.4,0.2,0.5,0.4c0.1,0.2,0.2,0.4,0.3,0.6
			c0.1,0.2,0.1,0.4,0.1,0.6c0,0.3-0.1,0.7-0.3,1c-0.2,0.3-0.4,0.5-0.8,0.7c0.4,0.1,0.7,0.3,1,0.6c0.2,0.3,0.4,0.7,0.4,1.2
			c0,0.3-0.1,0.6-0.2,0.8c-0.1,0.2-0.3,0.4-0.5,0.6c-0.2,0.2-0.4,0.3-0.7,0.3c-0.3,0.1-0.6,0.1-0.9,0.1H29.8z M31.1,66.2H33
			c0.2,0,0.4-0.1,0.6-0.2c0.2-0.2,0.2-0.4,0.2-0.6c0-0.3-0.1-0.5-0.2-0.6c-0.1-0.2-0.3-0.2-0.5-0.2h-1.9V66.2z M31.1,69.2h2
			c0.1,0,0.2,0,0.4-0.1c0.1,0,0.2-0.1,0.3-0.2c0.1-0.1,0.1-0.2,0.2-0.3c0-0.1,0.1-0.2,0.1-0.4c0-0.1,0-0.2-0.1-0.4
			c0-0.1-0.1-0.2-0.2-0.3c-0.1-0.1-0.2-0.2-0.3-0.2c-0.1,0-0.2-0.1-0.3-0.1h-2.1V69.2z"/>
		<path class="st1" d="M36.3,68.4v-3.2h1.3v2.9c0,0.8,0.3,1.2,0.9,1.2c0.3,0,0.5-0.1,0.7-0.2c0.2-0.2,0.4-0.4,0.6-0.7v-3.2h1.3v3.7
			c0,0.1,0,0.2,0.1,0.3c0,0.1,0.1,0.1,0.2,0.1v1.1c-0.1,0-0.2,0-0.3,0c-0.1,0-0.2,0-0.2,0c-0.2,0-0.4-0.1-0.6-0.2
			c-0.1-0.1-0.2-0.3-0.3-0.5l0-0.4c-0.2,0.4-0.5,0.6-0.9,0.8c-0.4,0.2-0.8,0.3-1.2,0.3c-0.5,0-0.9-0.2-1.2-0.5
			C36.4,69.6,36.3,69.1,36.3,68.4z"/>
		<path class="st1" d="M42.1,69.7l0.5-0.8c0.3,0.2,0.6,0.4,0.9,0.5c0.3,0.1,0.6,0.2,0.9,0.2c0.3,0,0.5-0.1,0.6-0.2
			c0.2-0.1,0.2-0.2,0.2-0.4c0-0.2-0.1-0.3-0.3-0.4c-0.2-0.1-0.5-0.2-0.9-0.3c-0.3-0.1-0.6-0.2-0.9-0.3c-0.2-0.1-0.4-0.2-0.6-0.3
			c-0.1-0.1-0.3-0.2-0.3-0.4c-0.1-0.1-0.1-0.3-0.1-0.5c0-0.3,0.1-0.5,0.2-0.7c0.1-0.2,0.2-0.4,0.4-0.5c0.2-0.1,0.4-0.3,0.7-0.3
			c0.2-0.1,0.5-0.1,0.8-0.1c0.4,0,0.8,0.1,1.1,0.2c0.3,0.1,0.6,0.3,0.9,0.5l-0.5,0.8c-0.3-0.2-0.5-0.3-0.8-0.4S44.5,66,44.3,66
			c-0.2,0-0.4,0-0.6,0.1c-0.2,0.1-0.2,0.2-0.2,0.4c0,0.1,0,0.2,0.1,0.2c0,0.1,0.1,0.1,0.2,0.2c0.1,0,0.2,0.1,0.3,0.1
			c0.1,0,0.3,0.1,0.5,0.1c0.4,0.1,0.7,0.2,0.9,0.3c0.3,0.1,0.5,0.2,0.6,0.3c0.2,0.1,0.3,0.3,0.4,0.4c0.1,0.2,0.1,0.3,0.1,0.6
			c0,0.5-0.2,0.9-0.6,1.2c-0.4,0.3-0.9,0.4-1.5,0.4c-0.4,0-0.9-0.1-1.3-0.2C42.7,70.1,42.4,69.9,42.1,69.7z"/>
		<path class="st1" d="M47.4,64.5v-1.2h1.3v1.2H47.4z M47.4,70.4v-5.2h1.3v5.2H47.4z"/>
		<path class="st1" d="M49.9,70.4v-5.2h1.2v1c0.2-0.3,0.5-0.6,0.8-0.8c0.4-0.2,0.8-0.3,1.2-0.3c0.3,0,0.6,0.1,0.8,0.2
			c0.2,0.1,0.4,0.3,0.5,0.5c0.1,0.2,0.2,0.4,0.2,0.7c0,0.2,0.1,0.5,0.1,0.7v3.2h-1.3v-2.9c0-0.4-0.1-0.7-0.2-0.9
			c-0.1-0.2-0.3-0.3-0.6-0.3c-0.1,0-0.3,0-0.4,0.1c-0.1,0.1-0.3,0.1-0.4,0.2c-0.1,0.1-0.2,0.2-0.3,0.3c-0.1,0.1-0.2,0.3-0.2,0.4v3
			H49.9z"/>
		<path class="st1" d="M55.5,67.8c0-0.4,0.1-0.7,0.2-1c0.1-0.3,0.3-0.6,0.5-0.8c0.2-0.2,0.5-0.4,0.9-0.6c0.3-0.1,0.7-0.2,1.1-0.2
			c0.4,0,0.8,0.1,1.1,0.2c0.3,0.1,0.6,0.3,0.8,0.6c0.2,0.2,0.4,0.5,0.5,0.8c0.1,0.3,0.2,0.6,0.2,1c0,0.1,0,0.2,0,0.3
			c0,0.1,0,0.2,0,0.2h-4c0,0.2,0.1,0.4,0.1,0.6c0.1,0.2,0.2,0.3,0.3,0.4c0.1,0.1,0.3,0.2,0.4,0.3c0.2,0.1,0.3,0.1,0.5,0.1
			c0.3,0,0.5-0.1,0.7-0.2c0.2-0.1,0.4-0.3,0.5-0.5l1.1,0.3c-0.2,0.4-0.5,0.7-0.9,1c-0.4,0.2-0.9,0.4-1.5,0.4c-0.4,0-0.8-0.1-1.1-0.2
			c-0.3-0.1-0.6-0.3-0.9-0.6c-0.2-0.2-0.4-0.5-0.5-0.9C55.6,68.5,55.5,68.1,55.5,67.8z M56.9,67.3h2.7c0-0.4-0.2-0.7-0.4-0.9
			c-0.3-0.2-0.6-0.3-0.9-0.3c-0.2,0-0.3,0-0.5,0.1c-0.2,0.1-0.3,0.1-0.4,0.3c-0.1,0.1-0.2,0.2-0.3,0.4C57,66.9,56.9,67.1,56.9,67.3z
			"/>
		<path class="st1" d="M61.4,69.7l0.5-0.8c0.3,0.2,0.6,0.4,0.9,0.5c0.3,0.1,0.6,0.2,0.9,0.2c0.3,0,0.5-0.1,0.6-0.2
			c0.2-0.1,0.2-0.2,0.2-0.4c0-0.2-0.1-0.3-0.3-0.4c-0.2-0.1-0.5-0.2-0.9-0.3c-0.3-0.1-0.6-0.2-0.9-0.3c-0.2-0.1-0.4-0.2-0.6-0.3
			c-0.1-0.1-0.3-0.2-0.3-0.4c-0.1-0.1-0.1-0.3-0.1-0.5c0-0.3,0.1-0.5,0.2-0.7c0.1-0.2,0.2-0.4,0.4-0.5c0.2-0.1,0.4-0.3,0.7-0.3
			c0.2-0.1,0.5-0.1,0.8-0.1c0.4,0,0.8,0.1,1.1,0.2c0.3,0.1,0.6,0.3,0.9,0.5l-0.5,0.8c-0.3-0.2-0.5-0.3-0.8-0.4S63.8,66,63.6,66
			c-0.2,0-0.4,0-0.6,0.1c-0.2,0.1-0.2,0.2-0.2,0.4c0,0.1,0,0.2,0.1,0.2c0,0.1,0.1,0.1,0.2,0.2c0.1,0,0.2,0.1,0.3,0.1
			c0.1,0,0.3,0.1,0.5,0.1c0.4,0.1,0.7,0.2,0.9,0.3c0.3,0.1,0.5,0.2,0.6,0.3c0.2,0.1,0.3,0.3,0.4,0.4c0.1,0.2,0.1,0.3,0.1,0.6
			c0,0.5-0.2,0.9-0.6,1.2c-0.4,0.3-0.9,0.4-1.5,0.4c-0.4,0-0.9-0.1-1.3-0.2C62,70.1,61.7,69.9,61.4,69.7z"/>
		<path class="st1" d="M66.3,69.7l0.5-0.8c0.3,0.2,0.6,0.4,0.9,0.5c0.3,0.1,0.6,0.2,0.9,0.2c0.3,0,0.5-0.1,0.6-0.2
			c0.2-0.1,0.2-0.2,0.2-0.4c0-0.2-0.1-0.3-0.3-0.4c-0.2-0.1-0.5-0.2-0.9-0.3c-0.3-0.1-0.6-0.2-0.9-0.3c-0.2-0.1-0.4-0.2-0.6-0.3
			c-0.1-0.1-0.3-0.2-0.3-0.4c-0.1-0.1-0.1-0.3-0.1-0.5c0-0.3,0.1-0.5,0.2-0.7c0.1-0.2,0.2-0.4,0.4-0.5c0.2-0.1,0.4-0.3,0.7-0.3
			c0.2-0.1,0.5-0.1,0.8-0.1c0.4,0,0.8,0.1,1.1,0.2c0.3,0.1,0.6,0.3,0.9,0.5L70,66.6c-0.3-0.2-0.5-0.3-0.8-0.4S68.7,66,68.5,66
			c-0.2,0-0.4,0-0.6,0.1c-0.2,0.1-0.2,0.2-0.2,0.4c0,0.1,0,0.2,0.1,0.2c0,0.1,0.1,0.1,0.2,0.2c0.1,0,0.2,0.1,0.3,0.1
			c0.1,0,0.3,0.1,0.5,0.1c0.4,0.1,0.7,0.2,0.9,0.3c0.3,0.1,0.5,0.2,0.6,0.3c0.2,0.1,0.3,0.3,0.4,0.4c0.1,0.2,0.1,0.3,0.1,0.6
			c0,0.5-0.2,0.9-0.6,1.2c-0.4,0.3-0.9,0.4-1.5,0.4c-0.4,0-0.9-0.1-1.3-0.2C66.9,70.1,66.6,69.9,66.3,69.7z"/>
		<path class="st1" d="M30.6,82.2l2.7-7h1.2l2.7,7h-1.4l-0.7-1.8h-2.5L32,82.2H30.6z M32.9,79.5h2l-1-2.8L32.9,79.5z"/>
		<path class="st1" d="M37.8,82.2V77H39v1c0.2-0.3,0.5-0.6,0.8-0.8c0.4-0.2,0.8-0.3,1.2-0.3c0.3,0,0.6,0.1,0.8,0.2
			c0.2,0.1,0.4,0.3,0.5,0.5c0.1,0.2,0.2,0.4,0.2,0.7c0,0.2,0.1,0.5,0.1,0.7v3.2h-1.3v-2.9c0-0.4-0.1-0.7-0.2-0.9
			c-0.1-0.2-0.3-0.3-0.6-0.3c-0.1,0-0.3,0-0.4,0.1c-0.1,0.1-0.3,0.1-0.4,0.2c-0.1,0.1-0.2,0.2-0.3,0.3c-0.1,0.1-0.2,0.3-0.2,0.4v3
			H37.8z"/>
		<path class="st1" d="M43.4,80.7c0-0.2,0.1-0.5,0.2-0.7c0.1-0.2,0.3-0.4,0.5-0.5c0.2-0.1,0.4-0.3,0.7-0.3C45,79,45.3,79,45.6,79
			c0.2,0,0.5,0,0.7,0.1c0.2,0,0.4,0.1,0.6,0.2v-0.3c0-0.3-0.1-0.6-0.3-0.8c-0.2-0.2-0.5-0.3-0.9-0.3c-0.3,0-0.5,0-0.8,0.1
			c-0.3,0.1-0.5,0.2-0.8,0.4l-0.4-0.8c0.7-0.4,1.4-0.7,2.1-0.7c0.7,0,1.3,0.2,1.7,0.5c0.4,0.4,0.6,0.9,0.6,1.6v1.6
			c0,0.1,0,0.2,0.1,0.3c0,0.1,0.1,0.1,0.2,0.1v1.1c-0.2,0-0.4,0.1-0.6,0.1c-0.3,0-0.4-0.1-0.6-0.2c-0.1-0.1-0.2-0.3-0.3-0.4l0-0.3
			c-0.2,0.3-0.5,0.5-0.8,0.7c-0.3,0.2-0.7,0.2-1.1,0.2c-0.2,0-0.5,0-0.7-0.1c-0.2-0.1-0.4-0.2-0.6-0.3c-0.2-0.1-0.3-0.3-0.4-0.5
			C43.4,81.1,43.4,80.9,43.4,80.7z M44.6,80.6c0,0.2,0.1,0.4,0.3,0.6c0.2,0.2,0.4,0.2,0.6,0.2c0.2,0,0.4,0,0.6-0.1
			c0.2-0.1,0.4-0.2,0.5-0.3c0.1-0.1,0.2-0.2,0.2-0.4v-0.6c-0.2-0.1-0.3-0.1-0.5-0.1c-0.2,0-0.4-0.1-0.5-0.1c-0.3,0-0.6,0.1-0.8,0.2
			C44.7,80.1,44.6,80.3,44.6,80.6z"/>
		<path class="st1" d="M49.4,81v-6h1.3v5.6c0,0.2,0,0.3,0.1,0.4c0.1,0.1,0.2,0.2,0.4,0.2c0.1,0,0.2,0,0.3,0c0.1,0,0.2-0.1,0.3-0.1
			l0.2,1c-0.2,0.1-0.4,0.2-0.6,0.2c-0.2,0-0.5,0.1-0.6,0.1c-0.4,0-0.7-0.1-1-0.3C49.5,81.7,49.4,81.4,49.4,81z"/>
		<path class="st1" d="M51.9,77h1.4l1.4,4l1.2-4h1.2L55,83.2c-0.1,0.4-0.3,0.7-0.6,0.9c-0.3,0.2-0.7,0.3-1.1,0.3c-0.1,0-0.2,0-0.3,0
			c-0.1,0-0.2,0-0.3-0.1v-1.2c0.1,0,0.2,0.1,0.3,0.1c0.1,0,0.2,0,0.3,0c0.1,0,0.2,0,0.2,0c0.1,0,0.1-0.1,0.2-0.2
			c0.1-0.1,0.1-0.2,0.2-0.3c0.1-0.1,0.1-0.3,0.2-0.5L51.9,77z"/>
		<path class="st1" d="M57.4,81.5l0.5-0.8c0.3,0.2,0.6,0.4,0.9,0.5c0.3,0.1,0.6,0.2,0.9,0.2c0.3,0,0.5-0.1,0.6-0.2
			c0.2-0.1,0.2-0.2,0.2-0.4c0-0.2-0.1-0.3-0.3-0.4c-0.2-0.1-0.5-0.2-0.9-0.3c-0.3-0.1-0.6-0.2-0.9-0.3c-0.2-0.1-0.4-0.2-0.6-0.3
			c-0.1-0.1-0.3-0.2-0.3-0.4c-0.1-0.1-0.1-0.3-0.1-0.5c0-0.3,0.1-0.5,0.2-0.7c0.1-0.2,0.2-0.4,0.4-0.5c0.2-0.1,0.4-0.3,0.7-0.3
			c0.2-0.1,0.5-0.1,0.8-0.1c0.4,0,0.8,0.1,1.1,0.2c0.3,0.1,0.6,0.3,0.9,0.5l-0.5,0.8c-0.3-0.2-0.5-0.3-0.8-0.4s-0.5-0.1-0.7-0.1
			c-0.2,0-0.4,0-0.6,0.1c-0.2,0.1-0.2,0.2-0.2,0.4c0,0.1,0,0.2,0.1,0.2c0,0.1,0.1,0.1,0.2,0.2c0.1,0,0.2,0.1,0.3,0.1
			c0.1,0,0.3,0.1,0.5,0.1c0.4,0.1,0.7,0.2,0.9,0.3c0.3,0.1,0.5,0.2,0.6,0.3c0.2,0.1,0.3,0.3,0.4,0.4c0.1,0.2,0.1,0.3,0.1,0.6
			c0,0.5-0.2,0.9-0.6,1.2c-0.4,0.3-0.9,0.4-1.5,0.4c-0.4,0-0.9-0.1-1.3-0.2C58,82,57.6,81.8,57.4,81.5z"/>
		<path class="st1" d="M62.6,76.3v-1.2H64v1.2H62.6z M62.6,82.2V77H64v5.2H62.6z"/>
		<path class="st1" d="M64.8,81.5l0.5-0.8c0.3,0.2,0.6,0.4,0.9,0.5s0.6,0.2,0.9,0.2c0.3,0,0.5-0.1,0.6-0.2s0.2-0.2,0.2-0.4
			c0-0.2-0.1-0.3-0.3-0.4c-0.2-0.1-0.5-0.2-0.9-0.3c-0.3-0.1-0.6-0.2-0.9-0.3c-0.2-0.1-0.4-0.2-0.6-0.3c-0.1-0.1-0.3-0.2-0.3-0.4
			C65,79,65,78.8,65,78.6c0-0.3,0.1-0.5,0.2-0.7c0.1-0.2,0.2-0.4,0.4-0.5c0.2-0.1,0.4-0.3,0.7-0.3c0.2-0.1,0.5-0.1,0.8-0.1
			c0.4,0,0.8,0.1,1.1,0.2c0.3,0.1,0.6,0.3,0.9,0.5l-0.5,0.8c-0.3-0.2-0.5-0.3-0.8-0.4s-0.5-0.1-0.7-0.1c-0.2,0-0.4,0-0.6,0.1
			c-0.2,0.1-0.2,0.2-0.2,0.4c0,0.1,0,0.2,0.1,0.2c0,0.1,0.1,0.1,0.2,0.2c0.1,0,0.2,0.1,0.3,0.1c0.1,0,0.3,0.1,0.5,0.1
			c0.4,0.1,0.7,0.2,0.9,0.3c0.3,0.1,0.5,0.2,0.6,0.3c0.2,0.1,0.3,0.3,0.4,0.4c0.1,0.2,0.1,0.3,0.1,0.6c0,0.5-0.2,0.9-0.6,1.2
			c-0.4,0.3-0.9,0.4-1.5,0.4c-0.4,0-0.9-0.1-1.3-0.2C65.4,82,65.1,81.8,64.8,81.5z"/>
	</g>
	<g>
		<g>
			<rect x="28.9" y="21.3" class="st0" width="42.2" height="33.8"/>
			<path class="st1" d="M71.9,56H28.1V20.4h43.9V56z M29.8,54.2h40.5V22.2H29.8V54.2z"/>
		</g>
		<rect x="31.5" y="27.1" class="st2" width="37" height="10.7"/>
		<rect x="31.5" y="39.7" class="st2" width="11.1" height="6"/>
		<g>
			<line class="st0" x1="31.5" y1="48" x2="42.5" y2="48"/>
			<rect x="31.5" y="47.1" class="st2" width="11.1" height="1.7"/>
		</g>
		<g>
			<line class="st0" x1="42.5" y1="51.4" x2="31.5" y2="51.4"/>
			<rect x="31.5" y="50.5" class="st2" width="11.1" height="1.7"/>
		</g>
		<g>
			<line class="st0" x1="44.5" y1="48" x2="55.5" y2="48"/>
			<rect x="44.5" y="47.1" class="st2" width="11.1" height="1.7"/>
		</g>
		<g>
			<rect x="41.4" y="31.5" class="st0" width="17.2" height="1.7"/>
		</g>
		<g>
			<line class="st0" x1="55.5" y1="51.4" x2="44.5" y2="51.4"/>
			<rect x="44.5" y="50.5" class="st2" width="11.1" height="1.7"/>
		</g>
		<g>
			<line class="st0" x1="57.5" y1="48" x2="68.5" y2="48"/>
			<rect x="57.5" y="47.1" class="st2" width="11.1" height="1.7"/>
		</g>
		<g>
			<line class="st0" x1="68.5" y1="51.4" x2="57.5" y2="51.4"/>
			<rect x="57.5" y="50.5" class="st2" width="11.1" height="1.7"/>
		</g>
		<rect x="44.5" y="39.7" class="st2" width="11.1" height="6"/>
		<rect x="57.5" y="39.7" class="st2" width="11.1" height="6"/>
		<g>
			<rect x="28.9" y="16.4" class="st0" width="42.2" height="4.9"/>
			<path class="st1" d="M71.9,22.2H28.1v-6.6h43.9V22.2z M29.8,20.4h40.5v-3.2H29.8V20.4z"/>
		</g>
		<g>
			<line class="st0" x1="30.8" y1="18.8" x2="32.4" y2="18.8"/>
			<rect x="30.8" y="18" class="st1" width="1.6" height="1.7"/>
		</g>
		<g>
			<line class="st0" x1="33.6" y1="18.8" x2="35.2" y2="18.8"/>
			<rect x="33.6" y="18" class="st1" width="1.6" height="1.7"/>
		</g>
		<g>
			<line class="st0" x1="36.4" y1="18.8" x2="38" y2="18.8"/>
			<rect x="36.4" y="18" class="st1" width="1.6" height="1.7"/>
		</g>
		<g>
			<rect x="35.2" y="23.9" class="st1" width="14.1" height="1.7"/>
		</g>
		<g>
			<rect x="31.5" y="23.9" class="st1" width="1.8" height="1.7"/>
		</g>
	</g>
</g>
</svg>
