<?xml version="1.0" encoding="utf-8"?>
<!-- Generator: Adobe Illustrator 19.2.1, SVG Export Plug-In . SVG Version: 6.00 Build 0)  -->
<svg version="1.1" id="Layer_1" xmlns="http://www.w3.org/2000/svg" xmlns:xlink="http://www.w3.org/1999/xlink" x="0px" y="0px"
	 viewBox="0 0 928.1 551.9" style="enable-background:new 0 0 928.1 551.9;" xml:space="preserve">
<style type="text/css">
	.st0{fill:#FFFFFF;}
</style>
<g id="zELspr.tif">
	<g>
		<path class="st0" d="M250,9.1c5.9,2.4,12.2,1.8,18.3,2.8c60.5,9.4,109.8,38.2,148,85.8c25.7,32,41,68.6,47.5,109.1
			c1.5,9.5,1.5,9.5-8.3,9.5c-71.6,0-143.3,0-214.9-0.1c-14.5,0-26.2,10.9-26.5,24.9c-0.3,14.2,11.1,25.3,26.7,25.8
			c5.8,0.2,11.7,0.2,17.5,0c2.8-0.1,3.7,0.6,3.6,3.5c-0.2,8.2-0.1,16.3-0.1,24.5c0,57,0,114,0,170.9c0,3-0.1,4.9-4,5.2
			c-42.1,3.7-82.6-2.3-120.7-20.9C67.3,416.1,24,360.7,7.8,284.3c-2.2-10.3-3.3-20.7-4-31.1c0-8.4,0-16.7,0-25.1
			c0.7-7.4,1.1-14.9,2.3-22.3c8.8-53.7,33-99.2,73.2-135.9c34.9-31.8,75.9-51.3,122.8-58.1c5.6-0.8,11.5-0.2,16.8-2.7
			C229.3,9.1,239.7,9.1,250,9.1z M205.7,245.4c0.2,0.4,0.5,0.9,1,0.5c0.2-0.1-0.1-0.8-0.2-1.2c0-0.2,0-0.3-0.1-0.5
			c-26.4-65.5-52.8-131.1-79.1-196.6c-1.3-3.3-2.7-2.3-4.7-1.1c-30.8,18.1-56,42.1-75.7,71.9c-2.1,3.2-1.9,4.7,1.2,7
			c33.3,25.3,66.4,50.7,99.6,76C167,216.1,186.4,230.7,205.7,245.4z M241.8,209.4c1.3,0.4,1.8,0.6,2.2,0.6c69.8,0,139.5,0,209.3,0.1
			c3.4,0,3.7-1.2,3.2-4.2c-7.2-44.6-26.3-83.4-56.4-117c-2-2.2-3.2-2.8-6-0.6c-44.8,35.7-89.6,71.2-134.5,106.8
			C253.9,199.7,248.1,204.3,241.8,209.4z M224.9,209.6c2.5,0.1,3.5-1.4,4.7-2.4C282,165.6,334.4,124,387,82.4
			c3.3-2.6,3.1-3.9,0.2-6.6C354.4,46,316.3,27.2,272.8,19.2c-4.3-0.8-5.9,0.3-6.9,4.7c-11.4,52-23,104-34.6,155.9
			C229.2,189.8,227,199.6,224.9,209.6z M210.6,229.7c0.6-1.6,1-2.3,1.1-3.1c15.2-68.6,30.3-137.1,45.7-205.7c0.8-3.7-0.6-3.7-3.3-4
			c-40.1-3.3-78.2,3.6-114.7,20.5c-4.1,1.9-5.1,3.5-3.3,8c21.1,51.9,42,104,63,156C202.8,210.6,206.6,219.8,210.6,229.7z M244.7,272
			c-1.4,0.3-1.9,0.3-2.3,0.5c-63.9,29.9-127.7,59.9-191.6,89.8c-3,1.4-2.4,2.6-0.9,4.7c23,33.2,52.7,58.5,89,76.1
			c3.1,1.5,4.6,1.4,6.5-2c18.5-31.8,37.2-63.5,55.9-95.2C215.5,321.5,229.9,297.1,244.7,272z M205.2,257.9c0-1.4-0.9-1.7-1.5-2.1
			c-22-16.8-43.9-33.6-65.9-50.4c-31.5-24.1-63-48.2-94.5-72.3c-2.1-1.6-3.6-3.2-5.6,0.5C20.5,166,11.2,200.3,10.7,237
			c0,3.3,1,4.2,4.2,4.4c8,0.5,15.9,1.3,23.9,2c24.7,2.2,49.4,4.4,74.1,6.6c21.9,1.9,43.8,3.8,65.7,5.7
			C187.4,256.5,196.3,257.2,205.2,257.9z M225.6,270.2c-0.1-0.3-0.2-0.6-0.3-0.9c-22.4-2-44.7-4.1-67.1-6
			c-47.3-4.2-94.5-8.2-141.7-12.6c-5.4-0.5-5.8,1-5.5,5.5c2.7,34.4,12.6,66.5,29.7,96.4c2,3.5,3.7,2.5,6.2,1.3
			c54.6-25.6,109.2-51.2,163.8-76.8C215.8,274.9,220.7,272.6,225.6,270.2z M254.8,274.9c-0.3-0.1-0.6-0.2-0.9-0.3
			c-0.4,0.7-0.9,1.3-1.3,2c-33,56.1-66,112.2-99,168.2c-2,3.4-1,4.2,2.2,5.4c30.2,11.3,61.4,15.9,93.6,14c4.7-0.3,5.6-1.7,5.6-6.1
			c-0.1-59.8-0.1-119.6-0.1-179.4C254.8,277.5,254.8,276.2,254.8,274.9z"/>
		<g>
			<path class="st0" d="M700.7,347.4c0-1.5,0-3.1-0.2-4.6c-0.1-0.7-0.2-1.4-0.4-2.2c-0.8-2.3-0.8-4.7-1-7.1
				c-1.2-5.6-2.5-11.1-4.2-16.5c-2-5.1-3.9-10.3-6.3-15.3c-5.5-8.4-9.6-17.9-18.8-23.3c-6.6-4.9-13.2-9.7-19.8-14.6
				c-1.1,0-2.4,0.3-2.8-1.3c-1.2-1.9-2.9-2.7-5.2-2.5c-8.9-3.2-18.1-5.4-27.5-6.2c-27.8-2.4-53,4.1-74.8,22.1
				c-3.4,1.2-5.6,3.7-7.1,6.9c-7.1,7.9-12.1,17.2-17.1,26.5c-2.5,1.5-2.9,4.2-3.8,6.6c-4.4,11.5-6.1,23.5-7.4,35.7
				c0,2.8,0.1,5.7,0,8.5c-0.5,20.1,1.2,39.8,9.4,58.5c2.5,5.1,4.9,10.3,8.1,15c3.8,5.5,8.2,10.5,12.9,15.1
				c10.4,10.6,23.1,17.2,36.9,21.9c28.3,7.2,56,6.9,83-5.6c6-3.8,12.2-7.4,17.6-12.2c9.5-7.7,15.9-17.6,21.1-28.5
				c0.5-1.1,1.1-2.2,1.6-3.3c1.1-2.2,1.8-4.7,2.7-7c0.6-1.9,1.4-3.8,1.3-5.9c-0.3-5-4.7-3-7.2-4.2c-0.6,0-1.3-0.1-1.9-0.1
				c-6.8-0.3-13.5-1-20.2-2.5c-0.7-0.8-1.6-1.2-2.6-1.4c-1.9,0-3.9-0.5-5.8,0.3c-2.3,1.5-2.3,4.2-3.6,6.2c-0.3,0.5-0.5,1-0.8,1.6
				c-0.9,2.1-1.9,4.2-3.1,6.2c-2.7,5.6-7,10-11.3,14.3c-6.2,6.8-14,10.6-23,12.1c-0.6,0.1-1.2,0.3-1.8,0.5c-2.5,0.8-5.2,0.5-7.8,0.5
				c-2.4,0-4.7,0-7.1,0c-2.9-0.1-5.9,0.4-8.8-0.5c-0.6-0.2-1.2-0.3-1.9-0.4c-3.6-0.6-7.1-1.7-10.4-3.5c-8.3-3.3-14.8-9-20.6-15.6
				c-2.9-3.3-5.2-7-7.6-10.7c-0.7-1.2-1.2-2.4-1.6-3.7c-0.2-0.5-0.4-1-0.6-1.5c-0.5-1-0.9-2-1.2-3c-0.9-2.4-1.6-4.9-2.3-7.3
				c-0.6-1.8-0.8-3.7-1.3-5.5c-0.7-2.4-0.5-5-1.4-7.4c-0.1-7.5,0.7-8.4,9.5-8.4c42.4,0,84.8,0,127.2,0c4,0,7.9,0,11.9-0.1
				c4.6-0.1,6.8-2.3,6.9-6.9C700.8,360.6,700.7,354,700.7,347.4z M658.5,343.2c-5-0.1-10.1-0.1-15.1-0.2c-27.3,0-54.6,0-81.9,0
				c-2,0.1-3.9,0.3-5.9,0.2c-11.9-0.1-12-0.1-9.5-11.6c1.6-7.1,3.6-14,7.7-20.1c3.4-6.4,7.9-12,14-16c15.1-12.4,32.2-15.1,50.8-10.7
				l0,0c5.9,0.8,11.1,3,15.9,6.6v0c6.9,3.9,12.6,9.2,16.6,16.1c6.8,9.6,8.8,20.8,10.5,32.1C662,342.3,661.1,343.3,658.5,343.2z"/>
		</g>
		<path class="st0" d="M927.7,352.8c-0.1-0.7-0.3-1.4-0.5-2.1c-1.2-3.4-0.4-6.9-0.8-10.4c-2.4-13.6-5.4-27-11.6-39.5
			c-3.2-6.5-7.4-12.5-11.6-18.4c-18.9-22.3-42.6-32.9-72.1-29.1c-1.2,0.1-2.4,0.2-3.6,0.2c-2.2,1.2-4.8-0.1-7,1.1
			c-11.2,2.5-21.1,7.8-30.3,14.4c-5.2,0-6.1,5.2-9.3,7.7c-1.2,0.8-1.5,2.6-3.3,2.8c-0.7-7-1.1-13.9-2-20.8l0.1-0.1
			c-8.4,0-16.7,0.3-25.1-0.3c-5.8-0.4-7.2,1.4-7.2,7.2c0.2,92.8,0.1,185.7,0.1,278.5c0,2.2,0.4,4.4,0.5,6.5c0.8,1,1.9,1.3,3.2,1.3
			c0.8,0,1.6-0.2,2.3-0.4c4.5-0.7,9.1,0.1,13.7-0.2c5.3-0.3,10.9,1,16-1.7c2.5-2.4,2.4-5.5,2.4-8.6c-0.1-20.7,0-41.4,0-62.1
			c0-2.4,0-4.8,0-7.2c0.1-2.6-0.1-5.2,0-7.9c0-2.4,0-4.8-0.1-7.2c-0.2-1.8,0.1-3.6-0.2-4.8c0.8,1.3,2.5,2.8,4.1,4.3
			c1.9,1.6,4,2.8,5.8,4.5c3.5,2.8,7.5,4.9,11.4,7c8.5,5.2,18,6.6,27.6,7.7c2.5,0.5,4.9,0.5,7.4,0c13.9-1.2,27.3-4.3,39.5-11.6
			c10.6-5.3,18.3-13.9,26.4-22.1c6.3-8,10.5-17.1,14.9-26.2c3.7-9.7,6-19.6,7.8-29.8c0.2-1,0.4-2.1,0.5-3.1c0.1-3.2,0-6.5,1-9.6
			C928.4,366.2,928.1,359.5,927.7,352.8z M881.3,408c-8.6,25-37.2,43.9-66.1,33c-0.9-0.5-1.8-1-2.6-1.4c-7.3-1.6-12.5-6.3-17.3-11.7
			c-0.9-1.3-1.7-2.6-2.6-3.8c-0.5-0.3-0.9-0.5-1.4-0.8l0,0c-2.3-2.5-4.7-4.9-5-8.6c-5.4-7.3-7.3-15.8-8.3-24.5c0,0,0,0,0,0
			c-1.4-2.3-1.1-4.8-1.1-7.2c-0.1-0.7-0.1-1.5-0.2-2.2v0c-1.6-10.4-1.7-20.8,0-31.2c-0.2-0.4-0.2-0.7,0.1-1c0-7.3,1.4-14.3,4-21.1
			c0.4,0.3,0.8,0.7,1.1,0.9c-0.1-0.3-0.3-0.6-0.4-0.9c3.5-14,11-25.5,22.4-34.4c12.6-10.8,26.8-14.2,42.8-9.5v0
			c5.4,1,10.1,3.2,14.3,6.7c5.2,3,9.4,7.2,12.8,12.1c4.4,5,7.7,10.6,9.4,17.1c-0.1,0.3-0.2,0.6-0.3,0.9c3,6.9,4.6,14.1,4.9,21.6
			C890.3,364.4,890.7,386.7,881.3,408z"/>
		<path class="st0" d="M464.5,314.1v154h-36.2l-1-154c0,0-7.6-27.9-45.8-29c-47.9-3.1-51.6,52-51.6,52v131h-38V257.9h33.7v28.8
			c0,0,14.6-34.1,67.5-34.1C464.5,252.7,464.5,314.1,464.5,314.1z"/>
	</g>
</g>
</svg>
