<?xml version="1.0" encoding="utf-8"?>
<!-- Generator: Adobe Illustrator 19.2.1, SVG Export Plug-In . SVG Version: 6.00 Build 0)  -->
<svg version="1.1" id="Layer_1" xmlns="http://www.w3.org/2000/svg" xmlns:xlink="http://www.w3.org/1999/xlink" x="0px" y="0px"
	 viewBox="0 0 893.5 213.8" style="enable-background:new 0 0 893.5 213.8;" xml:space="preserve">
<style type="text/css">
	.st0{fill:#FFFFFF;}
</style>
<title>logonabulacapital</title>
<g>
	<path class="st0" d="M21.6,55.2c8.7,0,16.2,5.1,19.5,12.6c11.4-6.3,24.3-10.2,38.1-10.2c42.3,0,76.9,34.5,76.9,76.9v57.7
		c0,10.5-8.7,19.2-19.2,19.2c-10.5,0-19.2-8.7-19.2-19.2v-57.7c0-21.3-17.1-38.4-38.4-38.4c-21.3,0-38.4,17.1-38.4,38.4v57.7
		c0,10.5-8.7,19.2-19.2,19.2c-10.5,0-19.2-8.7-19.2-19.2v-57.7c0-13.8,3.6-26.7,10.2-37.8C5.1,93.1,0,85.6,0,76.9
		C0,64.9,9.6,55.2,21.6,55.2z"/>
	<path class="st0" d="M245,211.4c-42.3,0-76.9-34.5-76.9-76.9s34.5-76.9,76.9-76.9c42.3,0,76.9,34.5,76.9,76.9
		c0,10.5-8.7,19.2-19.2,19.2h-91c6.6,11.7,18.9,19.2,33.3,19.2h19.2c10.5,0,19.2,8.7,19.2,19.2s-8.7,19.2-19.2,19.2H245z
		 M211.7,115.3h66.7c-6.6-11.4-19.2-19.2-33.3-19.2C230.6,96.1,218.3,103.9,211.7,115.3z"/>
	<path class="st0" d="M338.7,19.2c0-10.5,8.7-19.2,19.2-19.2c10.5,0,19.2,8.7,19.2,19.2v48.9c11.1-6.6,24.3-10.5,38.4-10.5
		c42.3,0,76.9,34.5,76.9,76.9s-34.5,76.9-76.9,76.9c-14.1,0-27-3.6-38.4-10.2c-3.3,7.5-10.8,12.6-19.5,12.6
		c-12,0-21.6-9.6-21.6-21.6c0-8.7,5.1-16.5,12.6-19.8c-6.3-11.1-9.9-24-9.9-37.8V19.2z M415.5,173c21.3,0,38.4-17.1,38.4-38.4
		s-17.1-38.4-38.4-38.4c-21.3,0-38.4,17.1-38.4,38.4S394.2,173,415.5,173z"/>
	<path class="st0" d="M658.1,134.5c0,13.8-3.9,26.7-10.2,38.1c7.5,3.3,12.6,10.8,12.6,19.5c0,12-9.6,21.6-21.6,21.6
		c-8.7,0-16.2-5.1-19.8-12.6c-11.1,6.6-24,10.2-37.8,10.2c-42.3,0-76.9-34.5-76.9-76.9V76.9c0-10.5,8.7-19.2,19.2-19.2
		c10.5,0,19.2,8.7,19.2,19.2v57.7c0,21.3,17.1,38.4,38.4,38.4c21.3,0,38.4-17.1,38.4-38.4V76.9c0-10.5,8.7-19.2,19.2-19.2
		c10.5,0,19.2,8.7,19.2,19.2V134.5z"/>
	<path class="st0" d="M720.6,192.2c0,10.5-8.7,19.2-19.2,19.2c-10.5,0-19.2-8.7-19.2-19.2v-173c0-10.5,8.7-19.2,19.2-19.2
		c10.5,0,19.2,8.7,19.2,19.2V192.2z"/>
	<path class="st0" d="M814.2,57.7c42.3,0,76.9,34.5,76.9,76.9c0,13.8-3.9,26.7-10.2,38.1c7.5,3.3,12.6,10.8,12.6,19.5
		c0,12-9.6,21.6-21.6,21.6c-8.7,0-16.2-5.1-19.8-12.6c-11.1,6.6-24,10.2-37.8,10.2c-42.3,0-76.9-34.5-76.9-76.9
		S771.9,57.7,814.2,57.7z M814.2,173c21.3,0,38.4-17.1,38.4-38.4s-17.1-38.4-38.4-38.4c-21.3,0-38.4,17.1-38.4,38.4
		S792.9,173,814.2,173z"/>
</g>
</svg>
