<?xml version="1.0" encoding="utf-8"?>
<!-- Generator: Adobe Illustrator 19.2.0, SVG Export Plug-In . SVG Version: 6.00 Build 0)  -->
<svg version="1.1" id="Layer_1" xmlns="http://www.w3.org/2000/svg" xmlns:xlink="http://www.w3.org/1999/xlink" x="0px" y="0px"
	 viewBox="0 0 427.7 79.7" style="enable-background:new 0 0 427.7 79.7;" xml:space="preserve">
<style type="text/css">
	.st0{fill-rule:evenodd;clip-rule:evenodd;fill:url(#SVGID_1_);}
	.st1{opacity:0.7;fill:#FFFFFF;}
	.st2{fill-rule:evenodd;clip-rule:evenodd;fill:#FFFFFF;}
	.st3{fill:#FFFFFF;}
</style>
<g>
	<linearGradient id="SVGID_1_" gradientUnits="userSpaceOnUse" x1="56.8235" y1="71.5616" x2="425.6502" y2="71.5616">
		<stop  offset="0" style="stop-color:#FFFFFF"/>
		<stop  offset="2.363908e-02" style="stop-color:#FFFFFF;stop-opacity:0.9764"/>
		<stop  offset="1" style="stop-color:#FFFFFF;stop-opacity:0"/>
	</linearGradient>
	<polygon class="st0" points="425.7,74.1 56.8,74.1 60,69 425.7,69 	"/>
	<path class="st1" d="M278.8,57.6v-1.8l3.7-27.2c0-0.1,0.1-0.1,0.2-0.1h2.5c0.1,0,0.1,0,0.1,0.1l-0.2,1.3c0,0.2,0,0.2,0.2,0.1
		c1.5-1,3.1-1.6,4.8-1.6h2c2,0,3.7,0.7,5,2.2c1.3,1.4,1.8,3.2,1.5,5.2c0,0.1-0.1,0.2-0.1,0.2h-2.5c-0.1,0-0.1-0.1-0.1-0.2
		c0.1-1.3-0.2-2.4-1-3.2c-0.8-0.9-1.8-1.3-3.1-1.3h-2c-1.3,0-2.5,0.5-3.6,1.4c-1.1,0.9-1.7,2-1.9,3.3l-2.9,21.4
		c0,0.1-0.1,0.1-0.1,0.1H278.8L278.8,57.6z M278.8,38.1L279,37c0.2-1.1,0.1-2.2-0.1-3.2V38.1z M278.8,33.9v4.2l-0.8,5.7
		c0,0.1-0.1,0.2-0.1,0.2h-7.6v-2.8h4c0.9,0,1.4-0.4,1.5-1.3l0.4-2.7c0.2-1.4-0.1-2.6-0.9-3.6c-0.8-1-1.8-1.5-3.2-1.5h-1.9v-2.8
		c0.1,0,0.2,0,0.3,0h2c2.2,0,3.9,0.8,5.1,2.3C278.2,32.2,278.6,33,278.8,33.9L278.8,33.9z M278.8,55.8v1.8h-0.1
		c-0.1,0-0.2,0-0.1-0.1L278.8,55.8L278.8,55.8z M270.2,57.9v-2.8c0.8-0.2,1.6-0.7,2.3-1.4c1-1,1.6-2.2,1.8-3.7l0.3-2.2
		c0-0.1,0.1-0.1,0.2-0.1h2.5c0.1,0,0.1,0,0.1,0.1l-0.3,2.2c-0.3,2.2-1.3,4-2.9,5.6C273.1,56.9,271.7,57.6,270.2,57.9z M270.2,29.1
		v2.8h-0.1c-1.3,0-2.5,0.5-3.6,1.4c-1.1,0.9-1.7,2-1.9,3.3l-0.4,3.2c-0.1,0.9,0.3,1.3,1.2,1.3h4.7v2.8h-5.1c-0.9,0-1.5,0.5-1.6,1.3
		l-0.7,5.3c-0.2,1.3,0.1,2.4,0.9,3.4c0.8,0.9,1.9,1.4,3.2,1.4h2c0.5,0,0.9-0.1,1.3-0.2v2.8c-0.6,0.1-1.1,0.2-1.7,0.2h-2
		c-2.1,0-3.8-0.7-5-2.2c-0.1-0.1-0.1-0.2-0.2-0.2V41.2l0.6-4.6c0.3-2.1,1.3-3.8,3-5.3C266.5,29.9,268.3,29.2,270.2,29.1L270.2,29.1z
		 M261.3,31.9h0.8c0.1,0,0.2-0.1,0.2-0.2l0.3-2.5c0-0.1,0-0.2-0.1-0.2h-1.2V31.9z M261.3,29.1v2.8h-6.4c-0.9,0-1.4,0.5-1.5,1.3
		L251,50.6c-0.2,1.3,0.1,2.4,0.9,3.3c0.8,0.9,1.9,1.4,3.2,1.4h3.9c0.1,0,0.1,0.1,0.1,0.2l-0.3,2.5c0,0.1,0,0.1-0.1,0.1h-3.9
		c-2.1,0-3.8-0.7-5.1-2.2c-1.3-1.5-1.8-3.2-1.5-5.3l2.4-17.4c0.1-0.9-0.3-1.3-1.2-1.3h-2.3c-0.1,0-0.1-0.1-0.1-0.2l0.3-2.5
		c0-0.1,0.1-0.2,0.2-0.2h2.3c0.9,0,1.4-0.5,1.5-1.3l0.5-3.9h2.8l-0.5,3.9c-0.1,0.9,0.3,1.3,1.2,1.3H261.3L261.3,29.1z M261.3,41.2
		l-1.3,9.4c-0.3,2,0.2,3.7,1.3,5.1V41.2L261.3,41.2z M235.9,58.1v-2.7h0c1.3,0,2.5-0.5,3.5-1.4c1-0.9,1.7-2.1,1.8-3.4l0.7-5.3
		c0.1-0.9-0.3-1.4-1.2-1.4h-4.9v-2.7h5.3c0.9,0,1.4-0.5,1.5-1.4l0.4-3.2c0.2-1.3-0.1-2.4-0.9-3.3c-0.8-0.9-1.8-1.4-3.1-1.4h-3.3V29
		h3.7c2.1,0,3.7,0.7,5,2.2c1.3,1.5,1.7,3.2,1.5,5.3L243,58c0,0.1-0.1,0.2-0.1,0.2h-2.5c-0.1,0-0.1-0.1-0.1-0.2l0.2-1.3
		c0-0.1,0-0.2,0-0.2c0,0-0.1,0-0.1,0.1C238.8,57.5,237.4,58,235.9,58.1z M229.6,29.2l-1.3,3.6V29h1.3
		C229.6,29,229.7,29.1,229.6,29.2L229.6,29.2z M235.9,29v2.8h-3.3c-0.1,0-0.2,0-0.1-0.1l0.3-2.5c0-0.1,0.1-0.2,0.2-0.2H235.9
		L235.9,29z M235.9,41.2v2.7h-0.4c-1.3,0-2.5,0.5-3.6,1.4c-1.1,0.9-1.7,2.1-1.9,3.4l-0.3,1.9c-0.2,1.3,0.1,2.4,0.9,3.4
		c0.8,0.9,1.9,1.4,3.2,1.4h2v2.7c-0.1,0-0.3,0-0.4,0h-2c-2.1,0-3.8-0.7-5-2.2c-0.1-0.1-0.1-0.2-0.2-0.3v-10c0.5-0.8,1.1-1.6,1.9-2.3
		C231.9,41.9,233.8,41.2,235.9,41.2L235.9,41.2z M228.3,32.7L218.8,58c0,0.1-0.1,0.2-0.2,0.2h-2.6c-0.1,0-0.2-0.1-0.1-0.1l-2-20.6
		c0-0.3-0.2-0.4-0.5-0.4c-0.3,0-0.5,0.1-0.6,0.4L205,58c0,0.1-0.1,0.2-0.2,0.2h-2.6c-0.1,0-0.1-0.1-0.1-0.2l-2.9-28.8
		c0-0.1,0.1-0.2,0.2-0.2h2.8c0.1,0,0.2,0.1,0.1,0.1l2,20c0,0.3,0.2,0.4,0.5,0.4c0.3,0,0.5-0.1,0.6-0.4l7.5-20c0-0.1,0.1-0.2,0.2-0.2
		h3c0.1,0,0.1,0.1,0.1,0.2l2,20c0,0.3,0.2,0.4,0.5,0.4c0.3,0,0.5-0.1,0.6-0.4l7.5-20c0-0.1,0.1-0.2,0.2-0.2h1.5V32.7L228.3,32.7z
		 M228.3,45.7c-0.5,0.9-0.9,1.9-1,3l-0.3,1.9c-0.3,2,0.2,3.6,1.3,5.1V45.7z"/>
	<path class="st2" d="M176.3,58.1V54h0.1c2,0,3.7-0.7,5.3-2.1c1.5-1.4,2.4-3.1,2.7-5l1-7.9c0.2-1.4-0.4-2.1-1.8-2.1h-7.3v-4.1h7.8
		c1.3,0,2.1-0.7,2.3-2.1l0.6-4.8c0.2-2-0.2-3.6-1.4-5c-1.2-1.4-2.8-2.1-4.7-2.1h-4.6v-4.2h5.1c3.1,0,5.6,1.1,7.5,3.3
		c1.9,2.2,2.7,4.9,2.3,8l-4,32c0,0.2-0.1,0.2-0.2,0.2h-3.8c-0.2,0-0.2-0.1-0.2-0.2l0.2-1.9c0-0.2,0-0.2,0-0.2c-0.1,0-0.1,0-0.2,0.1
		C180.9,57.3,178.6,58,176.3,58.1z M176.3,14.6v4.2H171c-0.2,0-0.2-0.1-0.2-0.2l0.5-3.8c0-0.2,0.1-0.2,0.3-0.2H176.3L176.3,14.6z
		 M176.3,32.7v4.1h-0.7c-2,0-3.7,0.7-5.3,2.1c-1.6,1.4-2.5,3.1-2.7,5l-0.4,2.9c-0.2,2,0.2,3.6,1.5,5c1.2,1.4,2.8,2.1,4.8,2.1h2.8
		v4.1c-0.1,0-0.3,0-0.4,0H173c-3.1,0-5.6-1.1-7.6-3.3c-1.3-1.5-2.1-3.2-2.4-5.1V47l0-0.1l0.4-2.9c0.4-3.1,1.8-5.8,4.3-8
		c2.5-2.2,5.3-3.3,8.4-3.3H176.3L176.3,32.7z M163,25.7V23C163.1,23.8,163.1,24.8,163,25.7z M120.9,14.8l-1.4,3.9v-4.2h1.3
		C120.9,14.6,121,14.7,120.9,14.8L120.9,14.8z M163,23c-0.2-1.9-1-3.6-2.3-5.1c-1.9-2.2-4.4-3.3-7.5-3.3c-3.8,0-7,1.6-9.7,4.7l0,0
		c-0.2-0.5-0.6-1-1-1.4c-1.9-2.2-4.4-3.3-7.5-3.3c-0.7,0-1.4,0.1-2,0.2c-1.8,0.3-3.6,1.1-5.3,2.3c-0.2,0.2-0.3,0.1-0.3-0.2l0.3-2
		c0-0.2,0-0.2-0.1-0.2h-3.8c-0.2,0-0.2,0.1-0.3,0.2l-3.9,31.4v11.9h2.5c0.1,0,0.2-0.1,0.2-0.2l4-32c0.2-2,1.2-3.6,2.7-5
		c1.6-1.4,3.3-2.1,5.3-2.1c2,0,3.5,0.7,4.7,2.1c1.2,1.4,1.7,3,1.4,5l-4,32c0,0.2,0,0.2,0.2,0.2h3.7c0.2,0,0.2-0.1,0.3-0.2l4-32
		c0.2-2,1.2-3.6,2.7-5c1.6-1.4,3.3-2.1,5.3-2.1c1.9,0,3.5,0.7,4.7,2.1c1.2,1.4,1.7,3.1,1.5,5l-4,32c0,0.2,0,0.2,0.2,0.2h3.7
		c0.2,0,0.2-0.1,0.3-0.2l4-32l0-0.1V23L163,23z M163,47v2.7C162.9,48.8,162.9,47.9,163,47z M119.5,18.8l-14.2,39.1
		c-0.1,0.2-0.2,0.2-0.3,0.2H101c-0.2,0-0.2-0.1-0.2-0.2L97.3,27c-0.1-0.4-0.3-0.6-0.7-0.6c-0.5,0-0.8,0.2-0.9,0.6L84.5,57.9
		c-0.1,0.2-0.2,0.2-0.3,0.2h-3.9c-0.2,0-0.2-0.1-0.2-0.2l-4.9-43.1c0-0.2,0.1-0.2,0.3-0.2h4.2c0.2,0,0.2,0.1,0.2,0.2l3.3,29.9
		c0.1,0.4,0.3,0.6,0.7,0.6c0.5,0,0.7-0.2,0.9-0.6l10.9-29.9c0.1-0.2,0.2-0.2,0.3-0.2h4.4c0.2,0,0.2,0.1,0.2,0.2l3.4,29.9
		c0.1,0.4,0.3,0.6,0.7,0.6c0.5,0,0.7-0.2,0.8-0.6l10.9-29.9c0.1-0.2,0.2-0.2,0.3-0.2h2.9V18.8L119.5,18.8z M119.5,46.2L118,57.9
		c0,0.2,0,0.2,0.2,0.2h1.3V46.2z"/>
	<path class="st2" d="M12.3,31.8l-1.7,1.8l-1.5,2l-1.3,2c-2,3-3.1,6.6-3.4,10.2C4,50.7,4,54.2,5,57c0,0,0.8,2.4,0.9,2.4
		c2.3,6.5,8.4,11.9,14.8,14.1c0.9,0.3,1.7,0.5,2.6,0.7c0,0,2.3,0.4,2.4,0.4c7.6,1.3,15.4-1.9,20.7-7.3c0.7-0.8,1.3-1.9,2.1-2.5
		l-1.7,1.4c0,0-1.8,1.2-1.9,1.3c-5.1,3.4-11.6,4.2-17.5,3.1c-3.5-0.7-6.5-2.1-9.5-4.1l-1.8-1.3l-1.8-1.7c0,0-1.4-1.7-1.4-1.7
		c-1.9-2.2-3.3-4.9-4.1-7.7c-1-3.2-1.5-6.3-1.1-9.6c0.4-3.9,1.7-7.6,3.7-11L12.3,31.8z"/>
	<path class="st2" d="M48.7,64.6c8.5-7.7,8.4-23.5-1.8-45.1c-0.1-0.1-0.1-0.3-0.2-0.4c-0.1-0.3-5-11-5-11.4c-0.1-1.2,5.5-1.5,7-1.9
		c2.5-0.7,5.2,7.4,5.2,7.4C56.3,30.3,62,51.4,48.7,64.6z"/>
	<path class="st3" d="M18.7,57C18.8,57,18.8,57,18.7,57C18.8,57,18.8,57,18.7,57L18.7,57L18.7,57c3-2.5,5.2-5.5,6.9-8.9
		c0.3-0.6,0.6-1.3,0.9-2c0.3-0.7,0.5-1.4,0.8-2h0l0,0c0.6-1.8,0.9-3.6,1.3-5.5c0.2-1.3,0.5-2.5,0.8-3.8v0c0.2-0.7,0.4-1.2,0.7-1.7
		c0.3-0.6,0.8-1.1,1.3-1.3c0.5-0.3,1.2-0.3,1.9-0.1c0.4,0.1,0.8,0.3,1.3,0.5l0,0c3.1,1.9,4.8,5.1,5.7,8.6c0.9,3.5,1.1,7.4,1.1,10.5
		v0c0,0.2,0,0.5,0,0.7c0,1.1,0,2.2,0.1,3.2l0,0l0,0.1l0,0c0.1,0.7,0.2,1.1,0.3,1.3c0.1,0.2,0.3,0.2,0.4,0.1c0.2-0.1,0.5-0.3,0.8-0.6
		c1-1,2-2.8,2.4-3.5h0c2.1-4.4,2.9-9.2,2.7-13.9h0c0-0.5-0.1-1-0.1-1.5l0,0l0,0l0,0l0-0.2l0-0.1l0,0l0-0.1l0,0l0-0.1l0-0.1l0,0
		l0-0.2c-0.1-0.9-0.3-1.9-0.5-2.8c-1.1-4.8-3.1-9.3-6.2-13.1c3.9,4.5,6.6,10,7.7,15.9c0.9,6.2,0.2,12.7-2.3,18.5
		c-0.6,1.4-1.3,2.7-2.1,4.1l0,0c-0.7,1.1-1.4,2.2-2.4,3.3c-0.9,1.1-1.9,2.1-3.1,2.7h0c-1.2,0.6-1.9,0.4-2.2-0.2
		c-0.7-1.3,0.2-4.7,0.6-6.2c0.1-0.3,0.1-0.5,0.2-0.6h0l0,0h0c0.6-2.8,1.2-6.3,1.2-9.7c0-3.3-0.7-6.6-2.8-8.9l0,0
		c-1.3-1.4-2.3-1.3-3.1-0.6c-1.1,1-1.9,2.9-2.5,4.5c-0.2,0.5-0.4,0.9-0.6,1.3h0l0,0l0,0c-1.7,3.6-3.9,7-6.8,9.7
		C22.1,55,21.6,55.5,21,56c-0.6,0.5-1.2,1-2,1.5c-0.9,0.5-0.7,0.4-2.1,1.1C16.9,58.5,18.7,57.1,18.7,57L18.7,57L18.7,57L18.7,57
		L18.7,57L18.7,57z"/>
</g>
</svg>
